<?xml version="1.0" encoding="UTF-8"?>
<!DOCTYPE svg PUBLIC "-//W3C//DTD SVG 1.1//EN" "http://www.w3.org/Graphics/SVG/1.1/DTD/svg11.dtd">
<svg xmlns="http://www.w3.org/2000/svg" version="1.1" width="220px" height="220px" style="shape-rendering:geometricPrecision; text-rendering:geometricPrecision; image-rendering:optimizeQuality; fill-rule:evenodd; clip-rule:evenodd" xmlns:xlink="http://www.w3.org/1999/xlink">
<g><path style="opacity:1" fill="#fdfdfd" d="M -0.5,-0.5 C 72.8333,-0.5 146.167,-0.5 219.5,-0.5C 219.5,72.8333 219.5,146.167 219.5,219.5C 146.167,219.5 72.8333,219.5 -0.5,219.5C -0.5,146.167 -0.5,72.8333 -0.5,-0.5 Z"/></g>
<g><path style="opacity:1" fill="#1a1a1a" d="M 43.5,9.5 C 65.5066,25.1758 87.5066,40.8425 109.5,56.5C 131.448,41.0612 153.281,25.3946 175,9.5C 167.376,35.2111 159.209,60.8778 150.5,86.5C 172.336,102.828 194.336,118.995 216.5,135C 189.161,135.167 161.827,135.667 134.5,136.5C 126.366,161.567 118.033,186.567 109.5,211.5C 100.972,186.583 92.6388,161.583 84.5,136.5C 57.1728,135.667 29.8394,135.167 2.5,135C 24.6641,118.995 46.6641,102.828 68.5,86.5C 59.9609,60.883 51.6275,35.2164 43.5,9.5 Z"/></g>
<g><path style="opacity:1" fill="#f1f1f1" d="M 145.5,83.5 C 145.167,83.5 144.833,83.5 144.5,83.5C 144.433,82.0413 144.766,80.7079 145.5,79.5C 146.665,77.1649 147.332,74.6649 147.5,72C 143.717,64.5247 145.217,58.358 152,53.5C 153.174,49.9542 153.84,46.2875 154,42.5C 160.305,38.5709 164.138,32.9042 165.5,25.5C 165.154,24.3044 164.654,24.3044 164,25.5C 162.439,28.7833 160.273,31.6166 157.5,34C 153.942,34.1459 150.609,34.9792 147.5,36.5C 147.167,35.5 146.5,34.8333 145.5,34.5C 153.315,28.1969 161.315,22.0302 169.5,16C 170.332,15.3123 170.998,15.479 171.5,16.5C 163.367,39.3993 155.534,62.3993 148,85.5C 147.292,84.6195 146.458,83.9528 145.5,83.5 Z"/></g>
<g><path style="opacity:1" fill="#959595" d="M 147.5,36.5 C 147.75,37.9221 148.583,38.9221 150,39.5C 151.852,47.2822 151.352,47.4489 148.5,40C 147.207,39.51 145.873,39.3433 144.5,39.5C 145.5,38.5 146.5,37.5 147.5,36.5 Z"/></g>
<g><path style="opacity:1" fill="#121212" d="M 70.5,36.5 C 70.3146,38.1958 69.4813,39.5291 68,40.5C 67.4674,44.8529 67.8007,45.1862 69,41.5C 70.8841,39.4237 73.0508,39.0903 75.5,40.5C 74.8075,41.5178 74.1408,42.5178 73.5,43.5C 75.4352,42.8505 77.4352,42.5172 79.5,42.5C 78.3362,45.1865 76.5029,47.5199 74,49.5C 73.3333,50.1667 73.3333,50.8333 74,51.5C 76.4197,47.3761 79.9197,45.5428 84.5,46C 84.9574,46.414 85.2907,46.914 85.5,47.5C 81.1053,48.4682 77.6053,50.8015 75,54.5C 74.3333,55.1667 74.3333,55.8333 75,56.5C 83.3845,47.9694 90.8845,48.6361 97.5,58.5C 92.6814,58.1065 87.6814,58.6065 82.5,60C 79.7605,61.0497 78.2605,62.883 78,65.5C 83.8745,59.661 90.7078,58.161 98.5,61C 99.3567,61.6891 100.023,62.5224 100.5,63.5C 92.0098,62.1962 84.0098,64.0295 76.5,69C 82.047,66.8359 87.8803,65.3359 94,64.5C 99.3904,64.2621 102.89,66.5954 104.5,71.5C 104.565,71.9382 104.399,72.2716 104,72.5C 103.261,71.4258 102.261,70.7591 101,70.5C 95.6893,70.8258 90.3559,70.8258 85,70.5C 83.47,71.9202 81.6367,72.9202 79.5,73.5C 79.7093,74.086 80.0426,74.586 80.5,75C 78.0995,75.1858 75.7662,75.6858 73.5,76.5C 73.8555,77.5223 74.5222,78.189 75.5,78.5C 74.2073,79.6448 73.0407,79.3115 72,77.5C 71.296,75.7216 70.796,73.8882 70.5,72C 72.1263,67.952 72.6263,63.7853 72,59.5C 69.6667,56.5 67.3333,53.5 65,50.5C 64.6667,47.5 64.3333,44.5 64,41.5C 61.828,40.4147 59.828,39.0814 58,37.5C 56.0331,33.5995 54.6997,29.5995 54,25.5C 55.9555,27.9112 57.7888,30.4112 59.5,33C 63.3404,33.9586 67.0071,35.1253 70.5,36.5 Z"/></g>
<g><path style="opacity:1" fill="#a5a5a5" d="M 143.5,40.5 C 146.388,43.2263 148.721,46.3929 150.5,50C 150.167,50.1667 149.833,50.3333 149.5,50.5C 147.692,46.3512 144.692,43.6846 140.5,42.5C 141.29,41.5987 142.29,40.9321 143.5,40.5 Z"/></g>
<g><path style="opacity:1" fill="#9a9a9a" d="M 73.5,43.5 C 72.2498,45.9324 70.7498,48.2657 69,50.5C 69.0011,47.3093 70.5011,44.976 73.5,43.5 Z"/></g>
<g><path style="opacity:1" fill="#e6e6e6" d="M 145.5,34.5 C 146.5,34.8333 147.167,35.5 147.5,36.5C 146.5,37.5 145.5,38.5 144.5,39.5C 143.833,39.5 143.5,39.8333 143.5,40.5C 142.29,40.9321 141.29,41.5987 140.5,42.5C 139.522,42.811 138.855,43.4777 138.5,44.5C 142.767,46.2473 145.267,49.2473 146,53.5C 143.64,49.649 140.307,46.9823 136,45.5C 134.566,45.9304 133.399,46.7638 132.5,48C 137.117,48.6389 140.784,50.8056 143.5,54.5C 143.167,54.8333 142.833,55.1667 142.5,55.5C 138.978,50.8121 134.311,49.3121 128.5,51C 127.328,51.4186 126.328,52.0853 125.5,53C 130.925,52.8219 135.925,54.1553 140.5,57C 141.451,57.7175 141.617,58.5509 141,59.5C 134.778,54.1392 128.278,53.4725 121.5,57.5C 125.459,58.3265 129.459,58.8265 133.5,59C 136.726,60.1058 139.393,61.9391 141.5,64.5C 141.167,64.8333 140.833,65.1667 140.5,65.5C 134.409,59.379 127.409,58.0456 119.5,61.5C 117.344,63.1282 117.344,64.1282 119.5,64.5C 116.833,66.1734 114.833,68.5067 113.5,71.5C 113.957,72.2975 114.624,72.6309 115.5,72.5C 112.616,75.3434 109.283,76.01 105.5,74.5C 105.737,73.209 105.404,72.209 104.5,71.5C 102.89,66.5954 99.3904,64.2621 94,64.5C 87.8803,65.3359 82.047,66.8359 76.5,69C 84.0098,64.0295 92.0098,62.1962 100.5,63.5C 100.023,62.5224 99.3567,61.6891 98.5,61C 90.7078,58.161 83.8745,59.661 78,65.5C 78.2605,62.883 79.7605,61.0497 82.5,60C 87.6814,58.6065 92.6814,58.1065 97.5,58.5C 90.8845,48.6361 83.3845,47.9694 75,56.5C 74.3333,55.8333 74.3333,55.1667 75,54.5C 77.6053,50.8015 81.1053,48.4682 85.5,47.5C 85.2907,46.914 84.9574,46.414 84.5,46C 79.9197,45.5428 76.4197,47.3761 74,51.5C 73.3333,50.8333 73.3333,50.1667 74,49.5C 76.5029,47.5199 78.3362,45.1865 79.5,42.5C 77.4352,42.5172 75.4352,42.8505 73.5,43.5C 74.1408,42.5178 74.8075,41.5178 75.5,40.5C 73.0508,39.0903 70.8841,39.4237 69,41.5C 67.8007,45.1862 67.4674,44.8529 68,40.5C 69.4813,39.5291 70.3146,38.1958 70.5,36.5C 72.2967,36.0651 74.2967,36.0651 76.5,36.5C 86.3921,43.3677 96.2254,50.3677 106,57.5C 106.667,58.1667 106.667,58.8333 106,59.5C 104.702,60.5596 103.535,61.7263 102.5,63C 102.833,63.5 103.167,64 103.5,64.5C 105.228,62.7745 107.228,61.4411 109.5,60.5C 111.5,61.8333 113.5,63.1667 115.5,64.5C 116.833,63.5 116.833,62.5 115.5,61.5C 114.3,60.4688 112.966,59.6355 111.5,59C 122.433,50.2273 133.766,42.0606 145.5,34.5 Z"/></g>
<g><path style="opacity:1" fill="#111111" d="M 145.5,79.5 C 144.761,79.631 144.094,79.4643 143.5,79C 144.337,77.9887 144.67,76.8221 144.5,75.5C 142.396,75.7989 140.396,75.4656 138.5,74.5C 138.709,73.914 139.043,73.414 139.5,73C 137.22,72.7883 135.22,71.9549 133.5,70.5C 129.377,70.7834 125.377,71.1168 121.5,71.5C 120.07,71.5792 118.736,71.2458 117.5,70.5C 116.478,70.8555 115.811,71.5222 115.5,72.5C 114.624,72.6309 113.957,72.2975 113.5,71.5C 114.833,68.5067 116.833,66.1734 119.5,64.5C 117.344,64.1282 117.344,63.1282 119.5,61.5C 127.409,58.0456 134.409,59.379 140.5,65.5C 140.833,65.1667 141.167,64.8333 141.5,64.5C 139.393,61.9391 136.726,60.1058 133.5,59C 129.459,58.8265 125.459,58.3265 121.5,57.5C 128.278,53.4725 134.778,54.1392 141,59.5C 141.617,58.5509 141.451,57.7175 140.5,57C 135.925,54.1553 130.925,52.8219 125.5,53C 126.328,52.0853 127.328,51.4186 128.5,51C 134.311,49.3121 138.978,50.8121 142.5,55.5C 142.833,55.1667 143.167,54.8333 143.5,54.5C 140.784,50.8056 137.117,48.6389 132.5,48C 133.399,46.7638 134.566,45.9304 136,45.5C 140.307,46.9823 143.64,49.649 146,53.5C 145.267,49.2473 142.767,46.2473 138.5,44.5C 138.855,43.4777 139.522,42.811 140.5,42.5C 144.692,43.6846 147.692,46.3512 149.5,50.5C 149.833,50.3333 150.167,50.1667 150.5,50C 148.721,46.3929 146.388,43.2263 143.5,40.5C 143.5,39.8333 143.833,39.5 144.5,39.5C 145.873,39.3433 147.207,39.51 148.5,40C 151.352,47.4489 151.852,47.2822 150,39.5C 148.583,38.9221 147.75,37.9221 147.5,36.5C 150.609,34.9792 153.942,34.1459 157.5,34C 160.273,31.6166 162.439,28.7833 164,25.5C 164.654,24.3044 165.154,24.3044 165.5,25.5C 164.138,32.9042 160.305,38.5709 154,42.5C 153.84,46.2875 153.174,49.9542 152,53.5C 145.217,58.358 143.717,64.5247 147.5,72C 147.332,74.6649 146.665,77.1649 145.5,79.5 Z"/></g>
<g><path style="opacity:1" fill="#d8d8d8" d="M 83.5,53.5 C 86.5184,53.3354 89.5184,53.502 92.5,54C 86.8461,54.165 81.8461,55.9983 77.5,59.5C 77.1667,59.3333 76.8333,59.1667 76.5,59C 78.54,56.6642 80.8733,54.8308 83.5,53.5 Z"/></g>
<g><path style="opacity:1" fill="#c7c7c7" d="M 119.5,64.5 C 128.473,62.1497 136.473,64.1497 143.5,70.5C 143.333,70.8333 143.167,71.1667 143,71.5C 136.054,66.3037 128.221,63.9704 119.5,64.5 Z"/></g>
<g><path style="opacity:1" fill="#b5b5b5" d="M 104.5,71.5 C 105.404,72.209 105.737,73.209 105.5,74.5C 103.771,73.8825 102.271,72.8825 101,71.5C 100.692,72.3081 100.192,72.9747 99.5,73.5C 97.0191,71.1945 94.6858,71.1945 92.5,73.5C 90.5675,72.4798 88.5675,72.3131 86.5,73C 87.9597,73.8113 88.293,74.6446 87.5,75.5C 85.677,74.2528 83.677,73.5861 81.5,73.5C 82.0134,75.2895 82.5134,76.9562 83,78.5C 80.2078,76.0649 77.7078,76.0649 75.5,78.5C 74.5222,78.189 73.8555,77.5223 73.5,76.5C 75.7662,75.6858 78.0995,75.1858 80.5,75C 80.0426,74.586 79.7093,74.086 79.5,73.5C 81.6367,72.9202 83.47,71.9202 85,70.5C 90.3559,70.8258 95.6893,70.8258 101,70.5C 102.261,70.7591 103.261,71.4258 104,72.5C 104.399,72.2716 104.565,71.9382 104.5,71.5 Z"/></g>
<g><path style="opacity:1" fill="#0d0d0d" d="M 105.5,74.5 C 109.283,76.01 112.616,75.3434 115.5,72.5C 117.842,73.9869 119.842,73.6536 121.5,71.5C 122.873,71.3433 124.207,71.51 125.5,72C 124.238,74.4948 124.571,74.8282 126.5,73C 128.167,72.3333 129.833,72.3333 131.5,73C 130.549,73.7175 130.383,74.5509 131,75.5C 137.151,72.157 138.317,72.9903 134.5,78C 136.258,77.6557 138.091,77.1557 140,76.5C 140.833,76.8333 141.667,77.1667 142.5,77.5C 140.713,78.316 139.046,79.316 137.5,80.5C 139.239,80.5938 141.239,80.7605 143.5,81C 142.434,82.159 142.767,82.9924 144.5,83.5C 144.741,86.999 143.908,87.3323 142,84.5C 141.437,85.7248 141.77,86.7248 143,87.5C 143.667,89.1667 143.667,90.8333 143,92.5C 142.189,91.0403 141.355,90.707 140.5,91.5C 142.117,93.6316 142.617,95.9649 142,98.5C 141.346,97.3044 140.846,97.3044 140.5,98.5C 143.651,102.266 142.651,104.1 137.5,104C 139.25,105.754 139.917,107.921 139.5,110.5C 137.473,110.338 135.473,110.505 133.5,111C 134.793,111.49 136.127,111.657 137.5,111.5C 137.66,113.199 137.494,114.866 137,116.5C 135.334,118.996 133.5,121.329 131.5,123.5C 130.034,124.347 129.2,125.68 129,127.5C 128.08,127.93 127.247,128.264 126.5,128.5C 127.592,130.183 128.259,132.016 128.5,134C 126.754,140.813 125.254,147.646 124,154.5C 122.89,156.037 121.39,156.703 119.5,156.5C 119.371,158.216 119.038,159.883 118.5,161.5C 119.79,160.942 120.623,159.942 121,158.5C 121.667,160.5 121.667,162.5 121,164.5C 118.388,169.39 116.055,174.39 114,179.5C 112.908,176.956 112.241,174.289 112,171.5C 108.975,176.77 108.809,182.103 111.5,187.5C 109.9,194.092 108.234,194.092 106.5,187.5C 108.906,182.58 109.073,177.58 107,172.5C 106.751,175.177 105.751,177.51 104,179.5C 103.847,176.849 103.013,174.516 101.5,172.5C 98.0004,168.823 96.8337,164.49 98,159.5C 99.4445,162.055 100.611,164.721 101.5,167.5C 102.614,166.277 102.781,164.944 102,163.5C 99.8543,160.874 98.521,157.874 98,154.5C 97.3946,156.481 96.3946,156.815 95,155.5C 93.429,147.812 91.929,140.146 90.5,132.5C 90.7512,130.83 91.4178,129.33 92.5,128C 91.2559,127.544 90.4226,128.044 90,129.5C 89.7599,127.148 88.9265,125.148 87.5,123.5C 83.1289,120.767 80.7956,116.767 80.5,111.5C 82.1992,111.66 83.8659,111.494 85.5,111C 83.0995,110.814 80.7662,110.314 78.5,109.5C 79.0933,107.618 79.7599,105.785 80.5,104C 78.9419,103.79 77.6085,103.29 76.5,102.5C 77.3497,100.506 77.8497,98.5056 78,96.5C 77.0853,97.3279 76.4186,98.3279 76,99.5C 75.4944,96.3261 76.3278,93.4927 78.5,91C 78.1667,90.8333 77.8333,90.6667 77.5,90.5C 76.4164,91.6651 75.5831,92.9984 75,94.5C 74.289,92.1009 74.4557,89.7676 75.5,87.5C 73.0956,85.4016 73.429,83.5683 76.5,82C 76.1667,81.6667 75.8333,81.3333 75.5,81C 82.0367,80.4268 82.0367,79.5934 75.5,78.5C 77.7078,76.0649 80.2078,76.0649 83,78.5C 82.5134,76.9562 82.0134,75.2895 81.5,73.5C 83.677,73.5861 85.677,74.2528 87.5,75.5C 88.293,74.6446 87.9597,73.8113 86.5,73C 88.5675,72.3131 90.5675,72.4798 92.5,73.5C 94.6858,71.1945 97.0191,71.1945 99.5,73.5C 100.192,72.9747 100.692,72.3081 101,71.5C 102.271,72.8825 103.771,73.8825 105.5,74.5 Z"/></g>
<g><path style="opacity:1" fill="#b5b5b5" d="M 121.5,71.5 C 119.842,73.6536 117.842,73.9869 115.5,72.5C 115.811,71.5222 116.478,70.8555 117.5,70.5C 118.736,71.2458 120.07,71.5792 121.5,71.5 Z"/></g>
<g><path style="opacity:1" fill="#a4a4a4" d="M 121.5,71.5 C 125.377,71.1168 129.377,70.7834 133.5,70.5C 135.22,71.9549 137.22,72.7883 139.5,73C 139.043,73.414 138.709,73.914 138.5,74.5C 140.396,75.4656 142.396,75.7989 144.5,75.5C 144.67,76.8221 144.337,77.9887 143.5,79C 144.094,79.4643 144.761,79.631 145.5,79.5C 144.766,80.7079 144.433,82.0413 144.5,83.5C 142.767,82.9924 142.434,82.159 143.5,81C 141.239,80.7605 139.239,80.5938 137.5,80.5C 139.046,79.316 140.713,78.316 142.5,77.5C 141.667,77.1667 140.833,76.8333 140,76.5C 138.091,77.1557 136.258,77.6557 134.5,78C 138.317,72.9903 137.151,72.157 131,75.5C 130.383,74.5509 130.549,73.7175 131.5,73C 129.833,72.3333 128.167,72.3333 126.5,73C 124.571,74.8282 124.238,74.4948 125.5,72C 124.207,71.51 122.873,71.3433 121.5,71.5 Z"/></g>
<g><path style="opacity:1" fill="#cfcfcf" d="M 118.5,78.5 C 123.639,77.7393 127.973,79.2393 131.5,83C 128.635,81.9171 125.635,80.7504 122.5,79.5C 119.868,80.4399 117.202,80.6066 114.5,80C 116.058,79.79 117.391,79.29 118.5,78.5 Z"/></g>
<g><path style="opacity:1" fill="#c1c1c1" d="M 92.5,78.5 C 96.5598,78.4847 100.56,78.9847 104.5,80C 98.4435,78.388 92.9435,79.5547 88,83.5C 87.3333,82.8333 87.3333,82.1667 88,81.5C 89.6516,80.6006 91.1516,79.6006 92.5,78.5 Z"/></g>
<g><path style="opacity:1" fill="#a4a4a4" d="M 96.5,89.5 C 93.8664,87.4806 94.033,85.4806 97,83.5C 96.8651,85.4247 96.6984,87.4247 96.5,89.5 Z"/></g>
<g><path style="opacity:1" fill="#b4b4b4" d="M 120.5,84.5 C 122.559,83.3536 123.559,84.1869 123.5,87C 123.116,91.7685 121.449,92.4352 118.5,89C 121.504,89.9989 122.671,88.8323 122,85.5C 121.617,84.944 121.117,84.6107 120.5,84.5 Z"/></g>
<g><path style="opacity:1" fill="#cbcbcb" d="M 96.5,89.5 C 100.307,88.2574 100.474,88.9241 97,91.5C 96.5357,90.9056 96.369,90.2389 96.5,89.5 Z"/></g>
<g><path style="opacity:1" fill="#efefef" d="M 76.5,36.5 C 74.2967,36.0651 72.2967,36.0651 70.5,36.5C 67.0071,35.1253 63.3404,33.9586 59.5,33C 57.7888,30.4112 55.9555,27.9112 54,25.5C 54.6997,29.5995 56.0331,33.5995 58,37.5C 59.828,39.0814 61.828,40.4147 64,41.5C 64.3333,44.5 64.6667,47.5 65,50.5C 67.3333,53.5 69.6667,56.5 72,59.5C 72.6263,63.7853 72.1263,67.952 70.5,72C 70.796,73.8882 71.296,75.7216 72,77.5C 73.0407,79.3115 74.2073,79.6448 75.5,78.5C 82.0367,79.5934 82.0367,80.4268 75.5,81C 75.8333,81.3333 76.1667,81.6667 76.5,82C 73.429,83.5683 73.0956,85.4016 75.5,87.5C 74.4557,89.7676 74.289,92.1009 75,94.5C 75.5831,92.9984 76.4164,91.6651 77.5,90.5C 77.8333,90.6667 78.1667,90.8333 78.5,91C 76.3278,93.4927 75.4944,96.3261 76,99.5C 76.4186,98.3279 77.0853,97.3279 78,96.5C 77.8497,98.5056 77.3497,100.506 76.5,102.5C 75.8333,102.167 75.1667,101.833 74.5,101.5C 74.7852,99.712 74.4519,98.0453 73.5,96.5C 70.8908,97.2305 68.2241,97.7305 65.5,98C 64.944,98.3826 64.6107,98.8826 64.5,99.5C 63.1667,100.167 61.8333,100.833 60.5,101.5C 53.2597,104.641 48.093,110.641 45,119.5C 40.6072,124.414 35.1072,127.247 28.5,128C 33.0495,131.146 37.7161,131.313 42.5,128.5C 42.7365,129.247 43.0698,130.08 43.5,131C 47.7853,131.626 51.952,131.126 56,129.5C 60.1671,130.84 63.3338,129.507 65.5,125.5C 65.5639,126.365 65.8973,127.365 66.5,128.5C 67.365,129.583 68.365,129.749 69.5,129C 70.8804,127.075 72.3804,125.241 74,123.5C 74.5074,124.996 74.0074,126.163 72.5,127C 73.0712,128.205 73.7379,129.372 74.5,130.5C 77.1667,128.5 79.5,126.167 81.5,123.5C 81.5523,125.57 81.719,127.903 82,130.5C 83.8022,129.211 84.9688,127.544 85.5,125.5C 86.1667,124.833 86.8333,124.167 87.5,123.5C 88.9265,125.148 89.7599,127.148 90,129.5C 90.4226,128.044 91.2559,127.544 92.5,128C 91.4178,129.33 90.7512,130.83 90.5,132.5C 88.8333,132.5 87.1667,132.5 85.5,132.5C 85.2893,130.576 84.6226,130.243 83.5,131.5C 59.2413,132.49 34.908,132.823 10.5,132.5C 29.8175,118.03 49.3175,103.697 69,89.5C 69.8147,91.6228 70.8147,93.6228 72,95.5C 72.0771,92.2424 72.2438,89.0757 72.5,86C 71.5275,85.6509 70.6942,84.8176 70,83.5C 62.9106,61.6427 55.7439,39.8094 48.5,18C 48.8333,17.5 49.1667,17 49.5,16.5C 58.5421,23.2228 67.5421,29.8894 76.5,36.5 Z"/></g>
<g><path style="opacity:1" fill="#c6c6c6" d="M 87.5,90.5 C 88.9335,91.8333 90.2668,93.3333 91.5,95C 94.1768,95.2494 96.5101,96.2494 98.5,98C 95.3654,97.9643 92.3654,97.131 89.5,95.5C 88.0499,94.1502 87.3832,92.4835 87.5,90.5 Z"/></g>
<g><path style="opacity:1" fill="#f1f1f1" d="M 208.5,132.5 C 184.498,132.667 160.498,132.5 136.5,132C 137.38,130.644 137.714,129.144 137.5,127.5C 136.972,126.153 136.805,124.819 137,123.5C 138.695,126.695 141.195,129.028 144.5,130.5C 145.1,128.424 145.433,126.424 145.5,124.5C 146.833,126.5 148.5,128.167 150.5,129.5C 151.584,128.335 152.417,127.002 153,125.5C 154.684,127.351 156.517,129.018 158.5,130.5C 159.5,129.833 160.5,129.167 161.5,128.5C 165.471,131.205 169.804,132.038 174.5,131C 174.982,129.992 175.148,128.825 175,127.5C 179.633,131.325 184.467,131.491 189.5,128C 184.363,127.098 179.697,125.098 175.5,122C 172.445,117.865 169.945,113.365 168,108.5C 165.193,105.442 161.693,103.775 157.5,103.5C 158.55,102.571 158.55,101.905 157.5,101.5C 156.074,100.659 154.74,99.6588 153.5,98.5C 151.283,97.6314 148.95,97.298 146.5,97.5C 147.551,96.7777 148.218,95.7777 148.5,94.5C 148.491,92.6916 148.991,91.0249 150,89.5C 169.682,103.697 189.182,118.03 208.5,132.5 Z"/></g>
<g><path style="opacity:1" fill="#d1d1d1" d="M 120.5,103.5 C 120.5,104.5 120.5,105.5 120.5,106.5C 125.842,107.162 129.842,105.162 132.5,100.5C 130.955,99.5481 129.288,99.2148 127.5,99.5C 127.785,101.288 127.452,102.955 126.5,104.5C 125.85,102.816 124.85,101.483 123.5,100.5C 123.611,99.8826 123.944,99.3826 124.5,99C 128.558,98.6217 132.058,97.1217 135,94.5C 135.711,92.1009 135.544,89.7676 134.5,87.5C 134.846,86.3044 135.346,86.3044 136,87.5C 138.154,92.3209 137.821,96.9875 135,101.5C 134.667,101.167 134.333,100.833 134,100.5C 132.514,104.498 129.68,106.998 125.5,108C 126.833,108.333 128.167,108.667 129.5,109C 126.833,109.333 124.167,109.667 121.5,110C 125.328,112.599 124.995,112.932 120.5,111C 117.998,108.299 117.998,105.799 120.5,103.5 Z"/></g>
<g><path style="opacity:1" fill="#c1c1c1" d="M 118.5,98.5 C 121.514,96.4048 124.847,94.9048 128.5,94C 129.09,92.4905 129.756,90.9905 130.5,89.5C 131.51,92.0257 130.843,94.1923 128.5,96C 124.81,96.5358 121.644,98.0358 119,100.5C 118.536,99.9056 118.369,99.2389 118.5,98.5 Z"/></g>
<g><path style="opacity:1" fill="#0e0e0e" d="M 74.5,101.5 C 73.3799,106.969 70.2132,108.969 65,107.5C 64.1667,108.333 63.3333,109.167 62.5,110C 59.0498,111.03 55.7165,112.363 52.5,114C 50.7888,115.133 50.2888,116.633 51,118.5C 52,116.833 53.3333,115.5 55,114.5C 55.3333,115.5 55.6667,116.5 56,117.5C 57.093,115.651 58.4263,113.984 60,112.5C 60.3333,113.167 60.6667,113.833 61,114.5C 62,113.167 63,111.833 64,110.5C 64,111.833 64,113.167 64,114.5C 65,113.167 66,111.833 67,110.5C 67.3333,111.5 67.6667,112.5 68,113.5C 69.2515,111.999 70.2515,110.332 71,108.5C 71.3333,109.833 71.6667,111.167 72,112.5C 72.9309,110.541 73.7643,108.541 74.5,106.5C 75.8333,105.167 77.1667,105.167 78.5,106.5C 77.4557,108.768 77.289,111.101 78,113.5C 78.3333,113.167 78.6667,112.833 79,112.5C 80.1613,117.49 82.328,121.823 85.5,125.5C 84.9688,127.544 83.8022,129.211 82,130.5C 81.719,127.903 81.5523,125.57 81.5,123.5C 79.5,126.167 77.1667,128.5 74.5,130.5C 73.7379,129.372 73.0712,128.205 72.5,127C 74.0074,126.163 74.5074,124.996 74,123.5C 72.3804,125.241 70.8804,127.075 69.5,129C 68.365,129.749 67.365,129.583 66.5,128.5C 65.8973,127.365 65.5639,126.365 65.5,125.5C 63.3338,129.507 60.1671,130.84 56,129.5C 51.952,131.126 47.7853,131.626 43.5,131C 43.0698,130.08 42.7365,129.247 42.5,128.5C 37.7161,131.313 33.0495,131.146 28.5,128C 35.1072,127.247 40.6072,124.414 45,119.5C 48.093,110.641 53.2597,104.641 60.5,101.5C 62.8568,101.663 65.1902,101.497 67.5,101C 66.7562,99.9614 65.7562,99.4614 64.5,99.5C 64.6107,98.8826 64.944,98.3826 65.5,98C 68.2241,97.7305 70.8908,97.2305 73.5,96.5C 74.4519,98.0453 74.7852,99.712 74.5,101.5 Z"/></g>
<g><path style="opacity:1" fill="#868686" d="M 118.5,98.5 C 117.577,99.3029 116.577,99.4696 115.5,99C 116.264,96.9307 116.764,94.764 117,92.5C 117.505,94.5183 118.005,96.5183 118.5,98.5 Z"/></g>
<g><path style="opacity:1" fill="#7e7e7e" d="M 100.5,92.5 C 101.695,92.8656 102.361,93.699 102.5,95C 101.945,96.7317 101.945,98.2317 102.5,99.5C 101.914,99.2907 101.414,98.9574 101,98.5C 100.505,96.5273 100.338,94.5273 100.5,92.5 Z"/></g>
<g><path style="opacity:1" fill="#0c0c0c" d="M 146.5,97.5 C 148.95,97.298 151.283,97.6314 153.5,98.5C 153.047,99.4584 152.381,100.292 151.5,101C 153.473,101.495 155.473,101.662 157.5,101.5C 158.55,101.905 158.55,102.571 157.5,103.5C 161.693,103.775 165.193,105.442 168,108.5C 169.945,113.365 172.445,117.865 175.5,122C 179.697,125.098 184.363,127.098 189.5,128C 184.467,131.491 179.633,131.325 175,127.5C 175.148,128.825 174.982,129.992 174.5,131C 169.804,132.038 165.471,131.205 161.5,128.5C 160.5,129.167 159.5,129.833 158.5,130.5C 156.517,129.018 154.684,127.351 153,125.5C 152.417,127.002 151.584,128.335 150.5,129.5C 148.5,128.167 146.833,126.5 145.5,124.5C 145.433,126.424 145.1,128.424 144.5,130.5C 141.195,129.028 138.695,126.695 137,123.5C 136.805,124.819 136.972,126.153 137.5,127.5C 136.833,128.5 136.167,129.5 135.5,130.5C 134.308,128.887 133.308,127.22 132.5,125.5C 133.373,123.114 134.873,121.114 137,119.5C 137.895,117.196 138.729,114.862 139.5,112.5C 140.086,112.709 140.586,113.043 141,113.5C 141.253,110.8 141.253,108.133 141,105.5C 141.626,107.991 142.459,107.991 143.5,105.5C 144.35,107.904 145.35,110.237 146.5,112.5C 147.096,111.284 147.263,109.951 147,108.5C 148,109.833 149,111.167 150,112.5C 150.308,111.692 150.808,111.025 151.5,110.5C 154.152,114.522 154.986,114.188 154,109.5C 155.084,110.665 155.917,111.998 156.5,113.5C 157.391,114.59 158.391,114.59 159.5,113.5C 160.584,114.665 161.417,115.998 162,117.5C 162.249,116.376 162.749,115.376 163.5,114.5C 165.167,115.5 166.5,116.833 167.5,118.5C 168.471,117.038 168.138,115.705 166.5,114.5C 161.545,113.024 157.212,110.524 153.5,107C 149.853,109.095 146.52,107.595 143.5,102.5C 144.189,100.556 144.689,98.556 145,96.5C 145.383,97.056 145.883,97.3893 146.5,97.5 Z"/></g>
<g><path style="opacity:1" fill="#cecece" d="M 82.5,87.5 C 82.7938,89.2755 82.9605,91.2755 83,93.5C 83.4652,94.9308 84.2986,96.0975 85.5,97C 90.9574,97.2593 95.4574,99.4259 99,103.5C 100.616,108.847 98.7828,111.68 93.5,112C 94.3279,111.085 95.3279,110.419 96.5,110C 93.5,109.667 90.5,109.333 87.5,109C 89.1667,108.667 90.8333,108.333 92.5,108C 87.5995,106.098 84.4329,102.598 83,97.5C 82.3333,98.8333 81.6667,98.8333 81,97.5C 80.7864,94.0664 81.2864,90.7331 82.5,87.5 Z"/></g>
<g><path style="opacity:1" fill="#171717" d="M 86.5,99.5 C 88.288,99.2148 89.9547,99.5481 91.5,100.5C 90.7542,101.736 90.4208,103.07 90.5,104.5C 91.5,104.5 92.5,104.5 93.5,104.5C 93.272,102.645 93.9387,101.812 95.5,102C 96.6872,103.019 97.6872,104.186 98.5,105.5C 92.2443,107.706 88.2443,105.706 86.5,99.5 Z"/></g>
<g><path style="opacity:1" fill="#737373" d="M 64.5,99.5 C 65.7562,99.4614 66.7562,99.9614 67.5,101C 65.1902,101.497 62.8568,101.663 60.5,101.5C 61.8333,100.833 63.1667,100.167 64.5,99.5 Z"/></g>
<g><path style="opacity:1" fill="#7b7b7b" d="M 153.5,98.5 C 154.74,99.6588 156.074,100.659 157.5,101.5C 155.473,101.662 153.473,101.495 151.5,101C 152.381,100.292 153.047,99.4584 153.5,98.5 Z"/></g>
<g><path style="opacity:1" fill="#aeaeae" d="M 123.5,100.5 C 122.833,101.833 121.833,102.833 120.5,103.5C 120.5,101.5 121.5,100.5 123.5,100.5 Z"/></g>
<g><path style="opacity:1" fill="#1a1a1a" d="M 120.5,103.5 C 121.833,102.833 122.833,101.833 123.5,100.5C 124.85,101.483 125.85,102.816 126.5,104.5C 127.452,102.955 127.785,101.288 127.5,99.5C 129.288,99.2148 130.955,99.5481 132.5,100.5C 129.842,105.162 125.842,107.162 120.5,106.5C 120.5,105.5 120.5,104.5 120.5,103.5 Z"/></g>
<g><path style="opacity:1" fill="#8f8f8f" d="M 111.5,100.5 C 112.043,100.56 112.376,100.893 112.5,101.5C 109.947,106.701 108.113,106.701 107,101.5C 108.836,103.912 110.336,103.578 111.5,100.5 Z"/></g>
<g><path style="opacity:1" fill="#c8c8c8" d="M 74.5,101.5 C 75.1667,101.833 75.8333,102.167 76.5,102.5C 77.6085,103.29 78.9419,103.79 80.5,104C 79.7599,105.785 79.0933,107.618 78.5,109.5C 80.7662,110.314 83.0995,110.814 85.5,111C 83.8659,111.494 82.1992,111.66 80.5,111.5C 80.7956,116.767 83.1289,120.767 87.5,123.5C 86.8333,124.167 86.1667,124.833 85.5,125.5C 82.328,121.823 80.1613,117.49 79,112.5C 78.6667,112.833 78.3333,113.167 78,113.5C 77.289,111.101 77.4557,108.768 78.5,106.5C 77.1667,105.167 75.8333,105.167 74.5,106.5C 73.7643,108.541 72.9309,110.541 72,112.5C 71.6667,111.167 71.3333,109.833 71,108.5C 70.2515,110.332 69.2515,111.999 68,113.5C 67.6667,112.5 67.3333,111.5 67,110.5C 66,111.833 65,113.167 64,114.5C 64,113.167 64,111.833 64,110.5C 63,111.833 62,113.167 61,114.5C 60.6667,113.833 60.3333,113.167 60,112.5C 58.4263,113.984 57.093,115.651 56,117.5C 55.6667,116.5 55.3333,115.5 55,114.5C 53.3333,115.5 52,116.833 51,118.5C 50.2888,116.633 50.7888,115.133 52.5,114C 55.7165,112.363 59.0498,111.03 62.5,110C 63.3333,109.167 64.1667,108.333 65,107.5C 70.2132,108.969 73.3799,106.969 74.5,101.5 Z"/></g>
<g><path style="opacity:1" fill="#bdbdbd" d="M 75.5,107.5 C 76.0431,107.56 76.3764,107.893 76.5,108.5C 75.9752,110.988 75.1419,113.321 74,115.5C 73.8552,112.739 74.3552,110.073 75.5,107.5 Z"/></g>
<g><path style="opacity:1" fill="#cecece" d="M 144.5,83.5 C 144.833,83.5 145.167,83.5 145.5,83.5C 145.477,85.5996 146.144,87.4329 147.5,89C 146.932,90.8716 146.265,92.7049 145.5,94.5C 146.425,95.5624 147.425,95.5624 148.5,94.5C 148.218,95.7777 147.551,96.7777 146.5,97.5C 145.883,97.3893 145.383,97.056 145,96.5C 144.689,98.556 144.189,100.556 143.5,102.5C 146.52,107.595 149.853,109.095 153.5,107C 157.212,110.524 161.545,113.024 166.5,114.5C 168.138,115.705 168.471,117.038 167.5,118.5C 166.5,116.833 165.167,115.5 163.5,114.5C 162.749,115.376 162.249,116.376 162,117.5C 161.417,115.998 160.584,114.665 159.5,113.5C 158.391,114.59 157.391,114.59 156.5,113.5C 155.917,111.998 155.084,110.665 154,109.5C 154.986,114.188 154.152,114.522 151.5,110.5C 150.808,111.025 150.308,111.692 150,112.5C 149,111.167 148,109.833 147,108.5C 147.263,109.951 147.096,111.284 146.5,112.5C 145.35,110.237 144.35,107.904 143.5,105.5C 142.459,107.991 141.626,107.991 141,105.5C 141.253,108.133 141.253,110.8 141,113.5C 140.586,113.043 140.086,112.709 139.5,112.5C 138.729,114.862 137.895,117.196 137,119.5C 134.873,121.114 133.373,123.114 132.5,125.5C 131.662,125.158 131.328,124.492 131.5,123.5C 133.5,121.329 135.334,118.996 137,116.5C 137.494,114.866 137.66,113.199 137.5,111.5C 136.127,111.657 134.793,111.49 133.5,111C 135.473,110.505 137.473,110.338 139.5,110.5C 139.917,107.921 139.25,105.754 137.5,104C 142.651,104.1 143.651,102.266 140.5,98.5C 140.846,97.3044 141.346,97.3044 142,98.5C 142.617,95.9649 142.117,93.6316 140.5,91.5C 141.355,90.707 142.189,91.0403 143,92.5C 143.667,90.8333 143.667,89.1667 143,87.5C 141.77,86.7248 141.437,85.7248 142,84.5C 143.908,87.3323 144.741,86.999 144.5,83.5 Z"/></g>
<g><path style="opacity:1" fill="#afafaf" d="M 142.5,108.5 C 144.428,110.601 145.095,112.934 144.5,115.5C 143.056,113.392 142.39,111.059 142.5,108.5 Z"/></g>
<g><path style="opacity:1" fill="#747474" d="M 99.5,111.5 C 100.117,111.611 100.617,111.944 101,112.5C 101.818,115.227 101.652,117.894 100.5,120.5C 99.5159,117.572 99.1826,114.572 99.5,111.5 Z"/></g>
<g><path style="opacity:1" fill="#9e9e9e" d="M 99.5,123.5 C 100.376,123.369 101.043,123.702 101.5,124.5C 100.959,126.535 100.292,128.535 99.5,130.5C 98.6365,128.229 98.6365,125.895 99.5,123.5 Z"/></g>
<g><path style="opacity:1" fill="#ababab" d="M 117.5,123.5 C 119.915,125.591 120.415,127.924 119,130.5C 118.023,128.26 117.523,125.927 117.5,123.5 Z"/></g>
<g><path style="opacity:1" fill="#7a7a7a" d="M 83.5,131.5 C 71.5186,132.832 59.1852,133.499 46.5,133.5C 33.7591,133.51 21.7591,133.176 10.5,132.5C 34.908,132.823 59.2413,132.49 83.5,131.5 Z"/></g>
<g><path style="opacity:1" fill="#7c7c7c" d="M 137.5,127.5 C 137.714,129.144 137.38,130.644 136.5,132C 160.498,132.5 184.498,132.667 208.5,132.5C 197.241,133.176 185.241,133.51 172.5,133.5C 159.346,133.463 146.346,132.796 133.5,131.5C 133.842,130.662 134.508,130.328 135.5,130.5C 136.167,129.5 136.833,128.5 137.5,127.5 Z"/></g>
<g><path style="opacity:1" fill="#e2e2e2" d="M 113.5,141.5 C 112.432,140.566 111.099,140.232 109.5,140.5C 109.19,143.713 109.523,146.713 110.5,149.5C 113.005,150.497 115.672,150.497 118.5,149.5C 119.492,149.328 120.158,149.662 120.5,150.5C 113.591,152.935 106.591,153.101 99.5,151C 95.4432,149.053 93.9432,145.886 95,141.5C 96.3654,148.846 100.865,151.846 108.5,150.5C 108.5,147.167 108.5,143.833 108.5,140.5C 105.729,142.086 102.729,142.586 99.5,142C 96.4774,138.744 96.9774,136.244 101,134.5C 101.273,136.101 101.773,137.601 102.5,139C 107.537,139.663 112.537,139.496 117.5,138.5C 117.008,134.71 117.841,134.044 120,136.5C 120.594,141.738 118.427,143.405 113.5,141.5 Z"/></g>
<g><path style="opacity:1" fill="#707070" d="M 113.5,141.5 C 112.5,141.5 111.5,141.5 110.5,141.5C 110.5,144.167 110.5,146.833 110.5,149.5C 109.523,146.713 109.19,143.713 109.5,140.5C 111.099,140.232 112.432,140.566 113.5,141.5 Z"/></g>
<g><path style="opacity:1" fill="#959595" d="M 120.5,150.5 C 120.158,149.662 119.492,149.328 118.5,149.5C 121.599,147.902 123.266,145.236 123.5,141.5C 124.53,145.12 123.53,148.12 120.5,150.5 Z"/></g>
<g><path style="opacity:1" fill="#e4e4e4" d="M 131.5,123.5 C 131.328,124.492 131.662,125.158 132.5,125.5C 133.308,127.22 134.308,128.887 135.5,130.5C 134.508,130.328 133.842,130.662 133.5,131.5C 132.432,132.434 131.099,132.768 129.5,132.5C 130.624,134.731 131.124,137.064 131,139.5C 123.83,161.172 116.663,182.838 109.5,204.5C 105.761,194.283 102.428,183.95 99.5,173.5C 100.167,173.167 100.833,172.833 101.5,172.5C 103.013,174.516 103.847,176.849 104,179.5C 105.751,177.51 106.751,175.177 107,172.5C 109.073,177.58 108.906,182.58 106.5,187.5C 108.234,194.092 109.9,194.092 111.5,187.5C 108.809,182.103 108.975,176.77 112,171.5C 112.241,174.289 112.908,176.956 114,179.5C 116.055,174.39 118.388,169.39 121,164.5C 121.667,162.5 121.667,160.5 121,158.5C 120.623,159.942 119.79,160.942 118.5,161.5C 119.038,159.883 119.371,158.216 119.5,156.5C 121.39,156.703 122.89,156.037 124,154.5C 125.254,147.646 126.754,140.813 128.5,134C 128.259,132.016 127.592,130.183 126.5,128.5C 127.247,128.264 128.08,127.93 129,127.5C 129.2,125.68 130.034,124.347 131.5,123.5 Z"/></g>
<g><path style="opacity:1" fill="#d4d4d4" d="M 85.5,132.5 C 87.1667,132.5 88.8333,132.5 90.5,132.5C 91.929,140.146 93.429,147.812 95,155.5C 96.3946,156.815 97.3946,156.481 98,154.5C 98.521,157.874 99.8543,160.874 102,163.5C 102.781,164.944 102.614,166.277 101.5,167.5C 100.611,164.721 99.4445,162.055 98,159.5C 96.8337,164.49 98.0004,168.823 101.5,172.5C 100.833,172.833 100.167,173.167 99.5,173.5C 95.6036,162.312 91.7702,150.979 88,139.5C 87.3486,137.765 87.5153,136.098 88.5,134.5C 87.3984,133.824 86.3984,133.158 85.5,132.5 Z"/></g>
<g><path style="opacity:1" fill="#aaaaaa" d="M 113.5,156.5 C 114.497,156.47 115.164,156.97 115.5,158C 113.383,161.168 112.049,164.668 111.5,168.5C 111.167,168 110.833,167.5 110.5,167C 111.44,163.395 112.44,159.895 113.5,156.5 Z"/></g>
<g><path style="opacity:1" fill="#ababab" d="M 111.5,156.5 C 112.918,158.988 112.084,160.654 109,161.5C 108.5,161.167 108,160.833 107.5,160.5C 109.52,160.498 110.853,159.165 111.5,156.5 Z"/></g>
<g><path style="opacity:1" fill="#b9b9b9" d="M 118.5,161.5 C 118.313,163.564 117.813,165.564 117,167.5C 114.827,164.843 115.327,162.843 118.5,161.5 Z"/></g>
<g><path style="opacity:1" fill="#a7a7a7" d="M 103.5,156.5 C 105.378,159.245 107.045,162.245 108.5,165.5C 108,166.5 107.5,167.5 107,168.5C 105.816,164.418 104.649,160.418 103.5,156.5 Z"/></g>
<g><path style="opacity:1" fill="#191919" d="M 111.5,179.5 C 114.465,180.582 114.965,182.249 113,184.5C 111.991,182.975 111.491,181.308 111.5,179.5 Z"/></g>
<g><path style="opacity:1" fill="#252525" d="M 105.5,179.5 C 106.788,181.035 106.788,182.701 105.5,184.5C 104.334,182.833 104.334,181.166 105.5,179.5 Z"/></g>
</svg>
