<?xml version="1.0" encoding="UTF-8" standalone="no"?>
<!-- Created with Inkscape (http://www.inkscape.org/) -->

<svg
   width="18.133396mm"
   height="17.147242mm"
   viewBox="0 0 18.133396 17.147242"
   version="1.1"
   id="svg1"
   xml:space="preserve"
   xmlns="http://www.w3.org/2000/svg"
   xmlns:svg="http://www.w3.org/2000/svg"><defs
     id="defs1" /><g
     id="layer1"
     transform="translate(-95.931979,-140.10182)"><path
       style="fill:#d4af37;fill-opacity:1"
       d="m 103.905,153.99242 -1.05267,-3.25663 -3.460175,-0.0221 -3.460177,-0.0221 2.800013,-2.03009 c 1.540009,-1.11655 2.785079,-2.06905 2.766829,-2.11667 -0.15923,-0.41545 -2.088581,-6.4207 -2.069084,-6.44019 0.01403,-0.014 1.254504,0.86686 2.756604,1.95755 1.50209,1.09069 2.76955,1.98307 2.81656,1.98307 0.047,0 1.31329,-0.89225 2.81395,-1.98278 1.50067,-1.09053 2.7385,-1.97276 2.75073,-1.96053 0.0182,0.0182 -1.91028,6.03615 -2.05604,6.41599 -0.0286,0.0747 0.92132,0.81388 2.75505,2.14381 l 2.79878,2.02984 -3.45885,0.0221 -3.45885,0.0221 -1.05267,3.25663 c -0.57896,1.79115 -1.07171,3.25664 -1.095,3.25664 -0.0233,0 -0.51603,-1.46549 -1.095,-3.25664 z m 2.07711,-0.31632 c 0.69159,-2.13707 0.90855,-2.90703 0.82483,-2.92721 -0.15636,-0.0377 -0.14359,-0.18429 0.0161,-0.18429 0.0713,0 0.15222,-0.0588 0.1798,-0.13065 0.0443,-0.11553 0.0662,-0.11615 0.18861,-0.005 0.11665,0.10557 0.61653,0.12598 3.17122,0.12953 1.73693,0.002 3.02085,-0.028 3.0049,-0.0711 -0.0153,-0.0414 -1.13275,-0.87746 -2.48318,-1.85786 -2.57575,-1.86997 -2.46525,-1.81383 -2.62037,-1.33126 -0.0341,0.10604 -0.081,0.13354 -0.13519,0.0793 -0.0542,-0.0542 -0.0496,-0.17878 0.0133,-0.35924 0.0713,-0.20451 0.0716,-0.30095 0.001,-0.37142 -0.0524,-0.0523 -0.0952,-0.14938 -0.0952,-0.21562 0,-0.097 0.0245,-0.10011 0.126,-0.0159 0.10082,0.0837 0.13434,0.0815 0.16773,-0.0108 0.023,-0.0635 0.40547,-1.23931 0.85005,-2.61303 0.44459,-1.37372 0.86235,-2.66033 0.92837,-2.85915 0.0931,-0.28032 0.0958,-0.34685 0.0121,-0.29633 -0.0594,0.0358 -1.20453,0.86134 -2.54479,1.83448 l -2.43682,1.76933 0.22103,0.13411 c 0.12156,0.0738 0.22103,0.18244 0.22103,0.2415 0,0.14804 -0.0528,0.13603 -0.3421,-0.0779 L 105,144.35209 104.73772,144.546 c -0.16842,0.12453 -0.2915,0.16469 -0.34394,0.11225 -0.0524,-0.0525 0.0125,-0.14132 0.18162,-0.24837 l 0.26329,-0.16671 -2.43818,-1.77603 c -1.34099,-0.97682 -2.481736,-1.80214 -2.534978,-1.83404 -0.05324,-0.0319 0.108782,0.57992 0.360048,1.35959 1.29004,4.00288 1.45181,4.46484 1.5552,4.44107 0.0728,-0.0167 0.0906,0.0392 0.0561,0.17651 -0.0278,0.11056 -0.0159,0.32162 0.0264,0.46901 0.0991,0.34543 -0.0431,0.35657 -0.18624,0.0146 l -0.10608,-0.25339 -2.47479,1.79856 c -1.361136,0.9892 -2.475561,1.82749 -2.4765,1.86285 -9.4e-4,0.0354 1.369271,0.0617 3.044912,0.0584 2.766378,-0.005 3.054538,-0.019 3.132668,-0.14897 0.0803,-0.13352 0.0921,-0.13306 0.17592,0.007 0.0494,0.0825 0.12562,0.12784 0.16933,0.10083 0.0437,-0.027 0.0795,0.007 0.0795,0.0758 0,0.0687 -0.0314,0.13764 -0.0698,0.15317 -0.0721,0.0291 1.76448,5.82789 1.84583,5.82789 0.0251,0 0.46796,-1.30493 0.98409,-2.89984 z m -1.16511,1.67598 c -0.0714,-0.15675 -0.0686,-0.27094 0.0116,-0.4645 0.0707,-0.17075 0.0849,-0.39162 0.0422,-0.65998 l -0.0641,-0.40333 -0.074,0.271 c -0.0823,0.30132 -0.24067,0.45342 -0.24067,0.23114 0,-0.0786 -0.11116,-0.338 -0.24703,-0.5765 -0.25206,-0.44247 -0.42315,-1.06917 -0.29156,-1.06798 0.0971,8.8e-4 0.28459,0.41308 0.28459,0.62582 0,0.13094 0.0229,0.14652 0.10074,0.0686 0.0779,-0.0779 0.0587,-0.17562 -0.0847,-0.43063 -0.10198,-0.18144 -0.18599,-0.4009 -0.18671,-0.4877 -10e-4,-0.13179 -0.0145,-0.13698 -0.0811,-0.0315 -0.0519,0.0821 -0.10698,0.0969 -0.15735,0.0423 -0.13009,-0.14093 -0.38261,-1.4087 -0.38362,-1.92598 -5.2e-4,-0.26804 -0.0278,-0.44395 -0.0606,-0.39089 -0.0344,0.0557 -0.0845,-0.0169 -0.11851,-0.17168 -0.0326,-0.1485 -0.15521,-0.33125 -0.27475,-0.40958 -0.1944,-0.12737 -0.44676,-0.56561 -0.44676,-0.77581 0,-0.045 0.10477,-0.0976 0.23283,-0.11704 0.18729,-0.0284 0.17073,-0.0377 -0.0847,-0.048 -0.17463,-0.007 -0.3175,-0.0225 -0.3175,-0.0344 0,-0.012 0.0354,-0.1453 0.0787,-0.29633 0.0705,-0.24591 0.0607,-0.27461 -0.0945,-0.27461 -0.1756,0 -0.17797,-0.0377 -0.0292,-0.46566 0.058,-0.16695 0.057,-0.16702 -0.0751,-0.005 -0.11271,0.13833 -0.13391,0.14255 -0.13391,0.0267 0,-0.0757 0.0383,-0.24493 0.0852,-0.37602 0.0794,-0.22231 0.0766,-0.22729 -0.0423,-0.074 -0.12182,0.15704 -0.12749,0.15317 -0.12749,-0.087 0,-0.13824 0.0649,-0.34554 0.14412,-0.46068 0.13628,-0.19794 0.13617,-0.20292 -0.002,-0.0914 -0.18563,0.14972 -0.2672,0.0736 -0.15192,-0.14185 0.0487,-0.091 0.0645,-0.18951 0.0351,-0.21892 -0.0294,-0.0294 0.0767,-0.0546 0.23581,-0.056 0.23965,-0.002 0.26357,-0.0175 0.13941,-0.0898 -0.0824,-0.048 -0.22333,-0.0639 -0.3131,-0.0354 -0.26311,0.0835 -0.47275,-0.39831 -0.35064,-0.80588 0.1643,-0.54838 0.11861,-0.77518 -0.24472,-1.21487 -0.26557,-0.32138 -0.33867,-0.48022 -0.33867,-0.73598 0,-0.30942 -0.23935,-0.67141 -0.44396,-0.67141 -0.0958,0 -0.50402,-0.92373 -0.46282,-1.04732 0.0174,-0.0523 0.1319,0.0637 0.25439,0.25776 0.22724,0.35999 0.28977,0.3964 0.83992,0.48911 0.39095,0.0659 0.47769,0.19135 0.24498,0.35435 -0.0982,0.0688 -0.17609,0.2086 -0.17314,0.31073 0.005,0.17673 0.009,0.17559 0.0889,-0.0236 0.12449,-0.31195 0.28159,-0.39531 0.49295,-0.26157 0.0983,0.0622 0.0619,0.14286 -0.1905,0.42228 -0.17162,0.18996 -0.30979,0.3929 -0.30705,0.45097 0.003,0.0586 0.0498,0.0356 0.10583,-0.0517 0.26956,-0.42053 0.42464,-0.56232 0.615,-0.56232 0.26458,0 0.26188,0.14296 -0.007,0.35421 -0.11671,0.0918 -0.25484,0.24969 -0.30695,0.35085 -0.0694,0.1348 -0.0164,0.10954 0.19852,-0.0946 0.29468,-0.27985 0.7371,-0.40035 0.80191,-0.21841 0.0187,0.0526 -0.0723,0.12204 -0.20242,0.1542 -0.24189,0.0598 -0.70219,0.43936 -0.70219,0.57901 0,0.0427 0.13467,-0.0406 0.29928,-0.18517 0.2354,-0.20668 0.37545,-0.2622 0.65616,-0.26008 0.19629,0.001 0.43085,0.0586 0.52124,0.127 0.15286,0.11562 0.13936,0.12431 -0.19322,0.12431 -0.19666,0 -0.48017,0.0513 -0.63001,0.11388 -0.27749,0.11599 -0.57401,0.39412 -0.42019,0.39412 0.0466,0 0.12816,-0.0524 0.18131,-0.11645 0.24145,-0.29092 1.13056,-0.36595 1.42645,-0.12038 0.19398,0.16099 0.1112,0.1945 -0.48054,0.1945 -0.60058,0 -0.99659,0.17068 -1.09235,0.47081 -0.0292,0.0914 0.002,0.0856 0.12476,-0.0231 0.43077,-0.38154 1.26503,-0.52241 1.62027,-0.27359 0.27868,0.1952 0.22865,0.28283 -0.11697,0.20488 -0.47608,-0.10738 -1.52644,0.20881 -1.80377,0.54298 -0.0588,0.0708 0.13447,0.009 0.4295,-0.13734 0.43762,-0.21714 0.64301,-0.26712 1.11521,-0.27141 0.50949,-0.005 0.5982,0.0187 0.74083,0.19464 0.18428,0.22731 0.22263,0.48433 0.0562,0.37661 -0.13335,-0.0863 -1.58722,-0.0909 -1.58738,-0.005 -7e-5,0.0349 -0.0995,0.0635 -0.22085,0.0635 -0.16142,0 -0.20763,0.0341 -0.17199,0.127 0.0375,0.0978 -0.0187,0.127 -0.24494,0.127 -0.28304,0 -0.38478,0.10303 -0.20901,0.21166 0.0466,0.0288 0.0847,0.012 0.0847,-0.0373 0,-0.11605 0.30181,-0.11535 0.51957,0.001 0.16674,0.0892 0.16707,0.0867 0.0182,-0.14042 l -0.15154,-0.23127 0.20902,0.0449 c 0.11497,0.0247 0.28523,0.0759 0.37836,0.11393 0.15588,0.0636 0.15924,0.0566 0.0423,-0.0879 -0.12024,-0.14856 -0.11036,-0.15425 0.18549,-0.10666 0.20289,0.0326 0.32402,0.0157 0.34539,-0.0484 0.0245,-0.0734 0.0956,-0.0701 0.27791,0.0129 0.14248,0.0649 0.25625,0.0779 0.27187,0.031 0.0148,-0.0443 0.16672,-0.009 0.33767,0.0779 0.38477,0.19617 0.41939,0.19608 0.80792,-0.002 0.1731,-0.0883 0.33372,-0.12972 0.35693,-0.0922 0.0232,0.0376 0.1623,0.024 0.30908,-0.03 0.18734,-0.069 0.27616,-0.0713 0.29804,-0.007 0.0173,0.0506 0.1488,0.0736 0.2966,0.0519 0.21618,-0.0317 0.25588,-0.014 0.21391,0.0953 -0.0347,0.0904 -0.0141,0.11993 0.0628,0.0904 0.0629,-0.0241 0.13109,-0.10791 0.15154,-0.18618 0.0328,-0.12563 -0.053,-0.14223 -0.73249,-0.14162 -0.42332,3.9e-4 -0.81731,0.0312 -0.87552,0.0685 -0.20668,0.1324 -0.10396,-0.12642 0.15158,-0.38197 0.23979,-0.23978 0.29142,-0.25496 0.75364,-0.22152 0.32482,0.0235 0.67462,0.12431 1.01269,0.29188 0.34619,0.17159 0.47257,0.20748 0.38333,0.10886 -0.3312,-0.36597 -1.38977,-0.63022 -1.87737,-0.46865 -0.14559,0.0482 -0.17912,0.0347 -0.14351,-0.0581 0.066,-0.17196 0.41631,-0.31334 0.77639,-0.31334 0.32167,0 1.03875,0.29745 1.03875,0.43089 0,0.0424 0.0369,0.0771 0.082,0.0771 0.0451,0 0.0595,-0.0588 0.0319,-0.13061 -0.0895,-0.2332 -0.66843,-0.46206 -1.16886,-0.46206 -0.53399,0 -0.6087,-0.11011 -0.17241,-0.25409 0.3408,-0.11248 0.72668,-0.0523 1.12154,0.17477 0.15134,0.0871 0.27517,0.12224 0.27517,0.0782 0,-0.14799 -0.66712,-0.42218 -1.0338,-0.42489 -0.33775,-0.003 -0.35169,-0.0114 -0.19886,-0.127 0.0904,-0.0684 0.33229,-0.12431 0.53754,-0.12431 0.30829,0 0.41588,0.0457 0.61881,0.26295 0.26172,0.28018 0.33177,0.23636 0.11558,-0.0723 -0.0715,-0.10213 -0.28273,-0.23143 -0.46932,-0.28733 -0.29435,-0.0882 -0.32321,-0.11769 -0.21804,-0.22285 0.15161,-0.15161 0.39175,-0.0814 0.74855,0.21881 l 0.26889,0.22626 -0.14992,-0.2288 c -0.0824,-0.12584 -0.22481,-0.25257 -0.31634,-0.28162 -0.19421,-0.0616 -0.16611,-0.23744 0.0445,-0.27828 0.17771,-0.0345 0.36849,0.11565 0.57382,0.45149 0.11869,0.19413 0.15537,0.21644 0.15561,0.0947 1.8e-4,-0.0876 -0.13386,-0.28588 -0.29785,-0.44055 -0.28736,-0.27102 -0.2919,-0.28455 -0.12525,-0.37374 0.21687,-0.11606 0.31268,-0.0576 0.46125,0.2816 0.0647,0.14778 0.1208,0.21856 0.1246,0.15729 0.009,-0.14009 -0.15794,-0.46191 -0.28023,-0.54124 -0.15334,-0.0995 0.0511,-0.23381 0.46254,-0.30396 0.31585,-0.0539 0.42113,-0.12631 0.66817,-0.45987 0.16128,-0.21776 0.30555,-0.38362 0.3206,-0.36857 0.0944,0.0944 -0.37807,0.98439 -0.66153,1.24609 -0.28406,0.26225 -0.33331,0.35917 -0.33331,0.65592 0,0.28224 -0.059,0.41351 -0.31139,0.69288 -0.32889,0.36403 -0.37059,0.5721 -0.24047,1.19958 0.0423,0.20397 0.028,0.40671 -0.0402,0.5715 -0.11685,0.28211 -0.29775,0.35546 -0.21225,0.0861 0.0476,-0.15011 0.0152,-0.16933 -0.28563,-0.16933 -0.18666,0 -0.36068,0.0345 -0.38672,0.0766 -0.0269,0.0435 0.0988,0.057 0.29133,0.0312 0.40972,-0.0549 0.43718,0.0269 0.0635,0.18931 l -0.27516,0.1196 0.28016,0.003 c 0.15409,0.002 0.25824,0.0388 0.23145,0.0821 -0.0268,0.0433 -0.01,0.10274 0.0373,0.13199 0.0473,0.0292 0.0861,0.11275 0.0861,0.18555 0,0.10807 -0.0233,0.11302 -0.127,0.027 -0.1599,-0.1327 -0.16002,-0.0827 -5.3e-4,0.22316 0.0696,0.13338 0.12587,0.31871 0.12512,0.41184 -0.001,0.15595 -0.0152,0.1526 -0.17669,-0.0423 -0.14131,-0.17059 -0.16348,-0.17881 -0.11423,-0.0423 0.0336,0.0931 0.0814,0.26458 0.10619,0.381 0.0418,0.19608 0.0338,0.20232 -0.10863,0.0847 -0.14767,-0.12199 -0.14821,-0.11631 -0.0136,0.14396 0.18294,0.35387 0.18041,0.36382 -0.0927,0.36534 -0.12806,7.1e-4 -0.19089,0.0293 -0.13962,0.0635 0.0513,0.0342 0.11266,0.16698 0.13643,0.29504 0.0412,0.22179 0.0267,0.23343 -0.30489,0.24551 -0.25358,0.009 -0.28487,0.0223 -0.11525,0.048 0.34891,0.0529 0.30795,0.36965 -0.10584,0.81855 -0.18626,0.20208 -0.33866,0.4339 -0.33866,0.51517 0,0.0993 -0.0435,0.13108 -0.13254,0.0969 -0.10667,-0.0409 -0.11916,-0.0138 -0.064,0.13911 0.0924,0.25625 0.0801,0.82268 -0.0194,0.89422 -0.0442,0.0318 -0.0873,0.13394 -0.0957,0.22708 -0.075,0.82512 -0.21282,1.18726 -0.42152,1.10717 -0.0676,-0.0259 -0.11356,0.0152 -0.11375,0.10198 -1.7e-4,0.08 -0.0725,0.26386 -0.16068,0.40851 -0.09,0.14753 -0.13192,0.30904 -0.0956,0.36788 0.0431,0.0697 0.0845,0.0264 0.12355,-0.1291 0.0323,-0.12869 0.11353,-0.31224 0.18053,-0.40789 0.11763,-0.16795 0.12179,-0.16528 0.12144,0.0778 -2.1e-4,0.13842 -0.14908,0.54551 -0.33084,0.90464 -0.32958,0.65121 -0.41935,0.68502 -0.43961,0.16561 -0.007,-0.17715 -0.0351,-0.14028 -0.1304,0.17085 -0.10737,0.3504 -0.10621,0.43355 0.01,0.7116 0.11841,0.2834 0.11856,0.33467 10e-4,0.51341 -0.16287,0.24858 -0.19211,0.2477 -0.3092,-0.009 z m 0.097,-2.10431 c 7.1e-4,-0.0377 -0.0368,-0.045 -0.0834,-0.0162 -0.0466,0.0288 -0.0847,-0.0218 -0.0847,-0.11232 0,-0.0906 -0.0569,-0.27379 -0.12648,-0.40717 -0.11295,-0.21657 -0.12653,-0.22266 -0.127,-0.057 -2.8e-4,0.10202 0.0333,0.20638 0.0746,0.23189 0.0413,0.0255 0.10146,0.18706 0.13371,0.35898 0.0434,0.23121 0.0786,0.28104 0.1353,0.19143 0.0422,-0.0666 0.0773,-0.15196 0.078,-0.18964 z m 0.34265,0.005 c 0.001,-0.10478 0.0586,-0.26446 0.127,-0.35485 0.14308,-0.18917 0.1633,-0.38598 0.0396,-0.38598 -0.0466,0 -0.0847,0.0739 -0.0847,0.16433 0,0.0904 -0.0381,0.18789 -0.0847,0.21667 -0.0466,0.0288 -0.0847,0.12852 -0.0847,0.22166 0,0.0931 -0.0377,0.14605 -0.0837,0.1176 -0.048,-0.0297 -0.0622,0.004 -0.0333,0.0797 0.075,0.19543 0.20125,0.15891 0.20433,-0.0591 z m -0.078,-0.508 c 0.0982,-0.18713 0.0969,-0.18777 -0.074,-0.0361 -0.16836,0.14935 -0.17689,0.14935 -0.26375,0 -0.0494,-0.0849 -0.0909,-0.11435 -0.0923,-0.0654 -0.003,0.10227 0.1695,0.2921 0.26538,0.2921 0.0356,0 0.10974,-0.0857 0.16472,-0.1905 z m 0.57571,-0.70533 c 0.23977,-0.0959 0.36023,-0.20771 0.42543,-0.39473 0.05,-0.1435 0.0761,-0.27572 0.058,-0.29383 -0.0181,-0.0181 -0.0726,0.0807 -0.12097,0.21965 -0.0667,0.1912 -0.16676,0.27443 -0.41196,0.34252 -0.54688,0.15186 -0.59174,0.13092 -0.65134,-0.30395 -0.0298,-0.21716 -0.0378,-0.41116 -0.0178,-0.4311 0.02,-0.0199 0.16997,0.0121 0.33337,0.0712 0.24167,0.0874 0.32183,0.0869 0.42967,-0.003 0.15791,-0.13105 0.17189,-0.35478 0.031,-0.49569 -0.14415,-0.14415 -0.24106,-0.12585 -0.17974,0.0339 0.0752,0.19604 -0.12181,0.28502 -0.6344,0.2865 -0.51634,0.001 -0.79372,-0.11219 -0.72305,-0.29633 0.0265,-0.0691 0.007,-0.12571 -0.0425,-0.12571 -0.13231,0 -0.27388,0.30438 -0.21406,0.46026 0.0661,0.17223 0.43985,0.26711 0.56382,0.14314 0.21021,-0.21021 0.31554,-0.10074 0.31554,0.32793 0,0.40541 -0.01,0.42333 -0.23284,0.4232 -0.39604,-2.2e-4 -0.81891,-0.26492 -0.87898,-0.5502 -0.0498,-0.23635 -0.0542,-0.23894 -0.0635,-0.0374 -0.006,0.11916 0.0429,0.28898 0.10751,0.37739 0.26359,0.36047 1.28969,0.49274 1.90686,0.2458 z m -1.54677,-1.877 c 0.003,-0.0815 0.0336,-0.22437 0.0674,-0.3175 0.0606,-0.16692 0.0596,-0.167 -0.0724,-0.005 -0.13968,0.17143 -0.18252,0.47065 -0.0674,0.47065 0.0366,0 0.0692,-0.0667 0.0724,-0.14816 z m 1.6242,-0.1967 c -0.0492,-0.14105 -0.10431,-0.24154 -0.12253,-0.22332 -0.0633,0.0633 0.0737,0.56519 0.14263,0.5226 0.0381,-0.0236 0.0291,-0.15823 -0.0201,-0.29928 z m -1.57688,-0.8828 c 0,-0.1692 -0.0229,-0.33049 -0.0508,-0.35843 -0.0279,-0.0279 -0.0508,0.13335 -0.0508,0.35843 0,0.22507 0.0229,0.38636 0.0508,0.35842 0.0279,-0.0279 0.0508,-0.18923 0.0508,-0.35842 z m 1.48215,-0.14817 c -0.0202,-0.10478 -0.0367,-0.019 -0.0367,0.1905 0,0.20955 0.0165,0.29527 0.0367,0.1905 0.0202,-0.10478 0.0202,-0.27623 0,-0.381 z m -1.73859,-0.28829 c 0.37529,-0.33963 -0.0177,-0.96993 -0.66975,-1.07419 -0.43455,-0.0695 -0.66419,-0.35317 -0.57576,-0.71124 0.0367,-0.1485 0.0284,-0.20264 -0.0227,-0.14878 -0.12528,0.13195 -0.19188,0.66325 -0.10082,0.80433 0.0451,0.0699 0.0832,0.0889 0.0847,0.0423 0.001,-0.0466 0.0884,0.0677 0.19307,0.254 0.10498,0.18673 0.31748,0.40241 0.47371,0.48076 l 0.28332,0.1421 -0.2846,0.0349 c -0.22411,0.0274 -0.19692,0.0377 0.12794,0.0484 0.35635,0.0117 0.39818,0.0309 0.30713,0.14055 -0.14211,0.17123 -0.009,0.16176 0.18383,-0.0131 z m -0.5225,-0.42794 c -0.20053,-0.0737 -0.42333,-0.29411 -0.42333,-0.41873 0,-0.0653 0.0911,-0.11387 0.21328,-0.11387 0.18522,0 0.20629,0.0278 0.16015,0.21166 -0.0394,0.1571 -0.0195,0.21167 0.0772,0.21167 0.0717,0 0.14246,-0.0857 0.15734,-0.1905 l 0.0271,-0.1905 0.1905,0.1905 c 0.10477,0.10477 0.1905,0.2286 0.1905,0.27517 0,0.0889 -0.37548,0.10446 -0.59267,0.0246 z m 2.67199,0.43837 c -0.15199,-0.11496 -0.13289,-0.12506 0.254,-0.13433 0.3234,-0.008 0.36473,-0.0222 0.18208,-0.0635 l -0.23626,-0.0535 0.26612,-0.11677 c 0.1526,-0.067 0.31186,-0.22558 0.37337,-0.37185 0.0747,-0.17775 0.12372,-0.21935 0.16158,-0.13723 0.0299,0.0648 0.0392,0.035 0.0206,-0.0663 -0.0238,-0.13035 6.3e-4,-0.171 0.0837,-0.13911 0.0881,0.0338 0.11742,-0.04 0.11742,-0.29574 0,-0.36574 -0.0654,-0.60865 -0.16373,-0.60865 -0.0335,0 -0.044,0.1158 -0.0232,0.25734 0.0446,0.30401 -0.14115,0.54896 -0.4755,0.62696 -0.46546,0.10858 -0.70374,0.24696 -0.82326,0.47808 -0.0677,0.13083 -0.12301,0.27787 -0.12301,0.32674 0,0.12492 0.3172,0.42809 0.4445,0.42485 0.0596,-0.002 0.0341,-0.057 -0.0585,-0.127 z m -0.22426,-0.53344 c 0.0457,-0.0853 0.13905,-0.20163 0.20753,-0.25846 0.1017,-0.0844 0.1346,-0.0715 0.17966,0.0705 0.0768,0.24181 0.21308,0.21758 0.21308,-0.0379 0,-0.16933 0.0423,-0.21166 0.21167,-0.21166 0.28104,0 0.26696,0.10775 -0.0488,0.37347 -0.32458,0.27311 -0.90088,0.32149 -0.76311,0.0641 z m -0.75569,-0.21507 c -7.1e-4,-0.0525 -0.0359,-0.0408 -0.0782,0.0261 -0.0668,0.10563 -0.0962,0.10563 -0.22397,0 -0.13626,-0.11263 -0.13854,-0.10789 -0.0311,0.0646 0.0866,0.13909 0.14361,0.16324 0.22527,0.0955 0.0601,-0.0499 0.10874,-0.13369 0.10803,-0.1862 z m 1.17675,-0.44486 c 0.28658,-0.0573 0.56322,-0.37008 0.4936,-0.55806 -0.0236,-0.0638 -0.078,-0.0136 -0.13197,0.12192 -0.0572,0.14379 -0.18047,0.25232 -0.32759,0.28856 -0.29631,0.073 -0.61683,0.27712 -0.61683,0.39284 0,0.0484 0.0692,0.0254 0.15372,-0.0511 0.0846,-0.0765 0.27763,-0.1639 0.42907,-0.19419 z m -2.349,0.0503 c -0.10993,-0.0916 -0.27242,-0.16652 -0.36108,-0.16652 -0.091,0 -0.23425,-0.11982 -0.32897,-0.27517 -0.13934,-0.22853 -0.16783,-0.2451 -0.16809,-0.0978 -4.1e-4,0.22822 0.22346,0.42336 0.57021,0.49705 0.15081,0.032 0.29594,0.0934 0.3225,0.13642 0.0266,0.043 0.0746,0.0769 0.10681,0.0753 0.0322,-0.002 -0.0314,-0.0778 -0.14138,-0.16933 z m 0.32906,-0.16709 -0.0695,-0.29576 -0.009,0.26105 c -0.005,0.14358 0.0167,0.28646 0.0478,0.3175 0.0953,0.0953 0.10283,0.0254 0.0304,-0.28279 z m 1.3354,-0.0526 c -0.0279,-0.22382 -0.0338,-0.21792 -0.0743,0.0743 -0.0252,0.18201 -0.0123,0.28574 0.0303,0.24315 0.0409,-0.0409 0.0606,-0.1837 0.044,-0.31743 z m -1.58997,-0.41442 c 0.0903,-0.10881 0.0835,-0.11992 -0.0436,-0.0712 -0.12898,0.0495 -0.14494,0.0194 -0.11131,-0.20972 0.0446,-0.30374 0.0237,-0.3321 -0.0878,-0.11934 -0.0442,0.0844 -0.0467,0.23017 -0.006,0.33866 0.0851,0.22544 0.10769,0.23103 0.24834,0.0616 z m 2.07875,-0.0766 c 0.0284,-0.11304 0.0118,-0.27497 -0.0368,-0.35983 -0.0748,-0.13055 -0.0857,-0.1152 -0.0711,0.0997 0.0142,0.20942 -0.0117,0.24896 -0.14752,0.2253 -0.14175,-0.0247 -0.14917,-0.01 -0.0531,0.10584 0.15674,0.18885 0.2487,0.16769 0.30861,-0.071 z m -1.9542,-0.77268 0.42417,0.0382 -0.45036,-0.0932 c -0.37711,-0.0781 -0.49762,-0.0707 -0.74084,0.0453 -0.15975,0.0762 -0.29046,0.17731 -0.29046,0.22472 0,0.0474 0.14249,0.01 0.31665,-0.0835 0.23681,-0.12692 0.42363,-0.16008 0.74084,-0.13149 z m 2.50897,0.12765 c -0.27983,-0.23307 -0.52405,-0.27813 -0.95361,-0.17594 l -0.36919,0.0878 0.42334,-0.0411 c 0.32653,-0.0317 0.48141,-0.003 0.67733,0.12448 0.3317,0.21623 0.47983,0.21938 0.22213,0.005 z m 0.75154,-0.67344 c 0,-0.0466 -0.0857,-0.082 -0.1905,-0.0787 -0.18178,0.006 -0.18275,0.009 -0.0212,0.0787 0.0931,0.04 0.17886,0.0754 0.1905,0.0787 0.0116,0.003 0.0212,-0.0322 0.0212,-0.0787 z m -2.83593,9.28648 c -0.0376,-0.0887 -0.0252,-0.19389 0.0293,-0.24836 0.13042,-0.13042 0.1654,-0.0604 0.0952,0.19055 -0.0524,0.18721 -0.0667,0.19389 -0.12445,0.0578 z m 0.58883,0.006 c -0.0829,-0.21597 -0.0112,-0.3616 0.10751,-0.21853 0.0608,0.0733 0.0694,0.16407 0.0226,0.23974 -0.0635,0.10275 -0.0838,0.0994 -0.13014,-0.0212 z m -5.806265,-4.44542 c -0.0055,-0.0349 -0.004,-0.0968 0.0035,-0.13739 0.0074,-0.0406 -0.04876,-0.05 -0.124839,-0.0208 -0.34456,0.13222 -0.5583,0.14607 -0.836588,0.0542 -0.414793,-0.13689 -0.429117,-0.21281 -0.04107,-0.21761 0.484684,-0.006 0.990108,-0.39395 1.320843,-1.01383 0.314369,-0.5892 0.626559,-0.8871 0.929659,-0.8871 0.15722,0 0.20274,-0.0346 0.16727,-0.127 -0.049,-0.12782 0.0706,-0.16935 0.40163,-0.13943 0.13104,0.0118 0.141,-0.008 0.056,-0.1101 -0.0852,-0.10266 -0.0686,-0.13207 0.0947,-0.16769 0.55977,-0.12214 0.61992,-0.10515 0.64773,0.18297 0.0195,0.20231 -0.0292,0.32937 -0.18665,0.48684 -0.22037,0.22036 -0.62251,0.30519 -0.50845,0.10724 0.0335,-0.0582 -0.032,-0.0214 -0.14558,0.0818 -0.11361,0.1032 -0.37364,0.24658 -0.57785,0.31863 -0.44324,0.15639 -0.59756,0.27296 -0.59756,0.45139 0,0.10313 0.0384,0.0914 0.17263,-0.0527 0.20762,-0.22285 0.34763,-0.24119 0.28347,-0.0371 -0.0256,0.0815 0.0381,0.0404 0.14164,-0.0914 0.13211,-0.16815 0.20726,-0.20882 0.25203,-0.13637 0.0437,0.0707 0.10796,0.0262 0.20407,-0.14141 l 0.14028,-0.24462 -0.0515,0.254 c -0.0512,0.25304 -0.0509,0.25328 0.0851,0.0635 0.16216,-0.22626 0.31026,-0.25192 0.24436,-0.0423 -0.0398,0.12651 -0.027,0.12414 0.0873,-0.0162 0.0737,-0.0904 0.13391,-0.19516 0.13391,-0.23283 0,-0.0377 0.0345,-0.0685 0.0767,-0.0685 0.0422,0 0.0615,0.0857 0.0429,0.1905 -0.0186,0.10477 0.0272,0.0503 0.10182,-0.12105 0.0878,-0.20163 0.1885,-0.30756 0.28542,-0.30026 0.12436,0.009 0.14214,0.0679 0.10489,0.34567 -0.0293,0.21809 -0.0145,0.31564 0.0424,0.28047 0.0496,-0.0307 0.10971,0.0584 0.13934,0.20656 0.0286,0.14327 0.16122,0.36242 0.2946,0.48701 0.25885,0.24181 0.25251,0.45484 -0.0203,0.68124 -0.12123,0.10061 -0.13647,0.0791 -0.13647,-0.1922 v -0.30546 l -0.29531,0.31626 c -0.24571,0.26314 -0.30937,0.29493 -0.37907,0.18926 -0.0461,-0.0699 -0.0632,-0.19315 -0.038,-0.27399 0.028,-0.0901 -0.0598,-0.0414 -0.22676,0.12551 -0.25523,0.25522 -0.27634,0.26185 -0.3334,0.10465 -0.0335,-0.0923 -0.0444,-0.19642 -0.0242,-0.23134 0.0202,-0.0349 -0.004,-0.0635 -0.0529,-0.0635 -0.0493,0 -0.0897,0.0372 -0.0897,0.0827 0,0.15472 -0.42326,0.37456 -0.52509,0.27273 -0.0676,-0.0676 -0.17336,-0.0595 -0.38699,0.0298 -0.310242,0.12962 -0.858973,0.16678 -0.875943,0.0593 z m 2.751235,-1.79917 0.0513,-0.29633 -0.11982,0.29633 c -0.0659,0.16299 -0.12156,0.35349 -0.12368,0.42334 -0.007,0.22272 0.13403,-0.0874 0.19219,-0.42334 z m 7.54579,1.7457 c -0.17223,-0.0769 -0.30447,-0.0876 -0.41078,-0.033 -0.12145,0.0623 -0.20968,0.0298 -0.39156,-0.14447 l -0.23478,-0.22493 -0.0576,0.22945 -0.0576,0.22945 -0.27743,-0.2689 -0.27743,-0.26889 0.0377,0.25679 c 0.0506,0.34442 -0.10208,0.33221 -0.44929,-0.0359 l -0.27609,-0.29274 0.0121,0.24651 c 0.0153,0.31252 -0.12083,0.34382 -0.27967,0.0643 -0.1149,-0.20222 -0.10579,-0.23443 0.14816,-0.52367 0.15435,-0.17579 0.27061,-0.40176 0.27061,-0.52598 0,-0.16656 0.0325,-0.20531 0.13807,-0.16479 0.11848,0.0455 0.13134,0.002 0.0906,-0.30844 l -0.0475,-0.36143 0.13741,0.42334 c 0.15518,0.47808 0.17221,0.51106 0.23262,0.45065 0.0238,-0.0238 -0.0143,-0.20637 -0.0847,-0.40576 -0.151,-0.42798 -0.15077,-0.42589 -0.0471,-0.42589 0.0445,0 0.10585,0.13335 0.13642,0.29633 0.0306,0.16298 0.092,0.29633 0.13655,0.29633 0.0445,0 0.0569,-0.0857 0.0276,-0.1905 -0.0529,-0.18898 -0.052,-0.18888 0.11003,0.0126 0.1226,0.15245 0.17432,0.17358 0.20725,0.0847 0.0343,-0.0926 0.0746,-0.0816 0.18499,0.0509 0.13845,0.16615 0.14014,0.16536 0.09,-0.0423 -0.0492,-0.20369 -0.0461,-0.20547 0.0803,-0.0473 0.0723,0.0904 0.13139,0.19516 0.13139,0.23283 0,0.0377 0.0403,0.0685 0.0897,0.0685 0.0493,0 0.0661,-0.0381 0.0373,-0.0847 -0.0288,-0.0466 -0.0132,-0.0847 0.0346,-0.0847 0.0478,0 0.1438,0.10478 0.21327,0.23284 0.0901,0.166 0.12729,0.1903 0.12971,0.0847 0.004,-0.1953 0.0783,-0.18689 0.31543,0.0359 0.10777,0.10125 0.19596,0.14083 0.19596,0.088 0,-0.15464 -0.34101,-0.42845 -0.60614,-0.48668 -0.13452,-0.0296 -0.35798,-0.14913 -0.49656,-0.26574 -0.13858,-0.11661 -0.25197,-0.17053 -0.25197,-0.11983 0,0.16606 -0.24641,0.0968 -0.50035,-0.14064 -0.19937,-0.1864 -0.2405,-0.2838 -0.20627,-0.48843 0.0403,-0.24067 0.0622,-0.25374 0.37522,-0.22389 0.36525,0.0348 0.50236,0.15638 0.32108,0.28463 -0.0851,0.0602 -0.063,0.0707 0.082,0.0387 0.2647,-0.0585 0.43635,0.0153 0.3796,0.16321 -0.0332,0.0864 0.0222,0.11999 0.19817,0.11999 0.37027,0 0.60642,0.21677 0.89554,0.82205 0.29547,0.61855 0.65697,0.91686 1.31703,1.0868 l 0.39767,0.10238 -0.35667,0.0975 c -0.36231,0.099 -0.73676,0.0573 -0.94203,-0.10498 -0.0876,-0.0693 -0.10685,-0.0522 -0.0847,0.0752 0.0234,0.13461 -0.0256,0.16833 -0.26764,0.18419 -0.16299,0.0107 -0.41064,-0.0317 -0.55034,-0.0941 z"
       id="path1" /></g></svg>
