<?xml version="1.0" encoding="UTF-8" standalone="no"?>
<!-- Created with Inkscape (http://www.inkscape.org/) -->

<svg
   width="70.580254mm"
   height="61.159721mm"
   viewBox="0 0 70.580254 61.159721"
   version="1.1"
   id="svg1"
   xml:space="preserve"
   xmlns="http://www.w3.org/2000/svg"
   xmlns:svg="http://www.w3.org/2000/svg"><defs
     id="defs1" /><g
     id="layer1"
     transform="translate(-69.5319,-117.76735)"><path
       style="fill:#d4af37;fill-opacity:1"
       d="m 70.337711,177.53802 c 0.443197,-0.76398 8.400447,-14.56368 17.682777,-30.66598 9.28233,-16.10231 16.957452,-29.19919 17.055832,-29.10417 0.24379,0.23546 34.81454,60.15571 35.02892,60.71438 0.15939,0.41536 -2.17333,0.44483 -35.20132,0.44483 H 69.531897 Z m 27.928828,-2.01242 c -2.590965,-1.02261 -4.557672,-2.39641 -6.672404,-4.66084 -3.749069,-4.01447 -5.489246,-9.22002 -4.832661,-14.45639 0.15028,-1.19851 0.237935,-2.2144 0.19479,-2.25754 -0.04315,-0.0432 -2.80287,4.65066 -6.13272,10.43067 -3.329851,5.78002 -6.224517,10.77702 -6.432592,11.10444 l -0.378319,0.59531 13.061159,-0.009 13.061158,-0.009 z m 37.454871,0.58042 c 0,-0.24949 -12.76782,-22.33473 -12.85922,-22.24333 -0.0416,0.0416 0.0474,0.60817 0.19775,1.25907 0.15035,0.6509 0.22305,2.49314 0.16156,4.09386 -0.0906,2.35891 -0.26232,3.34249 -0.90612,5.19053 -1.83033,5.25406 -6.06151,9.51379 -11.39544,11.47232 -0.87138,0.31995 0.61168,0.36782 11.90303,0.38414 7.09414,0.0103 12.89844,-0.0602 12.89844,-0.15659 z m -32.01458,-17.67753 v -15.47151 l -0.8599,0.14373 c -6.167944,1.03099 -11.228107,5.54045 -12.766173,11.37681 -0.528393,2.00505 -0.528393,5.88366 0,7.88871 1.0037,3.80865 3.937827,7.61838 7.327251,9.51386 1.46844,0.8212 4.845382,1.95589 5.968092,2.00534 0.26098,0.0115 0.33073,-3.24835 0.33073,-15.45694 z m 6.377,14.5553 c 2.2709,-0.76837 4.32992,-2.15403 6.24031,-4.19954 4.36089,-4.66933 5.29698,-11.3948 2.4182,-17.37383 -1.14669,-2.38161 -4.44452,-5.62987 -6.93947,-6.83519 -1.78275,-0.86125 -5.06297,-1.73851 -5.49716,-1.47017 -0.24452,0.15112 -0.30543,30.35436 -0.0617,30.59808 0.2435,0.2435 1.92531,-0.0716 3.83983,-0.71935 z M 95.354014,142.81756 c 1.817582,-1.15494 4.411095,-2.15338 6.566876,-2.52811 l 1.78594,-0.31044 v -7.43409 c 0,-4.08875 -0.10021,-7.32098 -0.22269,-7.18273 -0.31197,0.35212 -11.41898,19.67154 -11.41898,19.86205 0,0.0856 0.438187,-0.22916 0.97375,-0.69939 0.535562,-0.47023 1.577359,-1.23851 2.315104,-1.70729 z m 22.560456,2.309 c -1.81323,-3.239 -11.42913,-19.85115 -11.59372,-20.02896 -0.13428,-0.14505 -0.23267,2.94247 -0.23267,7.30084 v 7.5522 l 2.3151,0.44148 c 2.74587,0.52364 6.48356,2.26479 8.26823,3.85166 1.20611,1.07242 1.44367,1.24113 1.24306,0.88278 z"
       id="path1" /></g></svg>
