<?xml version="1.0" encoding="UTF-8"?>
<!DOCTYPE svg PUBLIC "-//W3C//DTD SVG 1.1//EN" "http://www.w3.org/Graphics/SVG/1.1/DTD/svg11.dtd">
<svg xmlns="http://www.w3.org/2000/svg" version="1.1" width="276px" height="240px" style="shape-rendering:geometricPrecision; text-rendering:geometricPrecision; image-rendering:optimizeQuality; fill-rule:evenodd; clip-rule:evenodd" xmlns:xlink="http://www.w3.org/1999/xlink">
<g><path style="opacity:0.969" fill="#030303" d="M 136.5,1.5 C 181.978,78.4426 226.978,155.776 271.5,233.5C 181.835,234.667 92.1685,234.833 2.5,234C 47.5692,156.69 92.2359,79.1901 136.5,1.5 Z"/></g>
<g><path style="opacity:1" fill="#2f2f2f" d="M 132.5,87.5 C 132.83,68.6592 132.497,49.9925 131.5,31.5C 131.783,30.7109 132.283,30.0442 133,29.5C 133.829,49.0044 133.662,68.3377 132.5,87.5 Z"/></g>
<g><path style="opacity:1" fill="#7f7f7f" d="M 143.5,32.5 C 142.503,50.6591 142.17,68.9924 142.5,87.5C 141.338,68.6711 141.171,49.6711 142,30.5C 142.717,31.0442 143.217,31.7109 143.5,32.5 Z"/></g>
<g><path style="opacity:1" fill="#fbfbfb" d="M 131.5,31.5 C 132.497,49.9925 132.83,68.6592 132.5,87.5C 115.516,88.8784 101.016,95.5451 89,107.5C 88.8333,107.167 88.6667,106.833 88.5,106.5C 103.098,81.6356 117.431,56.6356 131.5,31.5 Z"/></g>
<g><path style="opacity:1" fill="#fafafa" d="M 143.5,32.5 C 158.24,57.3297 172.407,82.3297 186,107.5C 173.851,95.8439 159.351,89.1772 142.5,87.5C 142.17,68.9924 142.503,50.6591 143.5,32.5 Z"/></g>
<g><path style="opacity:1" fill="#fdfdfd" d="M 128.5,99.5 C 129.833,99.5 131.167,99.5 132.5,99.5C 132.5,138.167 132.5,176.833 132.5,215.5C 98.8039,209.939 81.1372,190.106 79.5,156C 81.4659,127.366 96.1326,108.699 123.5,100C 125.134,99.5065 126.801,99.3398 128.5,99.5 Z"/></g>
<g><path style="opacity:1" fill="#313131" d="M 128.5,99.5 C 129.919,98.5489 131.585,98.2155 133.5,98.5C 133.832,137.67 133.499,176.67 132.5,215.5C 132.5,176.833 132.5,138.167 132.5,99.5C 131.167,99.5 129.833,99.5 128.5,99.5 Z"/></g>
<g><path style="opacity:1" fill="#7d7d7d" d="M 146.5,99.5 C 145.167,99.5 143.833,99.5 142.5,99.5C 142.5,137.833 142.5,176.167 142.5,214.5C 143.833,214.5 145.167,214.5 146.5,214.5C 145.081,215.451 143.415,215.784 141.5,215.5C 141.5,176.5 141.5,137.5 141.5,98.5C 143.415,98.2155 145.081,98.5489 146.5,99.5 Z"/></g>
<g><path style="opacity:1" fill="#fdfdfd" d="M 146.5,99.5 C 170.286,104.449 186.119,118.449 194,141.5C 199.838,170.98 190.005,193.48 164.5,209C 158.697,211.546 152.697,213.379 146.5,214.5C 145.167,214.5 143.833,214.5 142.5,214.5C 142.5,176.167 142.5,137.833 142.5,99.5C 143.833,99.5 145.167,99.5 146.5,99.5 Z"/></g>
<g><path style="opacity:1" fill="#fcfcfc" d="M 113.5,222.5 C 98.5037,223.167 83.337,223.5 68,223.5C 52.485,223.499 37.3183,222.833 22.5,221.5C 37.7724,194.388 53.2724,167.388 69,140.5C 63.6958,178.899 78.5291,206.232 113.5,222.5 Z"/></g>
<g><path style="opacity:1" fill="#fcfcfc" d="M 252.5,222.5 C 221.833,223.833 191.167,223.833 160.5,222.5C 197.131,206.246 211.964,178.246 205,138.5C 221.11,166.392 236.944,194.392 252.5,222.5 Z"/></g>
<g><path style="opacity:1" fill="#dadada" d="M 22.5,221.5 C 37.3183,222.833 52.485,223.499 68,223.5C 83.337,223.5 98.5037,223.167 113.5,222.5C 114.922,222.709 116.255,223.209 117.5,224C 85.1667,224.667 52.8333,224.667 20.5,224C 21.0659,223.005 21.7326,222.172 22.5,221.5 Z"/></g>
<g><path style="opacity:1" fill="#dadada" d="M 160.5,222.5 C 191.167,223.833 221.833,223.833 252.5,222.5C 253.043,222.56 253.376,222.893 253.5,223.5C 220.838,224.667 188.172,224.833 155.5,224C 157.247,223.648 158.914,223.148 160.5,222.5 Z"/></g>
</svg>
