<?xml version="1.0" encoding="UTF-8" standalone="no"?>
<!-- Created with Inkscape (http://www.inkscape.org/) -->

<svg
   width="11.83366mm"
   height="11.941144mm"
   viewBox="0 0 11.83366 11.941144"
   version="1.1"
   id="svg1"
   xml:space="preserve"
   xmlns="http://www.w3.org/2000/svg"
   xmlns:svg="http://www.w3.org/2000/svg"><defs
     id="defs1" /><g
     id="layer1"
     transform="translate(-99.079192,-142.51528)"><path
       style="fill:#9c7c38;fill-opacity:1"
       d="m 103.20083,154.45419 c -0.0218,-0.002 -0.0952,-0.008 -0.16316,-0.0131 -0.85833,-0.0679 -1.70571,-0.40744 -2.37684,-0.95251 -0.13236,-0.1075 -0.4,-0.37494 -0.54225,-0.54184 -0.285065,-0.33448 -0.518682,-0.68562 -0.692389,-1.0407 -0.09937,-0.20312 -0.152896,-0.33721 -0.219787,-0.5506 -0.09985,-0.31853 -0.127088,-0.49618 -0.127212,-0.82964 -1.71e-4,-0.45923 0.08134,-0.90116 0.267426,-1.44994 0.708522,-2.08945 2.736372,-4.39709 4.939002,-5.62046 1.26082,-0.70028 2.46313,-0.97495 3.3117,-0.75656 0.23796,0.0612 0.28465,0.0744 0.37358,0.10545 0.49169,0.17156 1.0234,0.50003 1.50133,0.92745 0.29667,0.26532 0.51138,0.50754 0.70243,0.79243 0.39641,0.59112 0.63107,1.22693 0.71795,1.94535 0.0168,0.13888 0.0197,0.20863 0.0202,0.48 6.1e-4,0.33263 -0.005,0.41415 -0.0442,0.69102 -0.16486,1.15383 -0.78237,2.37576 -1.79781,3.55756 -0.28981,0.33729 -0.70627,0.77011 -1.03699,1.07772 -1.40239,1.30439 -2.79428,2.02403 -4.18042,2.16137 -0.12925,0.0128 -0.56688,0.0242 -0.65264,0.017 z m 0.48507,-0.56843 c 0.89846,-0.0625 1.78993,-0.39897 2.72962,-1.03024 1.09176,-0.73343 2.30894,-1.97192 3.00934,-3.06202 0.55078,-0.85722 0.84878,-1.65272 0.92994,-2.48239 0.016,-0.16385 0.0137,-0.5589 -0.004,-0.7276 -0.0761,-0.7132 -0.34007,-1.36855 -0.77777,-1.93115 -0.10674,-0.1372 -0.2067,-0.24648 -0.34907,-0.38162 -0.11362,-0.10785 -0.33547,-0.29948 -0.34069,-0.29428 -10e-4,0.001 0.008,0.0514 0.0193,0.1117 0.15133,0.77957 -0.0681,1.80161 -0.62202,2.89663 -0.54276,1.07303 -1.36594,2.14579 -2.35855,3.07364 -1.35286,1.2646 -2.86282,2.12305 -4.1716,2.37168 -0.45227,0.0859 -0.89951,0.0927 -1.23858,0.0189 -0.0415,-0.009 -0.0766,-0.0154 -0.078,-0.0141 -0.006,0.006 0.14012,0.17782 0.28898,0.33865 0.31931,0.34499 0.79469,0.66294 1.27457,0.85247 0.3704,0.1463 0.78585,0.23826 1.18621,0.26259 0.11375,0.007 0.38439,0.005 0.50271,-0.003 z m -0.23073,-0.26557 c -0.0819,-0.0228 -0.14345,-0.11319 -0.14312,-0.21035 3.7e-4,-0.1071 0.0544,-0.17153 0.16989,-0.20263 0.11831,-0.0319 0.19073,-0.2102 0.14373,-0.35394 -0.0579,-0.17698 -0.0438,-0.36611 0.0396,-0.53222 0.0398,-0.0793 0.0775,-0.13047 0.13904,-0.18866 0.0582,-0.055 0.0947,-0.072 0.15504,-0.072 0.0565,0 0.101,0.0185 0.14437,0.06 0.0462,0.0442 0.0669,0.0917 0.0671,0.15426 2.3e-4,0.0607 -0.017,0.0989 -0.0728,0.16106 -0.0654,0.0729 -0.0811,0.11115 -0.0812,0.19798 -9e-5,0.0624 0.004,0.0821 0.0216,0.11743 0.0315,0.0617 0.0714,0.10446 0.12508,0.1342 0.0431,0.0239 0.0546,0.0262 0.13104,0.0262 0.0764,0 0.088,-0.002 0.13105,-0.0262 0.0538,-0.0298 0.10204,-0.081 0.12487,-0.13257 0.009,-0.0194 0.0302,-0.10621 0.0481,-0.19292 0.0832,-0.40406 0.20997,-0.7364 0.37517,-0.98346 0.0857,-0.12818 0.25734,-0.31802 0.31101,-0.344 0.0784,-0.038 0.17321,-0.0185 0.23751,0.0487 0.0423,0.0443 0.06,0.088 0.06,0.14884 0,0.0586 -0.018,0.0978 -0.073,0.15914 -0.0655,0.073 -0.0811,0.11114 -0.0811,0.19798 -1e-5,0.0578 0.004,0.0843 0.0187,0.11573 0.0257,0.0559 0.077,0.11034 0.13043,0.13847 0.0394,0.0207 0.0546,0.0235 0.12844,0.0234 0.094,-1e-4 0.13545,-0.0147 0.20107,-0.0709 0.059,-0.0505 0.07,-0.0845 0.0854,-0.26408 0.0666,-0.77785 0.16053,-1.11537 0.36163,-1.29917 0.0676,-0.0618 0.13467,-0.0779 0.21963,-0.0526 0.0477,0.0142 0.11277,0.0792 0.12694,0.12695 0.0259,0.0873 0.007,0.16202 -0.0595,0.23269 -0.0205,0.0218 -0.0477,0.0595 -0.0605,0.0838 -0.0199,0.0376 -0.0233,0.0551 -0.0233,0.11906 -4e-5,0.0871 0.0171,0.13396 0.071,0.19359 0.052,0.0575 0.10839,0.0822 0.19778,0.0866 0.0691,0.003 0.0787,0.002 0.12348,-0.0216 0.0682,-0.0356 0.11754,-0.10936 0.13252,-0.19818 0.0171,-0.10147 0.007,-0.25199 -0.0298,-0.43078 -0.0913,-0.44694 -0.0388,-0.7999 0.16409,-1.10472 0.0606,-0.091 0.22667,-0.26123 0.2844,-0.2915 0.0541,-0.0284 0.12863,-0.0258 0.18746,0.007 0.12697,0.0698 0.15437,0.21741 0.0609,0.32811 -0.0619,0.0733 -0.0981,0.2054 -0.0922,0.33667 0.005,0.10181 0.0256,0.15818 0.0786,0.20988 l 0.0352,0.0343 h 0.0944 c 0.0719,0 0.10483,-0.004 0.13823,-0.0169 0.0609,-0.0235 0.12052,-0.0821 0.15124,-0.14859 0.0242,-0.0525 0.0255,-0.0617 0.0282,-0.20085 0.002,-0.1204 -0.003,-0.20739 -0.0327,-0.4983 -0.0613,-0.60951 -0.0658,-0.78478 -0.0267,-1.04381 0.0198,-0.13148 0.0439,-0.19719 0.11114,-0.30303 0.049,-0.0772 0.10208,-0.13425 0.15229,-0.16377 0.0334,-0.0196 0.0508,-0.0236 0.10262,-0.0236 0.0541,0 0.0682,0.004 0.1056,0.0267 0.062,0.0383 0.0952,0.0955 0.0992,0.17069 0.004,0.0728 -0.0102,0.1083 -0.0685,0.17274 -0.0512,0.0565 -0.0646,0.0809 -0.0796,0.14459 -0.0276,0.11759 0.035,0.25487 0.14153,0.30993 0.0766,0.0396 0.1867,0.0396 0.2682,8e-5 0.1359,-0.066 0.16876,-0.17146 0.11003,-0.35317 -0.0225,-0.0695 -0.0269,-0.0949 -0.0221,-0.12684 0.0201,-0.13369 0.1832,-0.21612 0.30808,-0.15566 0.0514,0.0249 0.0796,0.0612 0.1115,0.14361 0.12272,0.31687 0.0307,0.64168 -0.23251,0.8204 -0.12222,0.083 -0.25194,0.12119 -0.41194,0.12129 -0.0962,6e-5 -0.1292,-0.005 -0.25763,-0.0418 -0.014,-0.004 -0.0151,6.1e-4 -0.011,0.0429 0.075,0.76014 0.0774,0.8218 0.0391,0.98613 -0.0202,0.0867 -0.0792,0.21623 -0.12916,0.28391 -0.13188,0.17852 -0.34939,0.28062 -0.59851,0.28095 -0.14098,1.8e-4 -0.26625,-0.0398 -0.3753,-0.11988 -0.0236,-0.0173 -0.0428,-0.0295 -0.0428,-0.0271 0,0.002 0.0117,0.0633 0.0261,0.13525 0.0735,0.36875 0.0462,0.62122 -0.10329,0.95385 -0.0767,0.17076 -0.22908,0.38482 -0.3216,0.45184 -0.1086,0.0787 -0.25611,0.0389 -0.319,-0.0859 -0.0176,-0.0349 -0.0184,-0.13062 -0.001,-0.16131 l 0.0122,-0.022 -0.0764,-0.0202 c -0.042,-0.0111 -0.10743,-0.0356 -0.14535,-0.0544 -0.0443,-0.022 -0.0701,-0.0306 -0.0723,-0.024 -0.002,0.006 -0.0118,0.0916 -0.0221,0.191 -0.0242,0.23409 -0.0371,0.29318 -0.084,0.38699 -0.10754,0.21483 -0.33359,0.35594 -0.59095,0.36889 -0.21558,0.0109 -0.4015,-0.0643 -0.54849,-0.2217 l -0.0607,-0.065 -0.032,0.0984 c -0.0427,0.13122 -0.0709,0.23951 -0.10285,0.39479 -0.0303,0.1475 -0.0512,0.2091 -0.0981,0.29007 -0.17339,0.29939 -0.54386,0.43145 -0.85533,0.30489 -0.0646,-0.0263 -0.0551,-0.0313 -0.10462,0.0559 -0.0967,0.17053 -0.34861,0.31154 -0.48754,0.27295 z m -2.05791,-1.70456 c 0.17382,-0.0226 0.22933,-0.0346 0.22908,-0.0494 -1.1e-4,-0.007 -0.004,-0.0786 -0.008,-0.15863 -0.008,-0.157 0.003,-0.3843 0.0262,-0.5688 0.12894,-1.0046 0.63594,-2.12421 1.41782,-3.13096 0.72284,-0.93072 1.65071,-1.6945 2.70447,-2.22618 0.85736,-0.43258 1.66564,-0.64713 2.38985,-0.63435 l 0.17177,0.003 0.006,-0.0353 c 0.0298,-0.16977 0.0382,-0.28461 0.0379,-0.52035 -3.3e-4,-0.26326 -0.007,-0.32784 -0.0524,-0.50698 -0.1025,-0.40435 -0.34573,-0.67417 -0.72712,-0.80659 -0.70432,-0.24454 -1.83984,0.003 -3.01677,0.65729 -1.44958,0.80604 -2.86407,2.12827 -3.80614,3.55788 -0.61245,0.9294 -0.994904,1.84888 -1.102371,2.65024 -0.02248,0.16763 -0.0271,0.50422 -0.009,0.65344 0.07147,0.5883 0.363201,0.94392 0.885761,1.07974 0.074,0.0192 0.2023,0.041 0.30552,0.0517 0.0765,0.008 0.44607,-0.003 0.54681,-0.0158 z M 100.761,150.2211 c -0.21137,-0.0464 -0.40459,-0.20533 -0.49322,-0.40575 -0.0431,-0.0975 -0.0592,-0.18999 -0.0543,-0.31261 0.007,-0.16287 0.0522,-0.28753 0.15017,-0.41004 0.0957,-0.11967 0.18225,-0.15359 0.27953,-0.10961 0.0854,0.0386 0.13589,0.1121 0.13594,0.19775 3e-5,0.0614 -0.0145,0.0938 -0.0713,0.15875 -0.12259,0.14027 -0.0893,0.35364 0.0689,0.44125 0.0436,0.0241 0.0542,0.0262 0.13546,0.0262 0.0751,0 0.0938,-0.003 0.12607,-0.0202 0.0863,-0.0461 0.13439,-0.11221 0.15292,-0.21027 0.0116,-0.0613 0.006,-0.21149 -0.0189,-0.50152 -0.0305,-0.35599 -0.0401,-0.66486 -0.0283,-0.90179 0.0117,-0.2336 0.0305,-0.41205 0.0518,-0.49168 0.0206,-0.0772 0.0823,-0.20347 0.13018,-0.26667 0.0716,-0.0945 0.19836,-0.18871 0.27023,-0.20085 0.10459,-0.0177 0.20167,0.0494 0.23441,0.1619 0.027,0.0927 -0.004,0.16448 -0.10073,0.23504 -0.0975,0.071 -0.14071,0.15731 -0.13205,0.26397 0.008,0.10214 0.0626,0.18209 0.15425,0.22722 0.0509,0.0251 0.0677,0.0289 0.12536,0.0288 0.0802,-2.3e-4 0.1471,-0.0272 0.20085,-0.0809 0.0715,-0.0715 0.0797,-0.10745 0.10367,-0.45221 0.0392,-0.56407 0.11125,-0.91418 0.25769,-1.25237 0.0721,-0.16648 0.17345,-0.33687 0.24755,-0.41615 0.11333,-0.12126 0.32858,-0.22169 0.44231,-0.20638 0.16352,0.022 0.23575,0.23516 0.12002,0.35416 -0.0209,0.0215 -0.0527,0.0425 -0.0774,0.051 -0.023,0.008 -0.0607,0.0212 -0.0838,0.0293 -0.0557,0.0197 -0.12723,0.0883 -0.15294,0.14659 -0.0151,0.0343 -0.0203,0.0629 -0.0206,0.11314 -3.6e-4,0.0599 0.003,0.0739 0.0303,0.12755 0.0849,0.16633 0.29855,0.20486 0.43849,0.079 0.0235,-0.0212 0.0513,-0.0574 0.062,-0.0811 0.0107,-0.0236 0.0416,-0.13212 0.0687,-0.24126 0.0611,-0.24609 0.18295,-0.67045 0.23814,-0.82903 0.0498,-0.14314 0.107,-0.27465 0.15382,-0.35366 0.019,-0.032 0.0429,-0.0796 0.0532,-0.10583 0.0427,-0.10865 0.1472,-0.23635 0.25271,-0.30895 0.0984,-0.0677 0.25421,-0.11984 0.32835,-0.10986 0.12696,0.0171 0.20566,0.15036 0.16632,0.28165 -0.0142,0.0476 -0.0717,0.10555 -0.12151,0.1227 -0.0218,0.008 -0.0593,0.0206 -0.0833,0.0291 -0.0504,0.0179 -0.11171,0.0709 -0.14156,0.12243 -0.0307,0.0529 -0.0438,0.13242 -0.0316,0.19104 0.0447,0.21518 0.29893,0.30105 0.46319,0.15647 0.0514,-0.0452 0.064,-0.0702 0.11539,-0.22819 0.0984,-0.30269 0.24927,-0.70077 0.34574,-0.91256 0.0688,-0.15098 0.16511,-0.30299 0.25295,-0.39911 0.1422,-0.15559 0.40712,-0.2541 0.53,-0.19709 0.10477,0.0486 0.14881,0.17916 0.0976,0.2892 -0.0279,0.0598 -0.0747,0.0936 -0.15468,0.11172 -0.0786,0.0178 -0.11898,0.0389 -0.16517,0.0865 -0.0545,0.0562 -0.0767,0.11191 -0.077,0.19367 -2.8e-4,0.0598 0.003,0.074 0.0304,0.12755 0.12303,0.24121 0.47077,0.18667 0.52795,-0.0828 0.0134,-0.0631 0.0293,-0.0913 0.0718,-0.12772 0.0888,-0.076 0.22358,-0.0628 0.30279,0.0298 0.04,0.0467 0.054,0.10682 0.0411,0.17562 -0.0423,0.22502 -0.1934,0.42076 -0.39745,0.51487 -0.0899,0.0415 -0.1559,0.0578 -0.25983,0.0642 -0.19026,0.0117 -0.38182,-0.0607 -0.52186,-0.19716 -0.037,-0.036 -0.0469,-0.0419 -0.0516,-0.0303 -0.0247,0.0609 -0.16646,0.46513 -0.18914,0.53911 -0.0691,0.22536 -0.1923,0.37571 -0.38309,0.46733 -0.10882,0.0523 -0.16791,0.0652 -0.30055,0.0657 -0.0941,3.5e-4 -0.12719,-0.003 -0.18471,-0.0198 -0.091,-0.0262 -0.1905,-0.0785 -0.26217,-0.1376 l -0.0573,-0.0472 -0.0365,0.11141 c -0.0502,0.1533 -0.0803,0.2609 -0.147,0.52687 -0.0647,0.25781 -0.10034,0.34428 -0.18332,0.44451 -0.0887,0.10717 -0.22836,0.19616 -0.36815,0.23462 -0.079,0.0217 -0.26404,0.0219 -0.34396,2.6e-4 -0.0823,-0.0223 -0.20739,-0.0857 -0.26979,-0.13665 l -0.0537,-0.0439 -0.0196,0.10565 c -0.0256,0.13762 -0.0481,0.32447 -0.0759,0.62929 -0.0267,0.29311 -0.0337,0.34069 -0.0627,0.42774 -0.034,0.10196 -0.0846,0.18009 -0.17446,0.26926 -0.0603,0.0599 -0.0978,0.0887 -0.15083,0.11604 -0.18822,0.0971 -0.37274,0.11371 -0.55444,0.05 -0.0346,-0.0121 -0.0694,-0.0241 -0.0772,-0.0266 -0.0169,-0.005 -0.0168,-0.002 0.0123,0.37181 0.014,0.17959 0.0192,0.3191 0.019,0.51152 -1.9e-4,0.24513 -0.002,0.2697 -0.0196,0.33407 -0.071,0.25452 -0.26311,0.44334 -0.51702,0.50805 -0.0823,0.021 -0.23382,0.0229 -0.31955,0.004 z m 1.59092,1.46364 c 0.61238,-0.21736 1.25031,-0.55165 1.88079,-0.98556 0.1326,-0.0913 0.15701,-0.10877 0.32632,-0.23397 0.75331,-0.5571 1.52082,-1.2995 2.12731,-2.05772 0.59222,-0.74039 1.04658,-1.50031 1.34267,-2.24563 0.0809,-0.20357 0.15916,-0.43242 0.1508,-0.44081 -0.0113,-0.0113 -0.18289,-0.0126 -0.31327,-0.002 -1.07255,0.0846 -2.35573,0.69625 -3.41308,1.62683 -0.14225,0.1252 -0.42218,0.40099 -0.55877,0.55054 -0.91147,0.99786 -1.53655,2.22096 -1.6865,3.29999 -0.008,0.0569 -0.0162,0.19718 -0.019,0.3197 -0.004,0.19765 -0.004,0.21828 0.009,0.21828 0.008,0 0.0769,-0.0222 0.15328,-0.0493 z"
       id="path1" /></g><g
     id="g2"
     transform="translate(-99.079192,-142.57041)"><path
       style="fill:#d4af37;fill-opacity:1"
       d="m 103.20083,154.39906 c -0.0218,-0.002 -0.0952,-0.008 -0.16316,-0.0131 -0.85833,-0.0679 -1.70571,-0.40744 -2.37684,-0.95251 -0.13236,-0.1075 -0.4,-0.37494 -0.54225,-0.54184 -0.285065,-0.33448 -0.518682,-0.68562 -0.692389,-1.0407 -0.09937,-0.20312 -0.152896,-0.33721 -0.219787,-0.5506 -0.09985,-0.31853 -0.127088,-0.49618 -0.127212,-0.82964 -1.71e-4,-0.45923 0.08134,-0.90116 0.267426,-1.44994 0.708522,-2.08945 2.736372,-4.39709 4.939002,-5.62046 1.26082,-0.70028 2.46313,-0.97495 3.3117,-0.75656 0.23796,0.0612 0.28465,0.0744 0.37358,0.10545 0.49169,0.17156 1.0234,0.50003 1.50133,0.92745 0.29667,0.26532 0.51138,0.50754 0.70243,0.79243 0.39641,0.59112 0.63107,1.22693 0.71795,1.94535 0.0168,0.13888 0.0197,0.20863 0.0202,0.48 6.1e-4,0.33263 -0.005,0.41415 -0.0442,0.69102 -0.16486,1.15383 -0.78237,2.37576 -1.79781,3.55756 -0.28981,0.33729 -0.70627,0.77011 -1.03699,1.07772 -1.40239,1.30439 -2.79428,2.02403 -4.18042,2.16137 -0.12925,0.0128 -0.56688,0.0242 -0.65264,0.017 z m 0.48507,-0.56843 c 0.89846,-0.0625 1.78993,-0.39897 2.72962,-1.03024 1.09176,-0.73343 2.30894,-1.97192 3.00934,-3.06202 0.55078,-0.85722 0.84878,-1.65272 0.92994,-2.48239 0.016,-0.16385 0.0137,-0.5589 -0.004,-0.7276 -0.0761,-0.7132 -0.34007,-1.36855 -0.77777,-1.93115 -0.10674,-0.1372 -0.2067,-0.24648 -0.34907,-0.38162 -0.11362,-0.10785 -0.33547,-0.29948 -0.34069,-0.29428 -10e-4,10e-4 0.008,0.0514 0.0193,0.1117 0.15133,0.77957 -0.0681,1.80161 -0.62202,2.89663 -0.54276,1.07303 -1.36594,2.14579 -2.35855,3.07364 -1.35286,1.2646 -2.86282,2.12305 -4.1716,2.37168 -0.45227,0.0859 -0.89951,0.0927 -1.23858,0.0189 -0.0415,-0.009 -0.0766,-0.0154 -0.078,-0.0141 -0.006,0.006 0.14012,0.17782 0.28898,0.33865 0.31931,0.34499 0.79469,0.66294 1.27457,0.85247 0.3704,0.1463 0.78585,0.23826 1.18621,0.26259 0.11375,0.007 0.38439,0.005 0.50271,-0.003 z m -0.23073,-0.26557 c -0.0819,-0.0228 -0.14345,-0.11319 -0.14312,-0.21035 3.7e-4,-0.1071 0.0544,-0.17153 0.16989,-0.20263 0.11831,-0.0319 0.19073,-0.2102 0.14373,-0.35394 -0.0579,-0.17698 -0.0438,-0.36611 0.0396,-0.53222 0.0398,-0.0793 0.0775,-0.13047 0.13904,-0.18866 0.0582,-0.055 0.0947,-0.072 0.15504,-0.072 0.0565,0 0.101,0.0185 0.14437,0.06 0.0462,0.0442 0.0669,0.0917 0.0671,0.15426 2.3e-4,0.0607 -0.017,0.0989 -0.0728,0.16106 -0.0654,0.0729 -0.0811,0.11115 -0.0812,0.19798 -9e-5,0.0624 0.004,0.0821 0.0216,0.11743 0.0315,0.0617 0.0714,0.10446 0.12508,0.1342 0.0431,0.0239 0.0546,0.0262 0.13104,0.0262 0.0764,0 0.088,-0.002 0.13105,-0.0262 0.0538,-0.0298 0.10204,-0.081 0.12487,-0.13257 0.009,-0.0194 0.0302,-0.10621 0.0481,-0.19292 0.0832,-0.40406 0.20997,-0.7364 0.37517,-0.98346 0.0857,-0.12818 0.25734,-0.31802 0.31101,-0.344 0.0784,-0.038 0.17321,-0.0185 0.23751,0.0487 0.0423,0.0443 0.06,0.088 0.06,0.14884 0,0.0586 -0.018,0.0978 -0.073,0.15914 -0.0655,0.073 -0.0811,0.11114 -0.0811,0.19798 -1e-5,0.0578 0.004,0.0843 0.0187,0.11573 0.0257,0.0559 0.077,0.11034 0.13043,0.13847 0.0394,0.0207 0.0546,0.0235 0.12844,0.0234 0.094,-1e-4 0.13545,-0.0147 0.20107,-0.0709 0.059,-0.0505 0.07,-0.0845 0.0854,-0.26408 0.0666,-0.77785 0.16053,-1.11537 0.36163,-1.29917 0.0676,-0.0618 0.13467,-0.0779 0.21963,-0.0526 0.0477,0.0142 0.11277,0.0792 0.12694,0.12695 0.0259,0.0873 0.007,0.16202 -0.0595,0.23269 -0.0205,0.0218 -0.0477,0.0595 -0.0605,0.0838 -0.0199,0.0376 -0.0233,0.0551 -0.0233,0.11906 -4e-5,0.0871 0.0171,0.13396 0.071,0.19359 0.052,0.0575 0.10839,0.0822 0.19778,0.0866 0.0691,0.003 0.0787,0.002 0.12348,-0.0216 0.0682,-0.0356 0.11754,-0.10936 0.13252,-0.19818 0.0171,-0.10147 0.007,-0.25199 -0.0298,-0.43078 -0.0913,-0.44694 -0.0388,-0.7999 0.16409,-1.10472 0.0606,-0.091 0.22667,-0.26123 0.2844,-0.2915 0.0541,-0.0284 0.12863,-0.0258 0.18746,0.007 0.12697,0.0698 0.15437,0.21741 0.0609,0.32811 -0.0619,0.0733 -0.0981,0.2054 -0.0922,0.33667 0.005,0.10181 0.0256,0.15818 0.0786,0.20988 l 0.0352,0.0343 h 0.0944 c 0.0719,0 0.10483,-0.004 0.13823,-0.0169 0.0609,-0.0235 0.12052,-0.0821 0.15124,-0.14859 0.0242,-0.0525 0.0255,-0.0617 0.0282,-0.20085 0.002,-0.1204 -0.003,-0.20739 -0.0327,-0.4983 -0.0613,-0.60951 -0.0658,-0.78478 -0.0267,-1.04381 0.0198,-0.13148 0.0439,-0.19719 0.11114,-0.30303 0.049,-0.0772 0.10208,-0.13425 0.15229,-0.16377 0.0334,-0.0196 0.0508,-0.0236 0.10262,-0.0236 0.0541,0 0.0682,0.004 0.1056,0.0267 0.062,0.0383 0.0952,0.0955 0.0992,0.17069 0.004,0.0728 -0.0102,0.1083 -0.0685,0.17274 -0.0512,0.0565 -0.0646,0.0809 -0.0796,0.14459 -0.0276,0.11759 0.035,0.25487 0.14153,0.30993 0.0766,0.0396 0.1867,0.0396 0.2682,8e-5 0.1359,-0.066 0.16876,-0.17146 0.11003,-0.35317 -0.0225,-0.0695 -0.0269,-0.0949 -0.0221,-0.12684 0.0201,-0.13369 0.1832,-0.21612 0.30808,-0.15566 0.0514,0.0249 0.0796,0.0612 0.1115,0.14361 0.12272,0.31687 0.0307,0.64168 -0.23251,0.8204 -0.12222,0.083 -0.25194,0.12119 -0.41194,0.12129 -0.0962,6e-5 -0.1292,-0.005 -0.25763,-0.0418 -0.014,-0.004 -0.0151,6.1e-4 -0.011,0.0429 0.075,0.76014 0.0774,0.8218 0.0391,0.98613 -0.0202,0.0867 -0.0792,0.21623 -0.12916,0.28391 -0.13188,0.17852 -0.34939,0.28062 -0.59851,0.28095 -0.14098,1.8e-4 -0.26625,-0.0398 -0.3753,-0.11988 -0.0236,-0.0173 -0.0428,-0.0295 -0.0428,-0.0271 0,0.002 0.0117,0.0633 0.0261,0.13525 0.0735,0.36875 0.0462,0.62122 -0.10329,0.95385 -0.0767,0.17076 -0.22908,0.38482 -0.3216,0.45184 -0.1086,0.0787 -0.25611,0.0389 -0.319,-0.0859 -0.0176,-0.0349 -0.0184,-0.13062 -0.001,-0.16131 l 0.0122,-0.022 -0.0764,-0.0202 c -0.042,-0.0111 -0.10743,-0.0356 -0.14535,-0.0544 -0.0443,-0.022 -0.0701,-0.0306 -0.0723,-0.024 -0.002,0.006 -0.0118,0.0916 -0.0221,0.191 -0.0242,0.23409 -0.0371,0.29318 -0.084,0.38699 -0.10754,0.21483 -0.33359,0.35594 -0.59095,0.36889 -0.21558,0.0109 -0.4015,-0.0643 -0.54849,-0.2217 l -0.0607,-0.065 -0.032,0.0984 c -0.0427,0.13122 -0.0709,0.23951 -0.10285,0.39479 -0.0303,0.1475 -0.0512,0.2091 -0.0981,0.29007 -0.17339,0.29939 -0.54386,0.43145 -0.85533,0.30489 -0.0646,-0.0263 -0.0551,-0.0313 -0.10462,0.0559 -0.0967,0.17053 -0.34861,0.31154 -0.48754,0.27295 z m -2.05791,-1.70456 c 0.17382,-0.0226 0.22933,-0.0346 0.22908,-0.0494 -1.1e-4,-0.007 -0.004,-0.0786 -0.008,-0.15863 -0.008,-0.157 0.003,-0.3843 0.0262,-0.5688 0.12894,-1.0046 0.63594,-2.12421 1.41782,-3.13096 0.72284,-0.93072 1.65071,-1.6945 2.70447,-2.22618 0.85736,-0.43258 1.66564,-0.64713 2.38985,-0.63435 l 0.17177,0.003 0.006,-0.0353 c 0.0298,-0.16977 0.0382,-0.28461 0.0379,-0.52035 -3.3e-4,-0.26326 -0.007,-0.32784 -0.0524,-0.50698 -0.1025,-0.40435 -0.34573,-0.67417 -0.72712,-0.80659 -0.70432,-0.24454 -1.83984,0.003 -3.01677,0.65729 -1.44958,0.80604 -2.86407,2.12827 -3.80614,3.55788 -0.61245,0.9294 -0.994904,1.84888 -1.102371,2.65024 -0.02248,0.16763 -0.0271,0.50422 -0.009,0.65344 0.07147,0.5883 0.363201,0.94392 0.885761,1.07974 0.074,0.0192 0.2023,0.041 0.30552,0.0517 0.0765,0.008 0.44607,-0.003 0.54681,-0.0158 z m -0.63626,-1.69453 c -0.21137,-0.0464 -0.40459,-0.20533 -0.49322,-0.40575 -0.0431,-0.0975 -0.0592,-0.18999 -0.0543,-0.31261 0.007,-0.16287 0.0522,-0.28753 0.15017,-0.41004 0.0957,-0.11967 0.18225,-0.15359 0.27953,-0.10961 0.0854,0.0386 0.13589,0.1121 0.13594,0.19775 3e-5,0.0614 -0.0145,0.0938 -0.0713,0.15875 -0.12259,0.14027 -0.0893,0.35364 0.0689,0.44125 0.0436,0.0241 0.0542,0.0262 0.13546,0.0262 0.0751,0 0.0938,-0.003 0.12607,-0.0202 0.0863,-0.0461 0.13439,-0.11221 0.15292,-0.21027 0.0116,-0.0613 0.006,-0.21149 -0.0189,-0.50152 -0.0305,-0.35599 -0.0401,-0.66486 -0.0283,-0.90179 0.0117,-0.2336 0.0305,-0.41205 0.0518,-0.49168 0.0206,-0.0772 0.0823,-0.20347 0.13018,-0.26667 0.0716,-0.0945 0.19836,-0.18871 0.27023,-0.20085 0.10459,-0.0177 0.20167,0.0494 0.23441,0.1619 0.027,0.0927 -0.004,0.16448 -0.10073,0.23504 -0.0975,0.071 -0.14071,0.15731 -0.13205,0.26397 0.008,0.10214 0.0626,0.18209 0.15425,0.22722 0.0509,0.0251 0.0677,0.0289 0.12536,0.0288 0.0802,-2.3e-4 0.1471,-0.0272 0.20085,-0.0809 0.0715,-0.0715 0.0797,-0.10745 0.10367,-0.45221 0.0392,-0.56407 0.11125,-0.91418 0.25769,-1.25237 0.0721,-0.16648 0.17345,-0.33687 0.24755,-0.41615 0.11333,-0.12126 0.32858,-0.22169 0.44231,-0.20638 0.16352,0.022 0.23575,0.23516 0.12002,0.35416 -0.0209,0.0215 -0.0527,0.0425 -0.0774,0.051 -0.023,0.008 -0.0607,0.0212 -0.0838,0.0293 -0.0557,0.0197 -0.12723,0.0883 -0.15294,0.14659 -0.0151,0.0343 -0.0203,0.0629 -0.0206,0.11314 -3.6e-4,0.0599 0.003,0.0739 0.0303,0.12755 0.0849,0.16633 0.29855,0.20486 0.43849,0.079 0.0235,-0.0212 0.0513,-0.0574 0.062,-0.0811 0.0107,-0.0236 0.0416,-0.13212 0.0687,-0.24126 0.0611,-0.24609 0.18295,-0.67045 0.23814,-0.82903 0.0498,-0.14314 0.107,-0.27465 0.15382,-0.35366 0.019,-0.032 0.0429,-0.0796 0.0532,-0.10583 0.0427,-0.10865 0.1472,-0.23635 0.25271,-0.30895 0.0984,-0.0677 0.25421,-0.11984 0.32835,-0.10986 0.12696,0.0171 0.20566,0.15036 0.16632,0.28165 -0.0142,0.0476 -0.0717,0.10555 -0.12151,0.1227 -0.0218,0.008 -0.0593,0.0206 -0.0833,0.0291 -0.0504,0.0179 -0.11171,0.0709 -0.14156,0.12243 -0.0307,0.0529 -0.0438,0.13242 -0.0316,0.19104 0.0447,0.21518 0.29893,0.30105 0.46319,0.15647 0.0514,-0.0452 0.064,-0.0702 0.11539,-0.22819 0.0984,-0.30269 0.24927,-0.70077 0.34574,-0.91256 0.0688,-0.15098 0.16511,-0.30299 0.25295,-0.39911 0.1422,-0.15559 0.40712,-0.2541 0.53,-0.19709 0.10477,0.0486 0.14881,0.17916 0.0976,0.2892 -0.0279,0.0598 -0.0747,0.0936 -0.15468,0.11172 -0.0786,0.0178 -0.11898,0.0389 -0.16517,0.0865 -0.0545,0.0562 -0.0767,0.11191 -0.077,0.19367 -2.8e-4,0.0598 0.003,0.074 0.0304,0.12755 0.12303,0.24121 0.47077,0.18667 0.52795,-0.0828 0.0134,-0.0631 0.0293,-0.0913 0.0718,-0.12772 0.0888,-0.076 0.22358,-0.0628 0.30279,0.0298 0.04,0.0467 0.054,0.10682 0.0411,0.17562 -0.0423,0.22502 -0.1934,0.42076 -0.39745,0.51487 -0.0899,0.0415 -0.1559,0.0578 -0.25983,0.0642 -0.19026,0.0117 -0.38182,-0.0607 -0.52186,-0.19716 -0.037,-0.036 -0.0469,-0.0419 -0.0516,-0.0303 -0.0247,0.0609 -0.16646,0.46513 -0.18914,0.53911 -0.0691,0.22536 -0.1923,0.37571 -0.38309,0.46733 -0.10882,0.0523 -0.16791,0.0652 -0.30055,0.0657 -0.0941,3.5e-4 -0.12719,-0.003 -0.18471,-0.0198 -0.091,-0.0262 -0.1905,-0.0785 -0.26217,-0.1376 l -0.0573,-0.0472 -0.0365,0.11141 c -0.0502,0.1533 -0.0803,0.2609 -0.147,0.52687 -0.0647,0.25781 -0.10034,0.34428 -0.18332,0.44451 -0.0887,0.10717 -0.22836,0.19616 -0.36815,0.23462 -0.079,0.0217 -0.26404,0.0219 -0.34396,2.6e-4 -0.0823,-0.0223 -0.20739,-0.0857 -0.26979,-0.13665 l -0.0537,-0.0439 -0.0196,0.10565 c -0.0256,0.13762 -0.0481,0.32447 -0.0759,0.62929 -0.0267,0.29311 -0.0337,0.34069 -0.0627,0.42774 -0.034,0.10196 -0.0846,0.18009 -0.17446,0.26926 -0.0603,0.0599 -0.0978,0.0887 -0.15083,0.11604 -0.18822,0.0971 -0.37274,0.11371 -0.55444,0.05 -0.0346,-0.0121 -0.0694,-0.0241 -0.0772,-0.0266 -0.0169,-0.005 -0.0168,-0.002 0.0123,0.37181 0.014,0.17959 0.0192,0.3191 0.019,0.51152 -1.9e-4,0.24513 -0.002,0.2697 -0.0196,0.33407 -0.071,0.25452 -0.26311,0.44334 -0.51702,0.50805 -0.0823,0.021 -0.23382,0.0229 -0.31955,0.004 z m 1.59092,1.46364 c 0.61238,-0.21736 1.25031,-0.55165 1.88079,-0.98556 0.1326,-0.0913 0.15701,-0.10877 0.32632,-0.23397 0.75331,-0.5571 1.52082,-1.2995 2.12731,-2.05772 0.59222,-0.74039 1.04658,-1.50031 1.34267,-2.24563 0.0809,-0.20357 0.15916,-0.43242 0.1508,-0.44081 -0.0113,-0.0113 -0.18289,-0.0126 -0.31327,-0.002 -1.07255,0.0846 -2.35573,0.69625 -3.41308,1.62683 -0.14225,0.1252 -0.42218,0.40099 -0.55877,0.55054 -0.91147,0.99786 -1.53655,2.22096 -1.6865,3.29999 -0.008,0.0569 -0.0162,0.19718 -0.019,0.3197 -0.004,0.19765 -0.004,0.21828 0.009,0.21828 0.008,0 0.0769,-0.0222 0.15328,-0.0493 z"
       id="path2" /></g></svg>
