<?xml version="1.0" encoding="UTF-8"?>
<!DOCTYPE svg PUBLIC "-//W3C//DTD SVG 1.1//EN" "http://www.w3.org/Graphics/SVG/1.1/DTD/svg11.dtd">
<svg xmlns="http://www.w3.org/2000/svg" version="1.1" width="1600px" height="1600px" style="shape-rendering:geometricPrecision; text-rendering:geometricPrecision; image-rendering:optimizeQuality; fill-rule:evenodd; clip-rule:evenodd" xmlns:xlink="http://www.w3.org/1999/xlink">
<g><path style="opacity:0.982" fill="#000000" d="M 997.5,129.5 C 1054.56,126.145 1109.22,135.978 1161.5,159C 1250.65,199.985 1324.49,259.818 1383,338.5C 1465.75,462.942 1490.42,598.275 1457,744.5C 1437.02,824.461 1405.02,899.127 1361,968.5C 1321.97,1029.21 1277.97,1086.21 1229,1139.5C 1161.79,1212.41 1088.29,1277.58 1008.5,1335C 942.348,1381.58 870.681,1417.91 793.5,1444C 707.128,1472.26 619.128,1478.93 529.5,1464C 403.043,1439.73 301.209,1376.56 224,1274.5C 184.207,1223.25 155.207,1166.25 137,1103.5C 127.58,1065.66 124.914,1027.33 129,988.5C 134.331,940.507 145.331,893.841 162,848.5C 193.07,766.673 233.737,690.34 284,619.5C 387.854,472.971 515.021,351.138 665.5,254C 719.334,220.082 776.001,191.415 835.5,168C 887.895,147.826 941.895,134.993 997.5,129.5 Z M 999.5,194.5 C 1130.98,187.15 1191.48,249.15 1181,380.5C 1179.83,392.551 1178.33,404.551 1176.5,416.5C 1124.57,413.177 1073.57,418.677 1023.5,433C 931.497,460.005 846.83,501.338 769.5,557C 637.155,652.008 536.988,773.508 469,921.5C 439.931,984.775 422.264,1051.11 416,1120.5C 415.625,1139.88 415.458,1159.21 415.5,1178.5C 377.253,1186.72 338.92,1187.22 300.5,1180C 240.548,1165.99 205.715,1128.49 196,1067.5C 190.272,1023.36 192.938,979.689 204,936.5C 221.254,869.732 246.921,806.399 281,746.5C 350.132,627.954 436.299,522.787 539.5,431C 620.035,358.861 709.035,298.861 806.5,251C 867.731,221.114 932.064,202.281 999.5,194.5 Z M 1240.5,284.5 C 1326.48,351.062 1379.98,438.062 1401,545.5C 1414.57,630.337 1406.24,713.004 1376,793.5C 1352.6,855.648 1321.93,913.648 1284,967.5C 1197.25,1088.25 1093.75,1192.42 973.5,1280C 918.997,1318.59 860.33,1349.93 797.5,1374C 723.455,1401.86 647.121,1411.86 568.5,1404C 478.008,1392.91 399.008,1357.24 331.5,1297C 314.058,1279.9 297.725,1261.9 282.5,1243C 339.063,1252.96 395.397,1251.3 451.5,1238C 531.06,1217.93 606.06,1186.93 676.5,1145C 854.556,1037.28 1001.06,896.45 1116,722.5C 1162.48,651.542 1198.81,575.542 1225,494.5C 1243.58,436.852 1250.58,377.852 1246,317.5C 1244.81,306.376 1242.98,295.376 1240.5,284.5 Z M 1123.5,480.5 C 1135.84,480.333 1148.17,480.5 1160.5,481C 1136.48,552.201 1104.31,619.368 1064,682.5C 958.137,844.364 823.304,976.531 659.5,1079C 603.491,1113.42 544.325,1141.25 482,1162.5C 479.703,1128.12 482.703,1094.12 491,1060.5C 506.684,997.139 530.684,937.139 563,880.5C 656.313,719.515 787.813,601.015 957.5,525C 1010.69,501.704 1066.03,486.87 1123.5,480.5 Z"/></g>
<g><path style="opacity:0.976" fill="#000000" d="M 902.5,255.5 C 921.941,255.441 931.441,265.108 931,284.5C 929.631,293.414 924.798,299.58 916.5,303C 888.938,307.972 879.105,323.806 887,350.5C 897.986,366.828 912.486,370.995 930.5,363C 933.965,360.537 937.131,357.704 940,354.5C 943.95,346.44 947.283,338.107 950,329.5C 958.449,320.519 968.615,318.019 980.5,322C 992.111,328.059 996.611,337.559 994,350.5C 986.457,383.709 966.29,404.876 933.5,414C 902.334,420.277 876.167,411.777 855,388.5C 845.194,416.254 835.194,443.921 825,471.5C 805.626,502.09 777.792,515.257 741.5,511C 724.97,508.068 710.637,500.902 698.5,489.5C 695.371,497.388 692.537,505.388 690,513.5C 682.999,539.505 675.999,565.505 669,591.5C 650.716,627.064 621.549,642.897 581.5,639C 565.558,636.279 551.724,629.445 540,618.5C 537.258,627.937 535.258,637.603 534,647.5C 530.846,678.523 527.513,709.523 524,740.5C 514.196,774.972 491.696,795.472 456.5,802C 441.195,804.038 426.528,801.871 412.5,795.5C 412.167,797.333 411.833,799.167 411.5,801C 413.333,826.833 415.167,852.666 417,878.5C 418.504,898.384 417.171,918.051 413,937.5C 401.242,969.585 378.409,988.085 344.5,993C 306.207,994.945 278.707,978.778 262,944.5C 251.021,915.688 254.355,888.688 272,863.5C 276.583,856.628 282.749,851.794 290.5,849C 305.29,846.792 315.456,852.625 321,866.5C 321.839,871.921 321.506,877.254 320,882.5C 317.05,887.118 313.716,891.452 310,895.5C 301.467,910.702 303.3,924.535 315.5,937C 331.912,948.142 347.078,946.642 361,932.5C 363.194,929.446 364.861,926.112 366,922.5C 367.581,910.558 367.915,898.558 367,886.5C 361.511,836.606 360.178,786.606 363,736.5C 363.095,717.123 367.428,698.79 376,681.5C 384.022,667.143 395.522,656.643 410.5,650C 426.084,647.371 436.251,653.538 441,668.5C 442.814,676.675 441.147,684.009 436,690.5C 418.236,699.694 411.569,714.028 416,733.5C 423.228,749.033 435.395,755.533 452.5,753C 464.568,749.933 472.401,742.433 476,730.5C 478.383,701.809 481.049,673.143 484,644.5C 488.784,601.15 501.784,560.484 523,522.5C 535.103,500.734 553.27,486.9 577.5,481C 596.098,478.639 606.431,486.806 608.5,505.5C 606.219,520.944 597.219,529.444 581.5,531C 561.802,543.969 558.302,560.469 571,580.5C 584.119,592.614 598.286,594.114 613.5,585C 618.947,580.601 622.78,575.101 625,568.5C 634.799,526.636 646.466,485.303 660,444.5C 667.53,426.44 675.864,408.773 685,391.5C 699.946,366.113 722.113,353.279 751.5,353C 762.355,357.386 768.022,365.553 768.5,377.5C 767.939,385.457 764.605,391.957 758.5,397C 750.903,399.42 743.569,402.42 736.5,406C 721.473,419.976 719.639,435.476 731,452.5C 747.965,467.678 764.298,467.011 780,450.5C 781.586,448.33 782.92,445.996 784,443.5C 798.133,396.43 815.799,350.764 837,306.5C 844.356,294.806 852.856,283.973 862.5,274C 874.265,264.282 887.598,258.115 902.5,255.5 Z"/></g>
<g><path style="opacity:0.977" fill="#000000" d="M 1187.5,703.5 C 1211.43,701.929 1221.6,712.929 1218,736.5C 1215.48,742.027 1211.81,746.694 1207,750.5C 1197.62,767.421 1200.12,782.254 1214.5,795C 1230.94,803.893 1245.77,801.727 1259,788.5C 1261.91,784.093 1263.41,779.26 1263.5,774C 1262.7,766.586 1260.86,759.419 1258,752.5C 1256.59,730.923 1266.76,721.089 1288.5,723C 1297.67,725.5 1303.5,731.333 1306,740.5C 1321.12,783.811 1309.29,817.311 1270.5,841C 1248.28,851.204 1225.78,852.037 1203,843.5C 1204.53,868.51 1206.53,893.51 1209,918.5C 1213.2,947.215 1206.86,973.215 1190,996.5C 1168.06,1019.59 1141.23,1028.76 1109.5,1024C 1097.86,1021.85 1087.53,1017.01 1078.5,1009.5C 1078.17,1010.17 1077.83,1010.83 1077.5,1011.5C 1092.91,1068.6 1082.75,1120.6 1047,1167.5C 1041.83,1174 1036,1179.83 1029.5,1185C 1013.97,1191.16 1002.13,1186.99 994,1172.5C 991.692,1165.42 992.192,1158.59 995.5,1152C 984.197,1150.34 973.697,1146.51 964,1140.5C 961.605,1156.45 959.605,1172.45 958,1188.5C 949.135,1221.36 927.968,1241.2 894.5,1248C 862.295,1252.88 835.962,1242.71 815.5,1217.5C 812.172,1225.65 809.339,1233.98 807,1242.5C 802.919,1260.24 798.585,1277.91 794,1295.5C 775.79,1332.19 746.29,1348.36 705.5,1344C 698.604,1342.53 691.938,1340.37 685.5,1337.5C 675.401,1357.76 659.401,1370.93 637.5,1377C 615.403,1378.23 605.57,1367.73 608,1345.5C 609.708,1340.59 612.542,1336.42 616.5,1333C 622.793,1330.93 628.793,1328.26 634.5,1325C 641.774,1317.36 645.441,1308.19 645.5,1297.5C 632.159,1261.04 639.492,1229.54 667.5,1203C 682.517,1195.12 694.683,1198.28 704,1212.5C 709.058,1226.26 705.725,1237.59 694,1246.5C 683.49,1265.58 687.324,1281.08 705.5,1293C 725.142,1299.9 739.642,1294.06 749,1275.5C 755.691,1233.73 768.691,1194.06 788,1156.5C 798.882,1138.27 812.049,1121.77 827.5,1107C 845.841,1098.45 858.674,1103.61 866,1122.5C 866.726,1127.24 866.393,1131.91 865,1136.5C 861.394,1142.71 857.061,1148.37 852,1153.5C 844.45,1170.84 848.283,1185 863.5,1196C 879.084,1203.28 892.918,1200.78 905,1188.5C 907.194,1185.45 908.861,1182.11 910,1178.5C 912.051,1140.76 917.051,1103.43 925,1066.5C 929.59,1044.81 939.756,1026.31 955.5,1011C 968.444,1003.92 979.944,1005.76 990,1016.5C 995.034,1024.84 995.701,1033.5 992,1042.5C 987.798,1047.29 983.798,1052.29 980,1057.5C 972.45,1074.84 976.283,1089 991.5,1100C 1009.34,1108.51 1023.17,1104.34 1033,1087.5C 1034.96,1079.95 1036.13,1072.29 1036.5,1064.5C 1033.53,1043.48 1030.36,1022.48 1027,1001.5C 1022.25,949.881 1039.41,907.381 1078.5,874C 1095.64,865.158 1108.47,869.324 1117,886.5C 1119,891.5 1119,896.5 1117,901.5C 1113.76,907.743 1110.1,913.743 1106,919.5C 1098.95,935.584 1098.95,951.584 1106,967.5C 1110.23,973.949 1116.23,976.949 1124,976.5C 1149.9,974.083 1162.07,959.75 1160.5,933.5C 1157.8,896.797 1154.63,860.13 1151,823.5C 1149.12,796.585 1150.78,769.918 1156,743.5C 1160.97,729.726 1168.8,717.893 1179.5,708C 1182.19,706.395 1184.86,704.895 1187.5,703.5 Z"/></g>
</svg>
