<?xml version="1.0" encoding="UTF-8" standalone="no"?>
<!-- Created with Inkscape (http://www.inkscape.org/) -->

<svg
   width="209.78386mm"
   height="221.65176mm"
   viewBox="0 0 209.78386 221.65177"
   version="1.1"
   id="svg1"
   xml:space="preserve"
   xmlns="http://www.w3.org/2000/svg"
   xmlns:svg="http://www.w3.org/2000/svg"><defs
     id="defs1" /><g
     id="layer1"
     transform="translate(-1.1569239,-37.721073)"><path
       style="fill:#fbfbfb;fill-opacity:1"
       d="m 102.19969,258.51235 c -1.32188,-0.46151 -3.226883,-1.33176 -4.233329,-1.93388 -1.006446,-0.60213 -2.484746,-1.3762 -3.285111,-1.72017 -2.954638,-1.2698 -7.534812,-3.82487 -8.338041,-4.65141 -0.893164,-0.91909 -1.451542,-2.72181 -1.451542,-4.6863 0,-1.02374 0.132904,-1.25677 1.389062,-2.43557 2.004085,-1.88065 4.161774,-3.47273 7.474479,-5.51513 1.60073,-0.9869 3.96101,-2.50353 5.245069,-3.37028 4.447053,-3.0018 6.456953,-3.47772 9.766653,-2.31261 1.4777,0.5202 2.27265,0.59127 7.34557,0.65669 5.25413,0.0678 5.94111,0.13361 8.99583,0.86212 7.87249,1.87749 9.7529,2.15683 14.55209,2.1618 5.51484,0.006 10.48095,-1.00435 14.64579,-2.97881 7.20385,-3.41519 12.69753,-7.33788 19.70683,-14.07143 8.70146,-8.35913 15.94006,-20.71327 17.78227,-30.34905 0.95786,-5.01008 1.3327,-14.38017 0.7504,-18.7577 -0.28476,-2.14076 -1.88238,-7.42412 -2.91582,-9.64271 -0.84723,-1.81884 -2.4032,-3.98536 -4.17977,-5.81989 -4.45149,-4.59671 -9.91007,-6.70519 -17.42357,-6.73016 -11.54381,-0.0384 -21.93063,4.75252 -35.50988,16.37881 -5.59796,4.79286 -7.95718,7.30497 -12.7942,13.62332 l -0.59242,0.77384 -1.58957,-1.07946 c -2.00762,-1.36335 -7.40014,-6.97114 -9.53989,-9.92073 l -1.62961,-2.24638 1.9715,-2.48493 c 1.08433,-1.36671 2.77589,-3.3779 3.75903,-4.46931 0.98313,-1.0914 3.30146,-3.78825 5.15184,-5.99299 3.9636,-4.72266 6.85594,-7.37745 14.20498,-13.03832 8.22956,-6.33912 11.9267,-8.58608 17.41647,-10.58497 3.6247,-1.31979 5.50706,-1.73108 9.83562,-2.14901 5.39581,-0.52097 14.3567,0.0662 18.9177,1.23973 2.44334,0.62862 7.64356,2.63071 10.62439,4.09038 5.9059,2.89205 11.20154,7.14355 14.21849,11.41504 1.76919,2.50488 4.4403,9.65153 5.515,14.75556 0.75179,3.57044 0.80971,4.24007 0.83538,9.65729 0.0695,14.67098 -1.16308,21.31551 -5.59526,30.1625 -1.21959,2.43442 -4.40675,7.68177 -6.10672,10.05417 -5.87183,8.1944 -18.05495,20.29399 -26.62595,26.44341 -2.94357,2.11191 -9.78474,6.17812 -13.50283,8.02572 -4.65118,2.31127 -6.40982,3.03402 -11.1125,4.56693 -7.0597,2.30122 -11.15419,3.85653 -21.87983,8.31119 -1.26537,0.52554 -3.7758,1.29479 -5.57874,1.70943 -1.80294,0.41464 -3.85212,1.00782 -4.55372,1.31817 -1.64989,0.72983 -6.0384,1.62161 -7.84906,1.595 -0.85852,-0.0126 -2.35745,-0.3503 -3.81708,-0.8599 z m 3.00602,-5.61662 c 0.41489,-0.2906 0.58804,-0.68128 0.58804,-1.32681 0,-1.75523 -2.49371,-2.50621 -4.32901,-1.30368 -1.1037,0.72317 -0.9151,1.50967 0.5587,2.32998 1.44156,0.80237 2.34409,0.8876 3.18227,0.30051 z m 0.25731,-15.19564 c 1.01779,-0.62055 1.17037,-1.75658 0.33721,-2.51057 -1.12348,-1.01675 -4.27633,0.0469 -4.45199,1.50195 -0.0631,0.5229 0.1034,0.75206 0.79375,1.09229 1.17245,0.57781 2.28196,0.54986 3.32103,-0.0837 z m -28.24427,7.64447 C 68.219889,244.16817 62.979475,242.86631 55.7875,240.02046 36.916948,232.55342 21.245741,219.59085 12.35526,204.09511 9.3889625,198.92498 6.18786,191.66989 4.8839051,187.16177 4.1973052,184.78802 2.9289525,177.97765 2.6172273,174.99094 2.1860075,170.85932 2.1686705,170.5184 2.3969619,170.65949 c 0.1151085,0.0711 0.2092881,0.2987 0.2092881,0.50568 0,0.51376 2.1978819,6.05829 3.5827625,9.03812 1.1490043,2.47231 4.5640735,8.32901 6.6802735,11.4564 1.405451,2.07702 2.457278,3.3504 5.448203,6.59576 1.254235,1.36094 2.280428,2.58504 2.280428,2.72023 0,0.66567 1.838169,4.52311 3.319437,6.9659 3.19223,5.26439 6.730984,9.62801 10.800652,13.31823 6.23245,5.65136 17.671803,12.51187 25.217396,15.12361 4.130445,1.42966 11.272593,3.23806 15.626266,3.95658 1.92626,0.3179 3.712198,0.61812 3.96875,0.66715 0.256551,0.049 0.623393,0.0983 0.815203,0.10938 0.244936,0.0142 0.180121,0.25706 -0.217741,0.8158 -0.334413,0.46964 -0.627939,1.39098 -0.716491,2.24896 -0.0825,0.79937 -0.222644,1.43871 -0.311426,1.42074 -0.08878,-0.018 -0.935328,-0.13382 -1.881213,-0.25747 z M 54.464583,209.257 c -4.296872,-0.52389 -10.707239,-1.86173 -13.429775,-2.80278 -3.384067,-1.16971 -7.776564,-3.4075 -11.487021,-5.85215 -2.512085,-1.65509 -4.055819,-2.9443 -6.719607,-5.6117 -3.815896,-3.82107 -4.79266,-5.10026 -8.200085,-10.73901 -3.12879,-5.17765 -4.551873,-8.24806 -6.4380714,-13.89063 -1.4969592,-4.47815 -3.0542069,-10.42297 -2.797538,-10.67964 0.063594,-0.0636 0.8616906,0.61107 1.7735488,1.49924 2.8260198,2.75261 7.9856246,6.44003 11.4779036,8.20292 2.626973,1.3261 7.762373,3.40763 10.316826,4.18174 2.098054,0.63579 2.491591,0.85143 3.042708,1.66721 1.075963,1.59269 4.234421,4.77765 6.45382,6.50798 2.392596,1.86536 4.652227,3.06698 8.398131,4.46594 4.053951,1.51399 6.450577,1.97358 12.768535,2.44854 4.777773,0.35918 6.318658,0.38254 8.598959,0.13033 5.453486,-0.60316 10.115238,-1.88505 13.834091,-3.80409 1.133074,-0.5847 2.098049,-1.01781 2.144389,-0.96246 0.04634,0.0553 0.953568,1.41031 2.016061,3.01104 2.478645,3.73428 5.459976,7.38858 9.206493,11.28466 0.797979,0.82984 1.35734,1.62507 1.257123,1.78722 -0.338804,0.5482 -3.186016,2.33332 -5.867041,3.67846 -4.632437,2.32423 -11.215896,4.32095 -17.29945,5.24681 -3.674755,0.55926 -15.20852,0.69874 -19.05,0.23037 z m 80.433337,0.12113 c -14.55809,-1.38025 -28.25291,-7.20813 -36.138453,-15.37885 -4.100388,-4.24868 -8.30595,-9.88561 -11.121922,-14.9073 -1.180271,-2.10476 -3.035819,-6.32916 -5.39909,-12.29175 -1.325699,-3.34477 -1.555132,-4.13993 -1.259642,-4.36562 0.198713,-0.15178 1.368756,-1.04292 2.600096,-1.98032 2.886682,-2.19758 6.661764,-5.33414 8.251973,-6.85623 0.687871,-0.6584 1.297654,-1.14474 1.355075,-1.08075 0.05742,0.064 0.796907,1.48556 1.643303,3.15905 1.927811,3.81166 4.741386,8.67209 6.81563,11.77396 3.75196,5.61075 9.558,11.7705 13.63213,14.46261 3.84123,2.53822 6.55468,3.96761 10.22819,5.38801 6.54876,2.53215 10.89299,3.35594 17.72708,3.36158 7.02385,0.006 11.22885,-0.9612 18.91736,-4.35034 3.46813,-1.52878 3.61028,-1.61109 6.48264,-3.75378 6.00912,-4.48262 12.08559,-11.97066 14.15923,-17.44844 0.44921,-1.18666 0.97563,-2.57331 1.16982,-3.08146 l 0.35308,-0.92389 0.45413,1.05619 c 2.60988,6.06986 3.28475,11.5668 2.39364,19.4966 -0.89112,7.92994 -1.19613,8.82954 -4.0844,12.04661 -2.65464,2.95684 -3.53283,3.70841 -7.56633,6.47552 -7.26143,4.98155 -13.98492,7.4034 -24.47396,8.8157 -3.68878,0.49668 -12.68772,0.71017 -16.13958,0.3829 z m 19.31458,-28.1748 c -2.66764,-0.41628 -6.7177,-1.66942 -9.65729,-2.98809 -3.44122,-1.5437 -11.50938,-6.94604 -11.50938,-7.70655 0,-0.24115 4.93726,-4.55573 7.14292,-6.24206 0.94543,-0.72283 2.90111,-2.11635 4.34595,-3.09673 l 2.627,-1.78249 0.81342,0.53649 c 6.37008,4.2014 16.6273,5.34851 24.09675,2.69483 2.63345,-0.93558 4.30944,-1.81435 5.75469,-3.01735 0.69123,-0.57536 1.25677,-0.95731 1.25677,-0.84879 0,0.82939 -1.31121,4.5843 -2.20572,6.31648 -3.08084,5.96598 -10.4888,13.42728 -15.61217,15.72458 -2.05332,0.92071 -3.31025,0.99372 -7.05294,0.40968 z M 37.926026,169.71135 c -4.539654,-0.41083 -7.507646,-1.19358 -12.830193,-3.3837 -4.964381,-2.04274 -9.587604,-4.89773 -13.256724,-8.18648 C 7.1978658,153.98109 5.6883515,151.4288 2.8894513,143.00907 1.448296,138.67375 1.1637944,135.95271 1.157047,126.4399 1.1507074,117.50203 1.3858272,114.8075 2.6577046,109.24198 4.9421655,99.245572 13.519448,86.172886 25.402282,74.576842 32.718978,67.436733 39.269919,62.266589 46.277687,58.101523 c 6.510791,-3.869689 12.981931,-6.825818 18.637938,-8.514133 2.829208,-0.844517 13.994972,-4.990487 17.727083,-6.582259 5.23009,-2.230669 7.783162,-2.851057 13.238427,-3.216894 2.976966,-0.199639 3.947692,-0.378864 5.879265,-1.08549 4.19857,-1.535965 6.42274,-1.316229 10.02351,0.990269 0.85276,0.546238 2.52601,1.425896 3.71835,1.954794 3.5729,1.584874 7.01405,3.506771 8.0412,4.491048 0.8166,0.782518 1.00938,1.192586 1.24385,2.645833 0.28636,1.774867 0.27236,2.443814 -0.0679,3.242258 -0.2662,0.624757 -4.44887,4.176534 -7.54863,6.410025 -1.38244,0.996107 -3.10885,2.308113 -3.83645,2.915569 -1.64253,1.3713 -5.46539,3.655416 -6.87808,4.109574 -1.66312,0.534665 -5.2342,0.445219 -7.938592,-0.19884 -2.525462,-0.601447 -7.85383,-1.153792 -10.715625,-1.110795 -1.833731,0.02755 -6.430273,-0.917194 -9.789583,-2.012092 -2.650015,-0.863718 -5.016295,-1.173324 -9.015706,-1.179624 -6.745181,-0.01062 -11.830268,1.480353 -18.558558,5.441484 -5.614674,3.305513 -8.261439,5.316848 -13.67668,10.393209 -8.294968,7.775876 -14.857341,17.910517 -16.940602,26.162321 -1.118674,4.43107 -2.133681,11.86579 -2.132374,15.6192 0.0017,4.76188 0.662003,10.93293 1.461739,13.66025 2.414085,8.23268 8.162098,13.97769 16.196686,16.18823 2.010102,0.55303 2.884458,0.63627 6.680302,0.63595 4.989153,-4.1e-4 7.256292,-0.33119 11.551409,-1.68538 3.1407,-0.99021 8.976166,-3.77389 11.601373,-5.53418 3.930341,-2.63542 9.006202,-6.41241 12.804709,-9.52808 4.444523,-3.64556 8.071624,-7.49258 11.071356,-11.74263 l 1.714541,-2.42918 1.886703,1.37084 c 2.443012,1.77505 5.070974,4.26235 7.198789,6.81347 1.925813,2.30893 3.556313,4.64869 3.556313,5.10329 0,0.49955 -4.817661,6.45561 -10.730895,13.26659 -3.715021,4.27903 -7.379962,7.61882 -13.575784,12.37133 -11.090517,8.50699 -15.732143,10.77474 -25.038113,12.2328 -3.088619,0.48393 -12.646934,0.72734 -16.141682,0.41107 z M 107.94076,59.72285 c 1.51757,-0.825969 1.70711,-1.58345 0.56497,-2.257879 -2.02967,-1.198506 -4.29948,-0.553007 -4.29948,1.222703 0,0.645524 0.17315,1.036207 0.58804,1.326806 0.84062,0.588794 1.67009,0.511914 3.14647,-0.29163 z m 0.43268,-16.756092 c 0.49609,-0.302471 0.85989,-0.742193 0.85989,-1.039328 0,-0.768991 -1.46813,-1.675613 -2.94285,-1.817315 -1.55754,-0.14966 -2.08423,0.207087 -2.08423,1.411728 0,1.757659 2.32949,2.565379 4.16719,1.444915 z m 6.94676,98.371642 c -1.93731,-3.76982 -3.68414,-6.91193 -6.012,-10.81407 -5.6992,-9.55344 -11.766002,-15.32065 -20.681451,-19.66013 -6.2752,-3.05438 -10.89992,-4.32944 -18.010583,-4.96563 -4.952058,-0.44306 -12.398392,-0.0148 -16.286405,0.93658 -3.756449,0.91923 -6.531587,1.87595 -9.122945,3.14511 -2.715769,1.3301 -7.96374,5.17955 -10.321835,7.57119 -2.966433,3.00863 -5.90931,7.99387 -7.680826,13.01133 -0.586619,1.66148 -1.131559,3.19946 -1.210978,3.41774 -0.106506,0.29273 -0.249841,0.19748 -0.546215,-0.36297 -0.908982,-1.71891 -1.46922,-3.92477 -1.822956,-7.17765 -0.709084,-6.52058 -0.415641,-13.26571 0.856669,-19.69153 l 0.441347,-2.22903 3.11804,-3.08379 c 5.382581,-5.323446 12.236126,-9.473425 19.14848,-11.594842 7.303657,-2.241508 10.516793,-2.721172 19.314583,-2.883325 9.869619,-0.181907 16.356684,0.645067 23.283333,2.96817 12.442022,4.172886 19.576022,9.246598 27.137542,19.300267 3.00865,4.00024 4.12036,5.82995 7.32431,12.0547 1.61038,3.1287 3.59377,6.92977 4.40753,8.44682 0.81377,1.51705 1.47958,2.84434 1.47958,2.94953 0,0.10519 -1.33946,1.2376 -2.97657,2.51647 -3.29419,2.57335 -7.68061,6.25099 -9.35256,7.84133 l -1.08434,1.0314 z m -84.403533,-4.01397 c 0,-1.65133 2.673633,-8.25289 4.714325,-11.64031 2.033446,-3.37539 3.438129,-4.91153 6.79505,-7.43097 4.064923,-3.05081 5.072134,-3.4437 8.73125,-3.40589 6.634825,0.0686 12.358695,1.83481 18.912,5.83578 3.087737,1.88515 6.900345,4.82023 6.79067,5.22769 -0.118945,0.44191 -5.374981,4.74534 -9.166212,7.50492 -5.042145,3.67011 -4.479489,3.43035 -5.848173,2.49196 -2.920559,-2.00238 -5.981935,-3.07178 -10.555994,-3.6874 -3.745866,-0.50416 -8.584816,-0.30946 -11.574311,0.46571 -2.763964,0.71669 -6.011408,2.33917 -7.541835,3.76803 -0.691223,0.64535 -1.25677,1.03707 -1.25677,0.87048 z m 172.120143,-2.23051 c -4.83206,-5.05725 -12.85469,-9.49546 -23.59524,-13.05316 -0.87089,-0.28847 -1.46733,-0.82323 -2.894,-2.59473 -2.31058,-2.86904 -3.34637,-3.86139 -5.80299,-5.55965 -2.25072,-1.55593 -6.92715,-3.84601 -9.9175,-4.85668 -4.52424,-1.52909 -7.28284,-1.90526 -13.89062,-1.89415 -4.69775,0.008 -6.68875,0.11982 -8.73125,0.49085 -4.49964,0.81736 -8.66409,2.34169 -11.41647,4.17879 l -1.09771,0.73268 -1.08847,-1.78024 c -2.30915,-3.77671 -4.76127,-6.93837 -9.1561,-11.805467 l -2.53127,-2.803294 1.89478,-1.225729 c 7.28789,-4.714515 16.98229,-7.336975 28.42232,-7.688604 15.75815,-0.484353 28.93438,2.454018 37.08495,8.270146 3.40217,2.427736 7.62252,6.316568 10.10219,9.308638 1.61873,1.95322 6.15936,8.97871 7.57694,11.72341 2.20192,4.26333 7.21567,18.67758 6.96741,20.03092 -0.0614,0.33445 -0.57369,-0.0574 -1.92697,-1.47373 z m 3.81536,-11.23371 c -1.57318,-4.29221 -3.30886,-8.45916 -4.32569,-10.38489 -1.71392,-3.24597 -6.48285,-10.3393 -8.52107,-12.67431 -1.37658,-1.577021 -2.34668,-3.105298 -3.94683,-6.217707 -2.88968,-5.620682 -5.10743,-8.862216 -10.0667,-14.71381 -3.32466,-3.922869 -5.40716,-5.747853 -11.2273,-9.838963 -9.69059,-6.811745 -19.94596,-11.287543 -30.73029,-13.411762 -2.52537,-0.497429 -5.30596,-0.982383 -6.17908,-1.077674 -2.60244,-0.284026 -2.58632,-0.272527 -1.97665,-1.410049 0.30979,-0.57799 0.52144,-1.484612 0.52144,-2.233581 0,-0.693379 0.0298,-1.260606 0.0661,-1.260504 0.93563,0.0026 10.25088,1.494492 12.41864,1.988891 11.31589,2.580816 26.99214,10.419913 35.58441,17.794414 4.77547,4.098651 6.00184,5.292231 9.44083,9.188385 4.60685,5.21927 6.73597,8.012296 9.21541,12.088926 5.15104,8.469254 8.08065,16.410284 9.84004,26.672534 0.4282,2.49766 0.83595,7.14375 0.62695,7.14375 -0.0738,0 -0.4069,-0.74414 -0.74026,-1.65365 z"
       id="path1" /></g><g
     id="g2"
     transform="translate(0.95974241,-36.662739)"><path
       style="fill:#0e0e0e;fill-opacity:1"
       d="m 102.19969,257.45401 c -1.32188,-0.46151 -3.226883,-1.33176 -4.233329,-1.93388 -1.006446,-0.60213 -2.484746,-1.3762 -3.285111,-1.72017 -2.954638,-1.2698 -7.534812,-3.82487 -8.338041,-4.65141 -0.893164,-0.91909 -1.451542,-2.72181 -1.451542,-4.6863 0,-1.02374 0.132904,-1.25677 1.389062,-2.43557 2.004085,-1.88065 4.161774,-3.47273 7.474479,-5.51513 1.60073,-0.9869 3.96101,-2.50353 5.245069,-3.37028 4.447053,-3.0018 6.456953,-3.47772 9.766653,-2.31261 1.4777,0.5202 2.27265,0.59127 7.34557,0.65669 5.25413,0.0678 5.94111,0.13361 8.99583,0.86212 7.87249,1.87749 9.7529,2.15683 14.55209,2.1618 5.51484,0.006 10.48095,-1.00435 14.64579,-2.97881 7.20385,-3.41519 12.69753,-7.33788 19.70683,-14.07143 8.70146,-8.35913 15.94006,-20.71327 17.78227,-30.34905 0.95786,-5.01008 1.3327,-14.38017 0.7504,-18.7577 -0.28476,-2.14076 -1.88238,-7.42412 -2.91582,-9.64271 -0.84723,-1.81884 -2.4032,-3.98536 -4.17977,-5.81989 -4.45149,-4.59671 -9.91007,-6.70519 -17.42357,-6.73016 -11.54381,-0.0384 -21.93063,4.75252 -35.50988,16.37881 -5.59796,4.79286 -7.95718,7.30497 -12.7942,13.62332 l -0.59242,0.77384 -1.58957,-1.07946 c -2.00762,-1.36335 -7.40014,-6.97114 -9.53989,-9.92073 l -1.62961,-2.24638 1.9715,-2.48493 c 1.08433,-1.36671 2.77589,-3.3779 3.75903,-4.46931 0.98313,-1.0914 3.30146,-3.78825 5.15184,-5.99299 3.9636,-4.72266 6.85594,-7.37745 14.20498,-13.03832 8.22956,-6.33912 11.9267,-8.58608 17.41647,-10.58497 3.6247,-1.31979 5.50706,-1.73108 9.83562,-2.14901 5.39581,-0.52097 14.3567,0.0662 18.9177,1.23973 2.44334,0.62862 7.64356,2.63071 10.62439,4.09038 5.9059,2.89205 11.20154,7.14355 14.21849,11.41504 1.76919,2.50488 4.4403,9.65153 5.515,14.75556 0.75179,3.57044 0.80971,4.24007 0.83538,9.65729 0.0695,14.67098 -1.16308,21.31551 -5.59526,30.1625 -1.21959,2.43442 -4.40675,7.68177 -6.10672,10.05417 -5.87183,8.1944 -18.05495,20.29399 -26.62595,26.44341 -2.94357,2.11191 -9.78474,6.17812 -13.50283,8.02572 -4.65118,2.31127 -6.40982,3.03402 -11.1125,4.56693 -7.0597,2.30122 -11.15419,3.85653 -21.87983,8.31119 -1.26537,0.52554 -3.7758,1.29479 -5.57874,1.70943 -1.80294,0.41464 -3.85212,1.00782 -4.55372,1.31817 -1.64989,0.72983 -6.0384,1.62161 -7.84906,1.595 -0.85852,-0.0126 -2.35745,-0.3503 -3.81708,-0.8599 z m 3.00602,-5.61662 c 0.41489,-0.2906 0.58804,-0.68128 0.58804,-1.32681 0,-1.75523 -2.49371,-2.50621 -4.32901,-1.30368 -1.1037,0.72317 -0.9151,1.50967 0.5587,2.32998 1.44156,0.80237 2.34409,0.8876 3.18227,0.30051 z m 0.25731,-15.19564 c 1.01779,-0.62055 1.17037,-1.75658 0.33721,-2.51057 -1.12348,-1.01675 -4.27633,0.0469 -4.45199,1.50195 -0.0631,0.5229 0.1034,0.75206 0.79375,1.09229 1.17245,0.57781 2.28196,0.54986 3.32103,-0.0837 z m -28.24427,7.64447 C 68.219889,243.10983 62.979475,241.80797 55.7875,238.96212 36.916948,231.49508 21.245741,218.53251 12.35526,203.03677 9.3889625,197.86664 6.18786,190.61155 4.8839051,186.10343 4.1973052,183.72968 2.9289525,176.91931 2.6172273,173.9326 c -0.4312198,-4.13162 -0.4485568,-4.47254 -0.2202654,-4.33145 0.1151085,0.0711 0.2092881,0.2987 0.2092881,0.50568 0,0.51376 2.1978819,6.05829 3.5827625,9.03812 1.1490043,2.47231 4.5640735,8.32901 6.6802735,11.4564 1.405451,2.07702 2.457278,3.3504 5.448203,6.59576 1.254235,1.36094 2.280428,2.58504 2.280428,2.72023 0,0.66567 1.838169,4.52311 3.319437,6.9659 3.19223,5.26439 6.730984,9.62801 10.800652,13.31823 6.23245,5.65136 17.671803,12.51187 25.217396,15.12361 4.130445,1.42966 11.272593,3.23806 15.626266,3.95658 1.92626,0.3179 3.712198,0.61812 3.96875,0.66715 0.256551,0.049 0.623393,0.0983 0.815203,0.10938 0.244936,0.0142 0.180121,0.25706 -0.217741,0.8158 -0.334413,0.46964 -0.627939,1.39098 -0.716491,2.24896 -0.0825,0.79937 -0.222644,1.43871 -0.311426,1.42074 -0.08878,-0.018 -0.935328,-0.13382 -1.881213,-0.25747 z M 54.464583,208.19866 c -4.296872,-0.52389 -10.707239,-1.86173 -13.429775,-2.80278 -3.384067,-1.16971 -7.776564,-3.4075 -11.487021,-5.85215 -2.512085,-1.65509 -4.055819,-2.9443 -6.719607,-5.6117 -3.815896,-3.82107 -4.79266,-5.10026 -8.200085,-10.73901 -3.12879,-5.17765 -4.551873,-8.24806 -6.4380714,-13.89063 -1.4969592,-4.47815 -3.0542069,-10.42297 -2.797538,-10.67964 0.063594,-0.0636 0.8616906,0.61107 1.7735488,1.49924 2.8260198,2.75261 7.9856246,6.44003 11.4779036,8.20292 2.626973,1.3261 7.762373,3.40763 10.316826,4.18174 2.098054,0.63579 2.491591,0.85143 3.042708,1.66721 1.075963,1.59269 4.234421,4.77765 6.45382,6.50798 2.392596,1.86536 4.652227,3.06698 8.398131,4.46594 4.053951,1.51399 6.450577,1.97358 12.768535,2.44854 4.777773,0.35918 6.318658,0.38254 8.598959,0.13033 5.453486,-0.60316 10.115238,-1.88505 13.834091,-3.80409 1.133074,-0.5847 2.098049,-1.01781 2.144389,-0.96246 0.04634,0.0553 0.953568,1.41031 2.016061,3.01104 2.478645,3.73428 5.459976,7.38858 9.206493,11.28466 0.797979,0.82984 1.35734,1.62507 1.257123,1.78722 -0.338804,0.5482 -3.186016,2.33332 -5.867041,3.67846 -4.632437,2.32423 -11.215896,4.32095 -17.29945,5.24681 -3.674755,0.55926 -15.20852,0.69874 -19.05,0.23037 z m 80.433337,0.12113 c -14.55809,-1.38025 -28.25291,-7.20813 -36.138453,-15.37885 -4.100388,-4.24868 -8.30595,-9.88561 -11.121922,-14.9073 -1.180271,-2.10476 -3.035819,-6.32916 -5.39909,-12.29175 -1.325699,-3.34477 -1.555132,-4.13993 -1.259642,-4.36562 0.198713,-0.15178 1.368756,-1.04292 2.600096,-1.98032 2.886682,-2.19758 6.661764,-5.33414 8.251973,-6.85623 0.687871,-0.6584 1.297654,-1.14474 1.355075,-1.08075 0.05742,0.064 0.796907,1.48556 1.643303,3.15905 1.927811,3.81166 4.741386,8.67209 6.81563,11.77396 3.75196,5.61075 9.558,11.7705 13.63213,14.46261 3.84123,2.53822 6.55468,3.96761 10.22819,5.38801 6.54876,2.53215 10.89299,3.35594 17.72708,3.36158 7.02385,0.006 11.22885,-0.9612 18.91736,-4.35034 3.46813,-1.52878 3.61028,-1.61109 6.48264,-3.75378 6.00912,-4.48262 12.08559,-11.97066 14.15923,-17.44844 0.44921,-1.18666 0.97563,-2.57331 1.16982,-3.08146 l 0.35308,-0.92389 0.45413,1.05619 c 2.60988,6.06986 3.28475,11.5668 2.39364,19.4966 -0.89112,7.92994 -1.19613,8.82954 -4.0844,12.04661 -2.65464,2.95684 -3.53283,3.70841 -7.56633,6.47552 -7.26143,4.98155 -13.98492,7.4034 -24.47396,8.8157 -3.68878,0.49668 -12.68772,0.71017 -16.13958,0.3829 z m 19.31458,-28.1748 c -2.66764,-0.41628 -6.7177,-1.66942 -9.65729,-2.98809 -3.44122,-1.5437 -11.50938,-6.94604 -11.50938,-7.70655 0,-0.24115 4.93726,-4.55573 7.14292,-6.24206 0.94543,-0.72283 2.90111,-2.11635 4.34595,-3.09673 l 2.627,-1.78249 0.81342,0.53649 c 6.37008,4.2014 16.6273,5.34851 24.09675,2.69483 2.63345,-0.93558 4.30944,-1.81435 5.75469,-3.01735 0.69123,-0.57536 1.25677,-0.95731 1.25677,-0.84879 0,0.82939 -1.31121,4.5843 -2.20572,6.31648 -3.08084,5.96598 -10.4888,13.42728 -15.61217,15.72458 -2.05332,0.92071 -3.31025,0.99372 -7.05294,0.40968 z M 37.926026,168.65301 c -4.539654,-0.41083 -7.507646,-1.19358 -12.830193,-3.3837 -4.964381,-2.04274 -9.587604,-4.89773 -13.256724,-8.18648 C 7.1978658,152.92275 5.6883515,150.37046 2.8894513,141.95073 1.448296,137.61541 1.1637944,134.89437 1.157047,125.38156 1.150707,116.44369 1.3858272,113.74916 2.6577046,108.18364 4.9421655,98.187242 13.519448,85.114552 25.402282,73.518508 32.718978,66.378399 39.269919,61.208255 46.277687,57.043189 52.788478,53.1735 59.259618,50.217371 64.915625,48.529056 c 2.829208,-0.844517 13.994972,-4.990487 17.727083,-6.582259 5.23009,-2.230669 7.783162,-2.851057 13.238427,-3.216894 2.976966,-0.199639 3.947692,-0.378864 5.879265,-1.08549 4.19857,-1.535965 6.42274,-1.316229 10.02351,0.990269 0.85276,0.546238 2.52601,1.425896 3.71835,1.954794 3.5729,1.584874 7.01405,3.506771 8.0412,4.491048 0.8166,0.782518 1.00938,1.192586 1.24385,2.645833 0.28636,1.774867 0.27236,2.443814 -0.0679,3.242258 -0.2662,0.624757 -4.44887,4.176534 -7.54863,6.410025 -1.38244,0.996107 -3.10885,2.308113 -3.83645,2.915569 -1.64253,1.3713 -5.46539,3.655416 -6.87808,4.109574 -1.66312,0.534665 -5.2342,0.445219 -7.938592,-0.19884 -2.525462,-0.601447 -7.85383,-1.153792 -10.715625,-1.110795 -1.833731,0.02755 -6.430273,-0.917194 -9.789583,-2.012092 -2.650015,-0.863718 -5.016295,-1.173324 -9.015706,-1.179624 -6.745181,-0.01062 -11.830268,1.480353 -18.558558,5.441484 -5.614674,3.305513 -8.261439,5.316848 -13.67668,10.393209 -8.294968,7.775876 -14.857341,17.910517 -16.940602,26.162315 -1.118674,4.43107 -2.133681,11.86579 -2.132374,15.6192 0.0017,4.76188 0.662003,10.93293 1.461739,13.66025 2.414085,8.23268 8.162098,13.97769 16.196686,16.18823 2.010102,0.55303 2.884458,0.63627 6.680302,0.63595 4.989153,-4.1e-4 7.256292,-0.33119 11.551409,-1.68538 3.1407,-0.99021 8.976166,-3.77389 11.601373,-5.53418 3.930341,-2.63542 9.006202,-6.41241 12.804709,-9.52808 4.444523,-3.64556 8.071624,-7.49258 11.071356,-11.74263 l 1.714541,-2.42918 1.886703,1.37084 c 2.443012,1.77505 5.070974,4.26235 7.198789,6.81347 1.925813,2.30893 3.556313,4.64869 3.556313,5.10329 0,0.49955 -4.817661,6.45561 -10.730895,13.26659 -3.715021,4.27903 -7.379962,7.61882 -13.575784,12.37133 -11.090517,8.50699 -15.732143,10.77474 -25.038113,12.2328 -3.088619,0.48393 -12.646934,0.72734 -16.141682,0.41107 z M 107.94076,58.664516 c 1.51757,-0.825969 1.70711,-1.58345 0.56497,-2.257879 -2.02967,-1.198506 -4.29948,-0.553007 -4.29948,1.222703 0,0.645524 0.17315,1.036207 0.58804,1.326806 0.84062,0.588794 1.67009,0.511914 3.14647,-0.29163 z m 0.43268,-16.756092 c 0.49609,-0.302471 0.85989,-0.742193 0.85989,-1.039328 0,-0.768991 -1.46813,-1.675613 -2.94285,-1.817315 -1.55754,-0.14966 -2.08423,0.207087 -2.08423,1.411728 0,1.757659 2.32949,2.565379 4.16719,1.444915 z m 6.94676,98.371636 c -1.93731,-3.76982 -3.68414,-6.91193 -6.012,-10.81407 -5.6992,-9.55344 -11.766002,-15.32065 -20.681451,-19.66013 -6.2752,-3.05438 -10.89992,-4.32944 -18.010583,-4.96563 -4.952058,-0.44306 -12.398392,-0.0148 -16.286405,0.93658 -3.756449,0.91923 -6.531587,1.87595 -9.122945,3.14511 -2.715769,1.3301 -7.96374,5.17955 -10.321835,7.57119 -2.966433,3.00863 -5.90931,7.99387 -7.680826,13.01133 -0.586619,1.66148 -1.131559,3.19946 -1.210978,3.41774 -0.106506,0.29273 -0.249841,0.19748 -0.546215,-0.36297 -0.908982,-1.71891 -1.46922,-3.92477 -1.822956,-7.17765 -0.709084,-6.52058 -0.415641,-13.26571 0.856669,-19.69153 l 0.441347,-2.22903 3.11804,-3.08379 c 5.382581,-5.32344 12.236126,-9.473419 19.14848,-11.594836 7.303657,-2.241508 10.516793,-2.721172 19.314583,-2.883325 9.869619,-0.181907 16.356684,0.645067 23.283333,2.96817 12.442022,4.172886 19.576022,9.246593 27.137542,19.300261 3.00865,4.00024 4.12036,5.82995 7.32431,12.0547 1.61038,3.1287 3.59377,6.92977 4.40753,8.44682 0.81377,1.51705 1.47958,2.84434 1.47958,2.94953 0,0.10519 -1.33946,1.2376 -2.97657,2.51647 -3.29419,2.57335 -7.68061,6.25099 -9.35256,7.84133 l -1.08434,1.0314 z m -84.403533,-4.01397 c 0,-1.65133 2.673633,-8.25289 4.714325,-11.64031 2.033446,-3.37539 3.438129,-4.91153 6.79505,-7.43097 4.064923,-3.05081 5.072134,-3.4437 8.73125,-3.40589 6.634825,0.0686 12.358695,1.83481 18.912,5.83578 3.087737,1.88515 6.900345,4.82023 6.79067,5.22769 -0.118945,0.44191 -5.374981,4.74534 -9.166212,7.50492 -5.042145,3.67011 -4.479489,3.43035 -5.848173,2.49196 -2.920559,-2.00238 -5.981935,-3.07178 -10.555994,-3.6874 -3.745866,-0.50416 -8.584816,-0.30946 -11.574311,0.46571 -2.763964,0.71669 -6.011408,2.33917 -7.541835,3.76803 -0.691223,0.64535 -1.25677,1.03707 -1.25677,0.87048 z m 172.120143,-2.23051 c -4.83206,-5.05725 -12.85469,-9.49546 -23.59524,-13.05316 -0.87089,-0.28847 -1.46733,-0.82323 -2.894,-2.59473 -2.31058,-2.86904 -3.34637,-3.86139 -5.80299,-5.55965 -2.25072,-1.55593 -6.92715,-3.84601 -9.9175,-4.85668 -4.52424,-1.52909 -7.28284,-1.90526 -13.89062,-1.89415 -4.69775,0.008 -6.68875,0.11982 -8.73125,0.49085 -4.49964,0.81736 -8.66409,2.34169 -11.41647,4.17879 l -1.09771,0.73268 -1.08847,-1.78024 c -2.30915,-3.77671 -4.76127,-6.93837 -9.1561,-11.805458 l -2.53127,-2.803297 1.89478,-1.225729 c 7.28789,-4.714515 16.98229,-7.336975 28.42232,-7.688604 15.75815,-0.484353 28.93438,2.454018 37.08495,8.270146 3.40217,2.427736 7.62252,6.316562 10.10219,9.308632 1.61873,1.95322 6.15936,8.97871 7.57694,11.72341 2.20192,4.26333 7.21567,18.67758 6.96741,20.03092 -0.0614,0.33445 -0.57369,-0.0574 -1.92697,-1.47373 z m 3.81536,-11.23371 c -1.57318,-4.29221 -3.30886,-8.45916 -4.32569,-10.38489 -1.71392,-3.24597 -6.48285,-10.3393 -8.52107,-12.674307 -1.37658,-1.577021 -2.34668,-3.105295 -3.94683,-6.217704 -2.88968,-5.620682 -5.10743,-8.862216 -10.0667,-14.71381 -3.32466,-3.922869 -5.40716,-5.747853 -11.2273,-9.838963 -9.69059,-6.811745 -19.94596,-11.287543 -30.73029,-13.411762 -2.52537,-0.497429 -5.30596,-0.982383 -6.17908,-1.077674 -2.60244,-0.284026 -2.58632,-0.272527 -1.97665,-1.410049 0.30979,-0.57799 0.52144,-1.484612 0.52144,-2.233581 0,-0.693379 0.0298,-1.260606 0.0661,-1.260504 0.93563,0.0026 10.25088,1.494492 12.41864,1.988891 11.31589,2.580816 26.99214,10.419913 35.58441,17.794414 4.77547,4.098651 6.00184,5.292231 9.44083,9.188385 4.60685,5.21927 6.73597,8.012296 9.21541,12.088926 5.15104,8.469254 8.08065,16.410278 9.84004,26.672528 0.4282,2.49766 0.83595,7.14375 0.62695,7.14375 -0.0738,0 -0.4069,-0.74414 -0.74026,-1.65365 z"
       id="path2" /></g></svg>
