<?xml version="1.0" encoding="UTF-8"?>
<!DOCTYPE svg PUBLIC "-//W3C//DTD SVG 1.1//EN" "http://www.w3.org/Graphics/SVG/1.1/DTD/svg11.dtd">
<svg xmlns="http://www.w3.org/2000/svg" version="1.1" width="720px" height="720px" style="shape-rendering:geometricPrecision; text-rendering:geometricPrecision; image-rendering:optimizeQuality; fill-rule:evenodd; clip-rule:evenodd" xmlns:xlink="http://www.w3.org/1999/xlink">
<g><path style="opacity:0.014" fill="#141414" d="M 310.5,0.5 C 310.5,0.166667 310.5,-0.166667 310.5,-0.5C 313.5,-0.5 316.5,-0.5 319.5,-0.5C 319.5,-0.166667 319.5,0.166667 319.5,0.5C 316.5,0.5 313.5,0.5 310.5,0.5 Z"/></g>
<g><path style="opacity:0.998" fill="#0d0d0d" d="M 330.5,-0.5 C 349.833,-0.5 369.167,-0.5 388.5,-0.5C 391.962,0.481638 395.629,0.814971 399.5,0.5C 439.44,5.58731 477.773,16.5873 514.5,33.5C 516.509,35.0652 518.843,36.0652 521.5,36.5C 541.706,47.1884 560.873,59.5217 579,73.5C 579.718,72.5494 580.551,72.3828 581.5,73C 581.133,74.7566 581.966,76.2566 584,77.5C 584.718,76.5494 585.551,76.3828 586.5,77C 586.689,79.295 588.023,81.295 590.5,83C 592.96,84.4578 595.127,86.2911 597,88.5C 597.718,87.5494 598.551,87.3828 599.5,88C 601.647,92.3531 604.98,96.1864 609.5,99.5C 609.5,100.167 609.833,100.5 610.5,100.5C 610.5,101.167 610.833,101.5 611.5,101.5C 611.5,102.167 611.833,102.5 612.5,102.5C 612.5,103.167 612.833,103.5 613.5,103.5C 613.5,104.167 613.833,104.5 614.5,104.5C 614.5,105.167 614.833,105.5 615.5,105.5C 615.5,106.167 615.833,106.5 616.5,106.5C 616.5,107.167 616.833,107.5 617.5,107.5C 617.5,108.167 617.833,108.5 618.5,108.5C 618.5,109.167 618.833,109.5 619.5,109.5C 619.5,110.167 619.833,110.5 620.5,110.5C 623.814,115.02 627.647,118.353 632,120.5C 631.377,122.985 632.377,124.985 635,126.5C 636.147,125.542 637.147,125.875 638,127.5C 638.617,128.449 638.451,129.282 637.5,130C 638.743,132.034 640.243,132.867 642,132.5C 642.617,133.449 642.451,134.282 641.5,135C 642.743,137.034 644.243,137.867 646,137.5C 646.617,138.449 646.451,139.282 645.5,140C 646.552,141.119 647.719,141.619 649,141.5C 649.617,142.449 649.451,143.282 648.5,144C 649.552,145.119 650.719,145.619 652,145.5C 652.617,146.449 652.451,147.282 651.5,148C 652.552,149.119 653.719,149.619 655,149.5C 661,158.833 667,168.167 673,177.5C 673,178.833 673,180.167 673,181.5C 677.211,183.558 679.211,187.225 679,192.5C 679.667,193.833 680.333,193.833 681,192.5C 683.215,195.821 685.048,199.321 686.5,203C 685.198,204.923 685.365,206.757 687,208.5C 687.333,207.833 687.667,207.167 688,206.5C 691.792,212.886 694.126,219.552 695,226.5C 695.333,225.833 695.667,225.167 696,224.5C 696.595,225.899 696.428,227.232 695.5,228.5C 696.183,231.461 697.016,231.795 698,229.5C 698.483,230.448 698.649,231.448 698.5,232.5C 697.167,233.167 697.167,233.833 698.5,234.5C 698.687,236.564 699.187,238.564 700,240.5C 700.667,241.833 701.333,241.833 702,240.5C 702.496,242.035 702.33,243.535 701.5,245C 702,246.5 702.5,248 703,249.5C 703.667,250.833 704.333,250.833 705,249.5C 705.496,251.035 705.33,252.535 704.5,254C 705,255.5 705.5,257 706,258.5C 706.333,257.5 706.667,256.5 707,255.5C 708.661,259.108 708.995,262.775 708,266.5C 708.667,270.5 709.333,270.5 710,266.5C 711.333,271.833 712.667,277.167 714,282.5C 714.499,285.022 714.332,287.522 713.5,290C 715.244,299.966 716.911,309.799 718.5,319.5C 718.185,323.371 718.518,327.038 719.5,330.5C 719.5,349.167 719.5,367.833 719.5,386.5C 718.518,389.962 718.185,393.629 718.5,397.5C 717.523,400.287 717.19,403.287 717.5,406.5C 716.042,410.273 715.542,414.273 716,418.5C 716.333,416.833 716.667,415.167 717,413.5C 717.567,417.417 717.067,421.083 715.5,424.5C 715.167,417.833 714.833,417.833 714.5,424.5C 713.434,426.829 713.434,429.329 714.5,432C 714.198,434.4 713.532,436.566 712.5,438.5C 712.167,433.167 711.833,433.167 711.5,438.5C 710.566,439.568 710.232,440.901 710.5,442.5C 709.566,443.568 709.232,444.901 709.5,446.5C 708.566,447.568 708.232,448.901 708.5,450.5C 707.167,451.5 707.167,452.5 708.5,453.5C 708.59,456.152 707.924,458.485 706.5,460.5C 706.167,456.5 705.833,456.5 705.5,460.5C 704.167,461.5 704.167,462.5 705.5,463.5C 705.737,464.791 705.404,465.791 704.5,466.5C 704.167,465.167 703.833,465.167 703.5,466.5C 702.596,467.209 702.263,468.209 702.5,469.5C 701.167,470.5 701.167,471.5 702.5,472.5C 702.737,473.791 702.404,474.791 701.5,475.5C 701.167,474.167 700.833,474.167 700.5,475.5C 699.596,476.209 699.263,477.209 699.5,478.5C 698.662,478.842 698.328,479.508 698.5,480.5C 697.167,481.5 697.167,482.5 698.5,483.5C 697.737,487.137 696.403,490.47 694.5,493.5C 694.167,490.833 693.833,490.833 693.5,493.5C 692.167,494.167 692.167,494.833 693.5,495.5C 692.618,499.593 690.951,503.26 688.5,506.5C 688.167,503.833 687.833,503.833 687.5,506.5C 686.662,506.842 686.328,507.508 686.5,508.5C 685.662,508.842 685.328,509.508 685.5,510.5C 684.662,510.842 684.328,511.508 684.5,512.5C 683.662,512.842 683.328,513.508 683.5,514.5C 682.662,514.842 682.328,515.508 682.5,516.5C 681.167,517.167 681.167,517.833 682.5,518.5C 681.258,522.655 679.258,526.322 676.5,529.5C 676.167,528.167 675.833,528.167 675.5,529.5C 674.167,530.167 674.167,530.833 675.5,531.5C 674.617,534.704 672.95,537.371 670.5,539.5C 670.167,538.167 669.833,538.167 669.5,539.5C 668.167,540.167 668.167,540.833 669.5,541.5C 664.572,550.361 658.906,558.695 652.5,566.5C 652.167,565.167 651.833,565.167 651.5,566.5C 650.167,566.833 650.167,567.167 651.5,567.5C 651.573,569.027 650.906,570.027 649.5,570.5C 649.167,569.167 648.833,569.167 648.5,570.5C 647.167,570.833 647.167,571.167 648.5,571.5C 648.262,573.404 647.262,574.738 645.5,575.5C 645.167,574.167 644.833,574.167 644.5,575.5C 643.833,575.5 643.5,575.833 643.5,576.5C 642.167,576.833 642.167,577.167 643.5,577.5C 643.573,579.027 642.906,580.027 641.5,580.5C 641.167,579.167 640.833,579.167 640.5,580.5C 639.833,580.5 639.5,580.833 639.5,581.5C 638.167,581.833 638.167,582.167 639.5,582.5C 639.262,584.404 638.262,585.738 636.5,586.5C 636.167,585.167 635.833,585.167 635.5,586.5C 634.833,586.5 634.5,586.833 634.5,587.5C 633.833,587.5 633.5,587.833 633.5,588.5C 632.167,588.833 632.167,589.167 633.5,589.5C 632.581,592.089 630.914,594.089 628.5,595.5C 628.167,594.167 627.833,594.167 627.5,595.5C 626.833,595.5 626.5,595.833 626.5,596.5C 625.833,596.5 625.5,596.833 625.5,597.5C 624.833,597.5 624.5,597.833 624.5,598.5C 623.833,598.5 623.5,598.833 623.5,599.5C 622.833,599.5 622.5,599.833 622.5,600.5C 621.833,600.5 621.5,600.833 621.5,601.5C 620.833,601.5 620.5,601.833 620.5,602.5C 619.833,602.5 619.5,602.833 619.5,603.5C 618.833,603.5 618.5,603.833 618.5,604.5C 617.833,604.5 617.5,604.833 617.5,605.5C 616.833,605.5 616.5,605.833 616.5,606.5C 615.833,606.5 615.5,606.833 615.5,607.5C 614.833,607.5 614.5,607.833 614.5,608.5C 613.833,608.5 613.5,608.833 613.5,609.5C 612.833,609.5 612.5,609.833 612.5,610.5C 611.833,610.5 611.5,610.833 611.5,611.5C 610.833,611.5 610.5,611.833 610.5,612.5C 609.833,612.5 609.5,612.833 609.5,613.5C 608.833,613.5 608.5,613.833 608.5,614.5C 607.833,614.5 607.5,614.833 607.5,615.5C 606.508,615.328 605.842,615.662 605.5,616.5C 604.833,616.5 604.5,616.833 604.5,617.5C 603.833,617.5 603.5,617.833 603.5,618.5C 602.833,618.5 602.5,618.833 602.5,619.5C 601.833,619.5 601.5,619.833 601.5,620.5C 600.833,620.5 600.5,620.833 600.5,621.5C 599.833,621.5 599.5,621.833 599.5,622.5C 598.833,622.5 598.5,622.833 598.5,623.5C 597.508,623.328 596.842,623.662 596.5,624.5C 595.833,624.5 595.5,624.833 595.5,625.5C 594.833,625.5 594.5,625.833 594.5,626.5C 593.833,626.5 593.5,626.833 593.5,627.5C 592.833,627.5 592.5,627.833 592.5,628.5C 591.508,628.328 590.842,628.662 590.5,629.5C 589.833,629.5 589.5,629.833 589.5,630.5C 588.833,630.5 588.5,630.833 588.5,631.5C 587.833,631.5 587.5,631.833 587.5,632.5C 586.167,632.833 586.167,633.167 587.5,633.5C 587.027,634.906 586.027,635.573 584.5,635.5C 584.167,634.167 583.833,634.167 583.5,635.5C 582.167,635.833 582.167,636.167 583.5,636.5C 583.027,637.906 582.027,638.573 580.5,638.5C 580.167,637.167 579.833,637.167 579.5,638.5C 578.167,638.833 578.167,639.167 579.5,639.5C 579.027,640.906 578.027,641.573 576.5,641.5C 576.167,640.167 575.833,640.167 575.5,641.5C 574.833,641.5 574.5,641.833 574.5,642.5C 573.508,642.328 572.842,642.662 572.5,643.5C 571.833,643.5 571.5,643.833 571.5,644.5C 570.508,644.328 569.842,644.662 569.5,645.5C 568.833,645.5 568.5,645.833 568.5,646.5C 567.508,646.328 566.842,646.662 566.5,647.5C 565.833,647.5 565.5,647.833 565.5,648.5C 564.508,648.328 563.842,648.662 563.5,649.5C 562.833,649.5 562.5,649.833 562.5,650.5C 561.508,650.328 560.842,650.662 560.5,651.5C 559.833,651.5 559.5,651.833 559.5,652.5C 558.508,652.328 557.842,652.662 557.5,653.5C 556.833,653.5 556.5,653.833 556.5,654.5C 555.508,654.328 554.842,654.662 554.5,655.5C 553.167,655.833 553.167,656.167 554.5,656.5C 554.158,657.338 553.492,657.672 552.5,657.5C 552.167,656.167 551.833,656.167 551.5,657.5C 550.508,657.328 549.842,657.662 549.5,658.5C 548.833,658.5 548.5,658.833 548.5,659.5C 547.508,659.328 546.842,659.662 546.5,660.5C 545.508,660.328 544.842,660.662 544.5,661.5C 543.508,661.328 542.842,661.662 542.5,662.5C 541.833,662.5 541.5,662.833 541.5,663.5C 540.508,663.328 539.842,663.662 539.5,664.5C 538.508,664.328 537.842,664.662 537.5,665.5C 536.508,665.328 535.842,665.662 535.5,666.5C 534.833,666.5 534.5,666.833 534.5,667.5C 533.508,667.328 532.842,667.662 532.5,668.5C 531.508,668.328 530.842,668.662 530.5,669.5C 529.508,669.328 528.842,669.662 528.5,670.5C 527.508,670.328 526.842,670.662 526.5,671.5C 525.508,671.328 524.842,671.662 524.5,672.5C 523.508,672.328 522.842,672.662 522.5,673.5C 521.508,673.328 520.842,673.662 520.5,674.5C 519.508,674.328 518.842,674.662 518.5,675.5C 517.209,675.263 516.209,675.596 515.5,676.5C 514.508,676.328 513.842,676.662 513.5,677.5C 512.508,677.328 511.842,677.662 511.5,678.5C 510.508,678.328 509.842,678.662 509.5,679.5C 508.508,679.328 507.842,679.662 507.5,680.5C 506.209,680.263 505.209,680.596 504.5,681.5C 503.508,681.328 502.842,681.662 502.5,682.5C 501.209,682.263 500.209,682.596 499.5,683.5C 498.508,683.328 497.842,683.662 497.5,684.5C 496.508,684.328 495.842,684.662 495.5,685.5C 494.209,685.263 493.209,685.596 492.5,686.5C 491.209,686.263 490.209,686.596 489.5,687.5C 488.508,687.328 487.842,687.662 487.5,688.5C 486.209,688.263 485.209,688.596 484.5,689.5C 483.209,689.263 482.209,689.596 481.5,690.5C 480.209,690.263 479.209,690.596 478.5,691.5C 477.209,691.263 476.209,691.596 475.5,692.5C 474.209,692.263 473.209,692.596 472.5,693.5C 471.209,693.263 470.209,693.596 469.5,694.5C 466.848,694.41 464.515,695.076 462.5,696.5C 460.901,696.232 459.568,696.566 458.5,697.5C 457.209,697.263 456.209,697.596 455.5,698.5C 453.901,698.232 452.568,698.566 451.5,699.5C 449.901,699.232 448.568,699.566 447.5,700.5C 444.219,700.42 441.219,701.087 438.5,702.5C 433.167,702.833 433.167,703.167 438.5,703.5C 435.608,706.271 432.942,709.271 430.5,712.5C 430.167,711.167 429.833,711.167 429.5,712.5C 428.833,712.5 428.5,712.833 428.5,713.5C 427.167,713.833 427.167,714.167 428.5,714.5C 428.027,715.906 427.027,716.573 425.5,716.5C 425.167,715.167 424.833,715.167 424.5,716.5C 423.508,716.328 422.842,716.662 422.5,717.5C 421.508,717.328 420.842,717.662 420.5,718.5C 419.508,718.328 418.842,718.662 418.5,719.5C 412.167,719.5 405.833,719.5 399.5,719.5C 397.393,718.532 395.059,718.198 392.5,718.5C 377.129,714.244 361.463,710.744 345.5,708C 329.815,707.758 314.148,708.258 298.5,709.5C 293.255,707.865 287.922,706.198 282.5,704.5C 274.999,701.052 266.999,699.386 258.5,699.5C 250.647,696.66 242.647,693.994 234.5,691.5C 223.224,686.867 211.89,682.201 200.5,677.5C 199.486,676.326 198.153,675.66 196.5,675.5C 196.158,674.662 195.492,674.328 194.5,674.5C 192.664,672.412 190.331,671.079 187.5,670.5C 162.91,657.088 140.077,641.088 119,622.5C 117.129,623.668 115.629,623.168 114.5,621C 114.833,620.667 115.167,620.333 115.5,620C 111.298,615.63 106.964,611.463 102.5,607.5C 102.5,606.833 102.167,606.5 101.5,606.5C 101.167,605.5 100.5,604.833 99.5,604.5C 99.5,603.833 99.1667,603.5 98.5,603.5C 94.8549,598.652 90.6882,594.985 86,592.5C 85.3828,591.551 85.5494,590.718 86.5,590C 84.635,587.369 82.4684,585.869 80,585.5C 79.3828,584.551 79.5494,583.718 80.5,583C 78.8156,581.26 76.9823,580.094 75,579.5C 74.3828,578.551 74.5494,577.718 75.5,577C 73.8619,576.758 72.3619,575.925 71,574.5C 70.3828,573.551 70.5494,572.718 71.5,572C 70.4479,570.881 69.2812,570.381 68,570.5C 67.3828,569.551 67.5494,568.718 68.5,568C 67.4479,566.881 66.2812,566.381 65,566.5C 51.6013,548.199 39.6013,527.866 29,505.5C 28.4054,504.101 28.5721,502.768 29.5,501.5C 28.8169,498.539 27.9836,498.205 27,500.5C 25.3648,498.757 25.1981,496.923 26.5,495C 25.8037,493.107 24.9704,491.274 24,489.5C 23.6667,490.167 23.3333,490.833 23,491.5C 22.3054,489.278 21.4721,487.111 20.5,485C 21.9526,483.287 21.7859,481.787 20,480.5C 19.6667,480.833 19.3333,481.167 19,481.5C 17.6017,479.186 17.435,476.853 18.5,474.5C 18.0057,472.974 17.339,471.641 16.5,470.5C 16.1667,466.5 15.8333,466.5 15.5,470.5C 14.5657,469.228 13.899,467.728 13.5,466C 14.6601,464.003 14.6601,462.169 13.5,460.5C 13.313,458.436 12.813,456.436 12,454.5C 11.6667,455.5 11.3333,456.5 11,457.5C 10.4242,455.623 10.5909,453.789 11.5,452C 11,450.5 10.5,449 10,447.5C 9.66667,448.5 9.33333,449.5 9,450.5C 8.57786,448.645 8.07786,446.811 7.5,445C 7.90536,444.055 8.57203,443.388 9.5,443C 8.80945,441.933 8.30945,440.766 8,439.5C 7.66667,440.5 7.33333,441.5 7,442.5C 6.50221,440.473 6.66887,438.473 7.5,436.5C 7.07113,433.971 6.40446,431.638 5.5,429.5C 5.5,428.167 5.5,426.833 5.5,425.5C 5.67158,424.508 5.33825,423.842 4.5,423.5C 3.99692,418.5 3.66359,418.833 3.5,424.5C 1.93336,421.083 1.43336,417.417 2,413.5C 2.33333,415.167 2.66667,416.833 3,418.5C 3.45813,414.273 2.95813,410.273 1.5,406.5C 1.5,403.833 1.5,401.167 1.5,398.5C 1.67158,397.508 1.33825,396.842 0.5,396.5C 0.810002,393.287 0.476669,390.287 -0.5,387.5C -0.5,368.5 -0.5,349.5 -0.5,330.5C 0.481638,327.038 0.814971,323.371 0.5,319.5C 2.08945,309.799 3.75612,299.966 5.5,290C 5.16667,288.333 4.83333,286.667 4.5,285C 5.92127,278.815 7.42127,272.648 9,266.5C 9.66667,270.5 10.3333,270.5 11,266.5C 10.0052,262.775 10.3385,259.108 12,255.5C 12.3333,256.5 12.6667,257.5 13,258.5C 14.4973,256.041 14.664,253.541 13.5,251C 13.6667,250.5 13.8333,250 14,249.5C 14.6667,250.833 15.3333,250.833 16,249.5C 16.5,248 17,246.5 17.5,245C 16.6705,243.535 16.5038,242.035 17,240.5C 17.6667,241.833 18.3333,241.833 19,240.5C 20.7803,236.889 21.447,233.222 21,229.5C 21.9836,231.795 22.8169,231.461 23.5,228.5C 22.5721,227.232 22.4054,225.899 23,224.5C 23.9836,226.795 24.8169,226.461 25.5,223.5C 25.0688,222.707 24.7355,221.873 24.5,221C 26.2551,215.989 28.4217,211.156 31,206.5C 31.9836,208.795 32.8169,208.461 33.5,205.5C 32.5721,204.232 32.4054,202.899 33,201.5C 41.9504,184.417 52.2837,167.084 64,149.5C 65.2812,149.619 66.4479,149.119 67.5,148C 66.5494,147.282 66.3828,146.449 67,145.5C 68.2812,145.619 69.4479,145.119 70.5,144C 70.0426,143.586 69.7093,143.086 69.5,142.5C 70.5922,141.169 71.9255,140.336 73.5,140C 72.5494,139.282 72.3828,138.449 73,137.5C 74.7566,137.867 76.2566,137.034 77.5,135C 76.5494,134.282 76.3828,133.449 77,132.5C 78.7566,132.867 80.2566,132.034 81.5,130C 80.5494,129.282 80.3828,128.449 81,127.5C 83.4684,127.131 85.635,125.631 87.5,123C 86.6894,120.709 87.5228,118.875 90,117.5C 90.3333,117.833 90.6667,118.167 91,118.5C 93.705,115.964 96.205,113.297 98.5,110.5C 99.1667,110.5 99.5,110.167 99.5,109.5C 100.167,109.5 100.5,109.167 100.5,108.5C 101.167,108.5 101.5,108.167 101.5,107.5C 102.167,107.5 102.5,107.167 102.5,106.5C 103.167,106.5 103.5,106.167 103.5,105.5C 104.167,105.5 104.5,105.167 104.5,104.5C 105.167,104.5 105.5,104.167 105.5,103.5C 106.167,103.5 106.5,103.167 106.5,102.5C 107.167,102.5 107.5,102.167 107.5,101.5C 108.167,101.5 108.5,101.167 108.5,100.5C 109.167,100.5 109.5,100.167 109.5,99.5C 166.023,45.2765 236.023,12.2765 319.5,0.5C 323.371,0.814971 327.038,0.481638 330.5,-0.5 Z M 388.5,70.5 C 393.731,70.4443 398.731,71.111 403.5,72.5C 401.143,72.3367 398.81,72.5034 396.5,73C 405.224,74.1762 413.891,75.6762 422.5,77.5C 423.416,77.4573 424.083,77.1239 424.5,76.5C 427.781,76.4203 430.781,77.087 433.5,78.5C 432.127,78.3433 430.793,78.51 429.5,79C 436.022,80.7556 442.522,82.5889 449,84.5C 449.765,84.4301 450.265,84.0967 450.5,83.5C 454.537,84.0653 458.203,85.3987 461.5,87.5C 458.903,87.7208 458.903,88.2208 461.5,89C 467.615,91.224 473.615,93.724 479.5,96.5C 480.107,96.3764 480.44,96.0431 480.5,95.5C 482.553,95.4021 484.22,96.0687 485.5,97.5C 484.761,97.369 484.094,97.5357 483.5,98C 496.21,104.35 508.543,111.184 520.5,118.5C 520.842,119.338 521.508,119.672 522.5,119.5C 527.858,124.186 533.525,128.519 539.5,132.5C 539.973,133.906 540.973,134.573 542.5,134.5C 542.833,135.5 543.5,136.167 544.5,136.5C 545.262,138.262 546.596,139.262 548.5,139.5C 549.5,141.167 550.833,142.5 552.5,143.5C 553.262,145.262 554.596,146.262 556.5,146.5C 561.5,152.167 566.833,157.5 572.5,162.5C 573.08,164.749 574.413,166.415 576.5,167.5C 577.5,169.167 578.833,170.5 580.5,171.5C 580.427,173.027 581.094,174.027 582.5,174.5C 582.833,175.5 583.5,176.167 584.5,176.5C 584.427,178.027 585.094,179.027 586.5,179.5C 586.833,180.5 587.5,181.167 588.5,181.5C 588.427,183.027 589.094,184.027 590.5,184.5C 590.5,185.167 590.833,185.5 591.5,185.5C 591.427,187.027 592.094,188.027 593.5,188.5C 593.738,190.404 594.738,191.738 596.5,192.5C 596.427,194.027 597.094,195.027 598.5,195.5C 598.427,197.027 599.094,198.027 600.5,198.5C 600.427,200.027 601.094,201.027 602.5,201.5C 602.427,203.027 603.094,204.027 604.5,204.5C 604.75,206.674 605.75,208.341 607.5,209.5C 607.75,211.674 608.75,213.341 610.5,214.5C 610.328,215.492 610.662,216.158 611.5,216.5C 611.75,218.674 612.75,220.341 614.5,221.5C 614.229,223.38 614.896,224.713 616.5,225.5C 616.992,227.819 617.992,229.819 619.5,231.5C 619.66,233.153 620.326,234.486 621.5,235.5C 621.707,238.241 622.707,240.574 624.5,242.5C 624.66,244.153 625.326,245.486 626.5,246.5C 626.263,247.791 626.596,248.791 627.5,249.5C 627.263,250.791 627.596,251.791 628.5,252.5C 628.935,255.157 629.935,257.491 631.5,259.5C 631.263,260.791 631.596,261.791 632.5,262.5C 632.263,263.791 632.596,264.791 633.5,265.5C 633.263,266.791 633.596,267.791 634.5,268.5C 634.263,269.791 634.596,270.791 635.5,271.5C 635.232,273.099 635.566,274.432 636.5,275.5C 636.263,276.791 636.596,277.791 637.5,278.5C 637.232,280.099 637.566,281.432 638.5,282.5C 638.838,284.854 639.338,287.187 640,289.5C 640.49,288.207 640.657,286.873 640.5,285.5C 641.933,287.914 642.433,290.581 642,293.5C 641.667,292.5 641.333,291.5 641,290.5C 640.567,293.419 641.067,296.086 642.5,298.5C 642.216,300.415 642.549,302.081 643.5,303.5C 643.539,307.733 644.205,311.733 645.5,315.5C 645.833,323.5 646.167,323.5 646.5,315.5C 647.889,320.269 648.556,325.269 648.5,330.5C 650.462,344.473 650.795,358.473 649.5,372.5C 649.666,363.827 649.5,355.16 649,346.5C 648.641,357.674 648.141,368.84 647.5,380C 647.503,382.69 647.836,385.19 648.5,387.5C 648.55,392.552 648.05,397.552 647,402.5C 646.667,400.5 646.333,398.5 646,396.5C 645.077,400.79 644.577,405.123 644.5,409.5C 644.833,409.5 645.167,409.5 645.5,409.5C 645.678,413.122 645.011,416.456 643.5,419.5C 643.167,414.167 642.833,414.167 642.5,419.5C 641.549,420.919 641.216,422.585 641.5,424.5C 640.566,425.568 640.232,426.901 640.5,428.5C 638.96,430.838 638.294,433.505 638.5,436.5C 637.596,437.209 637.263,438.209 637.5,439.5C 636.596,440.209 636.263,441.209 636.5,442.5C 635.566,443.568 635.232,444.901 635.5,446.5C 634.596,447.209 634.263,448.209 634.5,449.5C 633.596,450.209 633.263,451.209 633.5,452.5C 632.596,453.209 632.263,454.209 632.5,455.5C 631.167,456.167 631.167,456.833 632.5,457.5C 631.449,458.222 630.782,459.222 630.5,460.5C 628.98,462.89 627.98,465.557 627.5,468.5C 625.935,470.509 624.935,472.843 624.5,475.5C 622.043,478.751 620.376,482.418 619.5,486.5C 618.662,486.842 618.328,487.508 618.5,488.5C 616.896,489.287 616.229,490.62 616.5,492.5C 614.412,494.336 613.079,496.669 612.5,499.5C 611.662,499.842 611.328,500.508 611.5,501.5C 609.75,502.659 608.75,504.326 608.5,506.5C 606.75,507.659 605.75,509.326 605.5,511.5C 604.094,511.973 603.427,512.973 603.5,514.5C 602.094,514.973 601.427,515.973 601.5,517.5C 600.094,517.973 599.427,518.973 599.5,520.5C 598.094,520.973 597.427,521.973 597.5,523.5C 596.094,523.973 595.427,524.973 595.5,526.5C 594.833,526.5 594.5,526.833 594.5,527.5C 593.094,527.973 592.427,528.973 592.5,530.5C 591.833,530.5 591.5,530.833 591.5,531.5C 590.094,531.973 589.427,532.973 589.5,534.5C 588.833,534.5 588.5,534.833 588.5,535.5C 587.094,535.973 586.427,536.973 586.5,538.5C 585.5,538.833 584.833,539.5 584.5,540.5C 583.094,540.973 582.427,541.973 582.5,543.5C 580.833,544.5 579.5,545.833 578.5,547.5C 576.738,548.262 575.738,549.596 575.5,551.5C 568.167,558.167 561.167,565.167 554.5,572.5C 552.596,572.738 551.262,573.738 550.5,575.5C 549.167,576.167 548.167,577.167 547.5,578.5C 545.973,578.427 544.973,579.094 544.5,580.5C 541.94,582.273 539.607,584.273 537.5,586.5C 535.973,586.427 534.973,587.094 534.5,588.5C 512.014,604.749 487.681,617.915 461.5,628C 462.094,628.464 462.761,628.631 463.5,628.5C 462.22,629.931 460.553,630.598 458.5,630.5C 458.5,630.167 458.5,629.833 458.5,629.5C 457.1,628.9 456.1,627.9 455.5,626.5C 455.573,624.973 454.906,623.973 453.5,623.5C 452.833,620.833 451.167,619.167 448.5,618.5C 444.334,613.9 439.334,611.9 433.5,612.5C 424.833,611.167 416.167,611.167 407.5,612.5C 406.903,611.861 406.07,611.528 405,611.5C 402.5,612 400,612.5 397.5,613C 399.134,613.494 400.801,613.66 402.5,613.5C 398.148,616.009 393.814,616.009 389.5,613.5C 390.873,613.657 392.207,613.49 393.5,613C 387.178,611.058 380.844,609.225 374.5,607.5C 373.432,606.566 372.099,606.232 370.5,606.5C 363.833,605.167 357.167,605.167 350.5,606.5C 342.5,606.833 342.5,607.167 350.5,607.5C 346.409,608.895 342.076,609.562 337.5,609.5C 332.428,611.246 327.095,612.246 321.5,612.5C 320.726,611.853 319.726,611.52 318.5,611.5C 313.648,612.269 308.981,613.269 304.5,614.5C 302.265,614.205 300.265,614.539 298.5,615.5C 296.585,615.216 294.919,615.549 293.5,616.5C 287.464,617.006 281.464,617.839 275.5,619C 277.473,619.495 279.473,619.662 281.5,619.5C 276.75,621.031 271.75,621.698 266.5,621.5C 261.36,620.512 256.026,620.179 250.5,620.5C 233.54,613.853 217.206,605.853 201.5,596.5C 201.158,595.662 200.492,595.328 199.5,595.5C 190.19,588.531 180.857,581.531 171.5,574.5C 171.027,573.094 170.027,572.427 168.5,572.5C 167.5,570.833 166.167,569.5 164.5,568.5C 163.738,566.738 162.404,565.738 160.5,565.5C 154.833,559.167 148.833,553.167 142.5,547.5C 142.262,545.596 141.262,544.262 139.5,543.5C 138.833,542.167 137.833,541.167 136.5,540.5C 136.262,538.596 135.262,537.262 133.5,536.5C 133.167,535.5 132.5,534.833 131.5,534.5C 131.573,532.973 130.906,531.973 129.5,531.5C 129.5,530.833 129.167,530.5 128.5,530.5C 128.573,528.973 127.906,527.973 126.5,527.5C 126.167,526.5 125.5,525.833 124.5,525.5C 124.573,523.973 123.906,522.973 122.5,522.5C 122.573,520.973 121.906,519.973 120.5,519.5C 120.573,517.973 119.906,516.973 118.5,516.5C 118.5,515.833 118.167,515.5 117.5,515.5C 117.672,514.508 117.338,513.842 116.5,513.5C 116.573,511.973 115.906,510.973 114.5,510.5C 114.573,508.973 113.906,507.973 112.5,507.5C 112.25,505.326 111.25,503.659 109.5,502.5C 109.25,500.326 108.25,498.659 106.5,497.5C 106.672,496.508 106.338,495.842 105.5,495.5C 104.921,492.669 103.588,490.336 101.5,488.5C 101.771,486.62 101.104,485.287 99.5,484.5C 99.6716,483.508 99.3382,482.842 98.5,482.5C 97.6236,478.418 95.9569,474.751 93.5,471.5C 93.2041,469.597 92.5375,467.93 91.5,466.5C 91.6716,465.508 91.3382,464.842 90.5,464.5C 90.5979,462.447 89.9313,460.78 88.5,459.5C 88.7373,458.209 88.404,457.209 87.5,456.5C 87.7373,455.209 87.404,454.209 86.5,453.5C 86.2671,450.458 85.2671,447.792 83.5,445.5C 83.7678,443.901 83.4345,442.568 82.5,441.5C 82.7373,440.209 82.404,439.209 81.5,438.5C 81.5905,435.848 80.9238,433.515 79.5,431.5C 79.7678,429.901 79.4345,428.568 78.5,427.5C 78.7678,425.901 78.4345,424.568 77.5,423.5C 77.7845,421.585 77.4511,419.919 76.5,418.5C 76.1667,413.167 75.8333,413.167 75.5,418.5C 73.9886,415.456 73.322,412.122 73.5,408.5C 74.1471,407.726 74.4805,406.726 74.5,405.5C 74,402.5 73.5,399.5 73,396.5C 72.5045,398.473 72.3379,400.473 72.5,402.5C 70.9216,397.417 70.2549,392.084 70.5,386.5C 71.1633,384.359 71.4966,382.025 71.5,379.5C 70.8464,368.508 70.3464,357.508 70,346.5C 69.5002,355.16 69.3336,363.827 69.5,372.5C 68.2045,358.473 68.5379,344.473 70.5,330.5C 70.4443,325.269 71.111,320.269 72.5,315.5C 72.8333,323.5 73.1667,323.5 73.5,315.5C 74.7947,311.733 75.4613,307.733 75.5,303.5C 76.4511,302.081 76.7845,300.415 76.5,298.5C 77.9326,296.086 78.4326,293.419 78,290.5C 77.6667,291.5 77.3333,292.5 77,293.5C 76.5674,290.581 77.0674,287.914 78.5,285.5C 78.3433,286.873 78.51,288.207 79,289.5C 79.662,287.187 80.162,284.854 80.5,282.5C 81.4345,281.432 81.7678,280.099 81.5,278.5C 82.404,277.791 82.7373,276.791 82.5,275.5C 83.4345,274.432 83.7678,273.099 83.5,271.5C 84.404,270.791 84.7373,269.791 84.5,268.5C 85.404,267.791 85.7373,266.791 85.5,265.5C 86.404,264.791 86.7373,263.791 86.5,262.5C 87.404,261.791 87.7373,260.791 87.5,259.5C 89.0652,257.491 90.0652,255.157 90.5,252.5C 91.404,251.791 91.7373,250.791 91.5,249.5C 92.404,248.791 92.7373,247.791 92.5,246.5C 93.6737,245.486 94.3404,244.153 94.5,242.5C 96.2927,240.574 97.2927,238.241 97.5,235.5C 98.6737,234.486 99.3404,233.153 99.5,231.5C 101.008,229.819 102.008,227.819 102.5,225.5C 104.104,224.713 104.771,223.38 104.5,221.5C 106.25,220.341 107.25,218.674 107.5,216.5C 108.338,216.158 108.672,215.492 108.5,214.5C 110.25,213.341 111.25,211.674 111.5,209.5C 113.25,208.341 114.25,206.674 114.5,204.5C 115.906,204.027 116.573,203.027 116.5,201.5C 117.906,201.027 118.573,200.027 118.5,198.5C 119.906,198.027 120.573,197.027 120.5,195.5C 121.906,195.027 122.573,194.027 122.5,192.5C 124.262,191.738 125.262,190.404 125.5,188.5C 126.906,188.027 127.573,187.027 127.5,185.5C 128.167,185.5 128.5,185.167 128.5,184.5C 129.906,184.027 130.573,183.027 130.5,181.5C 131.5,181.167 132.167,180.5 132.5,179.5C 133.906,179.027 134.573,178.027 134.5,176.5C 135.5,176.167 136.167,175.5 136.5,174.5C 137.906,174.027 138.573,173.027 138.5,171.5C 140.167,170.5 141.5,169.167 142.5,167.5C 144.587,166.415 145.92,164.749 146.5,162.5C 152.167,157.5 157.5,152.167 162.5,146.5C 164.404,146.262 165.738,145.262 166.5,143.5C 168.167,142.5 169.5,141.167 170.5,139.5C 172.404,139.262 173.738,138.262 174.5,136.5C 175.5,136.167 176.167,135.5 176.5,134.5C 178.027,134.573 179.027,133.906 179.5,132.5C 185.475,128.519 191.142,124.186 196.5,119.5C 197.492,119.672 198.158,119.338 198.5,118.5C 210.457,111.184 222.79,104.35 235.5,98C 234.906,97.5357 234.239,97.369 233.5,97.5C 234.78,96.0687 236.447,95.4021 238.5,95.5C 238.56,96.0431 238.893,96.3764 239.5,96.5C 246.051,93.3911 252.718,90.5577 259.5,88C 258.906,87.5357 258.239,87.369 257.5,87.5C 260.797,85.3987 264.463,84.0653 268.5,83.5C 268.735,84.0967 269.235,84.4301 270,84.5C 276.478,82.5889 282.978,80.7556 289.5,79C 288.207,78.51 286.873,78.3433 285.5,78.5C 288.219,77.087 291.219,76.4203 294.5,76.5C 294.917,77.1239 295.584,77.4573 296.5,77.5C 305.109,75.6762 313.776,74.1762 322.5,73C 320.19,72.5034 317.857,72.3367 315.5,72.5C 320.269,71.111 325.269,70.4443 330.5,70.5C 349.833,67.8333 369.167,67.8333 388.5,70.5 Z M 350.5,607.5 C 350.5,607.167 350.5,606.833 350.5,606.5C 357.167,606.5 363.833,606.5 370.5,606.5C 371.568,607.434 372.901,607.768 374.5,607.5C 374.5,607.833 374.5,608.167 374.5,608.5C 366.529,607.677 358.529,607.344 350.5,607.5 Z M 304.5,614.5 C 306.5,614.5 308.5,614.5 310.5,614.5C 305.089,616.236 299.422,617.236 293.5,617.5C 293.5,617.167 293.5,616.833 293.5,616.5C 295.415,616.784 297.081,616.451 298.5,615.5C 300.735,615.795 302.735,615.461 304.5,614.5 Z M 246.5,620.5 C 247.833,620.5 249.167,620.5 250.5,620.5C 255.64,621.488 260.974,621.821 266.5,621.5C 263.854,622.164 261.021,622.498 258,622.5C 253.867,622.714 250.034,622.048 246.5,620.5 Z"/></g>
<g><path style="opacity:0.014" fill="#131313" d="M 399.5,0.5 C 399.5,0.166667 399.5,-0.166667 399.5,-0.5C 402.5,-0.5 405.5,-0.5 408.5,-0.5C 408.5,-0.166667 408.5,0.166667 408.5,0.5C 405.5,0.5 402.5,0.5 399.5,0.5 Z"/></g>
<g><path style="opacity:0.014" fill="#1e1e1e" d="M 310.5,0.5 C 308.712,1.62247 306.712,1.78914 304.5,1C 306.473,0.504543 308.473,0.337876 310.5,0.5 Z"/></g>
<g><path style="opacity:0.014" fill="#1a1a1a" d="M 408.5,0.5 C 410.527,0.337876 412.527,0.504543 414.5,1C 412.288,1.78914 410.288,1.62247 408.5,0.5 Z"/></g>
<g><path style="opacity:0.01" fill="#000000" d="M 298.5,2.5 C 299.946,1.38705 301.613,1.22039 303.5,2C 301.866,2.49351 300.199,2.66018 298.5,2.5 Z"/></g>
<g><path style="opacity:0.01" fill="#000000" d="M 415.5,2.5 C 416.946,1.38705 418.613,1.22039 420.5,2C 418.866,2.49351 417.199,2.66018 415.5,2.5 Z"/></g>
<g><path style="opacity:1" fill="#eaeaea" d="M 330.5,8.5 C 456.222,2.53085 558.722,47.8642 638,144.5C 710.142,242.793 728.475,350.46 693,467.5C 650.962,579.869 572.462,653.369 457.5,688C 442.113,692.597 426.446,695.764 410.5,697.5C 393.435,696.734 377.435,692.234 362.5,684C 360.981,682.649 359.648,681.149 358.5,679.5C 363.811,675.112 369.811,671.945 376.5,670C 480.852,662.922 564.352,618.089 627,535.5C 686.282,446.919 698.949,351.919 665,250.5C 629.716,157.549 565.882,92.7157 473.5,56C 368.994,19.8143 270.327,31.481 177.5,91C 75.9356,164.651 29.1023,264.484 37,390.5C 50.5805,494.917 101.747,574.75 190.5,630C 196.185,632.727 202.185,634.394 208.5,635C 231.381,637.379 253.715,635.046 275.5,628C 300.454,623.008 325.454,618.341 350.5,614C 356.5,613.333 362.5,613.333 368.5,614C 378.802,616.767 388.968,619.934 399,623.5C 404.603,619.572 410.936,617.905 418,618.5C 425.355,618.531 432.522,619.698 439.5,622C 446.305,624.259 448.972,628.759 447.5,635.5C 434.383,641.261 420.716,645.094 406.5,647C 403.833,648 401.167,649 398.5,650C 386.532,656.652 374.532,663.319 362.5,670C 350.617,673.177 338.617,675.843 326.5,678C 322.62,679.857 322.954,681.19 327.5,682C 333.473,682.907 339.473,683.573 345.5,684C 359.656,688.941 373.656,694.274 387.5,700C 390.833,700.667 394.167,701.333 397.5,702C 407.184,702.168 416.851,702.668 426.5,703.5C 424.637,707.53 421.637,710.363 417.5,712C 410.833,712.667 404.167,712.667 397.5,712C 381.209,707.844 364.875,703.844 348.5,700C 342.833,699.333 337.167,699.333 331.5,700C 314.685,705.969 298.685,704.302 283.5,695C 274.665,689.415 265.665,684.081 256.5,679C 253.397,677.228 250.397,677.228 247.5,679C 252.162,682.666 257.162,685.833 262.5,688.5C 261.667,688.833 260.833,689.167 260,689.5C 149.114,655.281 72.1136,584.281 29,476.5C -9.27049,362.066 5.39618,255.066 73,155.5C 137.132,69.165 222.965,20.165 330.5,8.5 Z M 388.5,70.5 C 393.731,70.4443 398.731,71.111 403.5,72.5C 401.143,72.3367 398.81,72.5034 396.5,73C 405.224,74.1762 413.891,75.6762 422.5,77.5C 423.416,77.4573 424.083,77.1239 424.5,76.5C 427.781,76.4203 430.781,77.087 433.5,78.5C 432.127,78.3433 430.793,78.51 429.5,79C 436.022,80.7556 442.522,82.5889 449,84.5C 449.765,84.4301 450.265,84.0967 450.5,83.5C 454.537,84.0653 458.203,85.3987 461.5,87.5C 458.903,87.7208 458.903,88.2208 461.5,89C 467.615,91.224 473.615,93.724 479.5,96.5C 480.107,96.3764 480.44,96.0431 480.5,95.5C 482.553,95.4021 484.22,96.0687 485.5,97.5C 484.761,97.369 484.094,97.5357 483.5,98C 496.21,104.35 508.543,111.184 520.5,118.5C 520.842,119.338 521.508,119.672 522.5,119.5C 527.858,124.186 533.525,128.519 539.5,132.5C 539.973,133.906 540.973,134.573 542.5,134.5C 542.833,135.5 543.5,136.167 544.5,136.5C 545.262,138.262 546.596,139.262 548.5,139.5C 549.5,141.167 550.833,142.5 552.5,143.5C 553.262,145.262 554.596,146.262 556.5,146.5C 561.5,152.167 566.833,157.5 572.5,162.5C 573.08,164.749 574.413,166.415 576.5,167.5C 577.5,169.167 578.833,170.5 580.5,171.5C 580.427,173.027 581.094,174.027 582.5,174.5C 582.833,175.5 583.5,176.167 584.5,176.5C 584.427,178.027 585.094,179.027 586.5,179.5C 586.833,180.5 587.5,181.167 588.5,181.5C 588.427,183.027 589.094,184.027 590.5,184.5C 590.5,185.167 590.833,185.5 591.5,185.5C 591.427,187.027 592.094,188.027 593.5,188.5C 593.738,190.404 594.738,191.738 596.5,192.5C 596.427,194.027 597.094,195.027 598.5,195.5C 598.427,197.027 599.094,198.027 600.5,198.5C 600.427,200.027 601.094,201.027 602.5,201.5C 602.427,203.027 603.094,204.027 604.5,204.5C 604.75,206.674 605.75,208.341 607.5,209.5C 607.75,211.674 608.75,213.341 610.5,214.5C 610.328,215.492 610.662,216.158 611.5,216.5C 611.75,218.674 612.75,220.341 614.5,221.5C 614.229,223.38 614.896,224.713 616.5,225.5C 616.992,227.819 617.992,229.819 619.5,231.5C 619.66,233.153 620.326,234.486 621.5,235.5C 621.707,238.241 622.707,240.574 624.5,242.5C 624.66,244.153 625.326,245.486 626.5,246.5C 626.263,247.791 626.596,248.791 627.5,249.5C 627.263,250.791 627.596,251.791 628.5,252.5C 628.935,255.157 629.935,257.491 631.5,259.5C 631.263,260.791 631.596,261.791 632.5,262.5C 632.263,263.791 632.596,264.791 633.5,265.5C 633.263,266.791 633.596,267.791 634.5,268.5C 634.263,269.791 634.596,270.791 635.5,271.5C 635.232,273.099 635.566,274.432 636.5,275.5C 636.263,276.791 636.596,277.791 637.5,278.5C 637.232,280.099 637.566,281.432 638.5,282.5C 638.838,284.854 639.338,287.187 640,289.5C 640.49,288.207 640.657,286.873 640.5,285.5C 641.933,287.914 642.433,290.581 642,293.5C 641.667,292.5 641.333,291.5 641,290.5C 640.567,293.419 641.067,296.086 642.5,298.5C 642.216,300.415 642.549,302.081 643.5,303.5C 643.539,307.733 644.205,311.733 645.5,315.5C 645.833,323.5 646.167,323.5 646.5,315.5C 647.889,320.269 648.556,325.269 648.5,330.5C 650.462,344.473 650.795,358.473 649.5,372.5C 649.666,363.827 649.5,355.16 649,346.5C 648.641,357.674 648.141,368.84 647.5,380C 647.503,382.69 647.836,385.19 648.5,387.5C 648.55,392.552 648.05,397.552 647,402.5C 646.667,400.5 646.333,398.5 646,396.5C 645.077,400.79 644.577,405.123 644.5,409.5C 644.833,409.5 645.167,409.5 645.5,409.5C 645.678,413.122 645.011,416.456 643.5,419.5C 643.167,414.167 642.833,414.167 642.5,419.5C 641.549,420.919 641.216,422.585 641.5,424.5C 640.566,425.568 640.232,426.901 640.5,428.5C 638.96,430.838 638.294,433.505 638.5,436.5C 637.596,437.209 637.263,438.209 637.5,439.5C 636.596,440.209 636.263,441.209 636.5,442.5C 635.566,443.568 635.232,444.901 635.5,446.5C 634.596,447.209 634.263,448.209 634.5,449.5C 633.596,450.209 633.263,451.209 633.5,452.5C 632.596,453.209 632.263,454.209 632.5,455.5C 631.167,456.167 631.167,456.833 632.5,457.5C 631.449,458.222 630.782,459.222 630.5,460.5C 628.98,462.89 627.98,465.557 627.5,468.5C 625.935,470.509 624.935,472.843 624.5,475.5C 622.043,478.751 620.376,482.418 619.5,486.5C 618.662,486.842 618.328,487.508 618.5,488.5C 616.896,489.287 616.229,490.62 616.5,492.5C 614.412,494.336 613.079,496.669 612.5,499.5C 611.662,499.842 611.328,500.508 611.5,501.5C 609.75,502.659 608.75,504.326 608.5,506.5C 606.75,507.659 605.75,509.326 605.5,511.5C 604.094,511.973 603.427,512.973 603.5,514.5C 602.094,514.973 601.427,515.973 601.5,517.5C 600.094,517.973 599.427,518.973 599.5,520.5C 598.094,520.973 597.427,521.973 597.5,523.5C 596.094,523.973 595.427,524.973 595.5,526.5C 594.833,526.5 594.5,526.833 594.5,527.5C 593.094,527.973 592.427,528.973 592.5,530.5C 591.833,530.5 591.5,530.833 591.5,531.5C 590.094,531.973 589.427,532.973 589.5,534.5C 588.833,534.5 588.5,534.833 588.5,535.5C 587.094,535.973 586.427,536.973 586.5,538.5C 585.5,538.833 584.833,539.5 584.5,540.5C 583.094,540.973 582.427,541.973 582.5,543.5C 580.833,544.5 579.5,545.833 578.5,547.5C 576.738,548.262 575.738,549.596 575.5,551.5C 568.167,558.167 561.167,565.167 554.5,572.5C 552.596,572.738 551.262,573.738 550.5,575.5C 549.167,576.167 548.167,577.167 547.5,578.5C 545.973,578.427 544.973,579.094 544.5,580.5C 541.94,582.273 539.607,584.273 537.5,586.5C 535.973,586.427 534.973,587.094 534.5,588.5C 512.014,604.749 487.681,617.915 461.5,628C 462.094,628.464 462.761,628.631 463.5,628.5C 462.22,629.931 460.553,630.598 458.5,630.5C 458.5,630.167 458.5,629.833 458.5,629.5C 457.1,628.9 456.1,627.9 455.5,626.5C 455.573,624.973 454.906,623.973 453.5,623.5C 452.833,620.833 451.167,619.167 448.5,618.5C 444.334,613.9 439.334,611.9 433.5,612.5C 424.833,611.167 416.167,611.167 407.5,612.5C 406.903,611.861 406.07,611.528 405,611.5C 402.5,612 400,612.5 397.5,613C 399.134,613.494 400.801,613.66 402.5,613.5C 398.148,616.009 393.814,616.009 389.5,613.5C 390.873,613.657 392.207,613.49 393.5,613C 387.178,611.058 380.844,609.225 374.5,607.5C 373.432,606.566 372.099,606.232 370.5,606.5C 363.833,605.167 357.167,605.167 350.5,606.5C 342.5,606.833 342.5,607.167 350.5,607.5C 346.409,608.895 342.076,609.562 337.5,609.5C 332.428,611.246 327.095,612.246 321.5,612.5C 320.726,611.853 319.726,611.52 318.5,611.5C 313.648,612.269 308.981,613.269 304.5,614.5C 302.265,614.205 300.265,614.539 298.5,615.5C 296.585,615.216 294.919,615.549 293.5,616.5C 287.464,617.006 281.464,617.839 275.5,619C 277.473,619.495 279.473,619.662 281.5,619.5C 276.75,621.031 271.75,621.698 266.5,621.5C 261.36,620.512 256.026,620.179 250.5,620.5C 233.54,613.853 217.206,605.853 201.5,596.5C 201.158,595.662 200.492,595.328 199.5,595.5C 190.19,588.531 180.857,581.531 171.5,574.5C 171.027,573.094 170.027,572.427 168.5,572.5C 167.5,570.833 166.167,569.5 164.5,568.5C 163.738,566.738 162.404,565.738 160.5,565.5C 154.833,559.167 148.833,553.167 142.5,547.5C 142.262,545.596 141.262,544.262 139.5,543.5C 138.833,542.167 137.833,541.167 136.5,540.5C 136.262,538.596 135.262,537.262 133.5,536.5C 133.167,535.5 132.5,534.833 131.5,534.5C 131.573,532.973 130.906,531.973 129.5,531.5C 129.5,530.833 129.167,530.5 128.5,530.5C 128.573,528.973 127.906,527.973 126.5,527.5C 126.167,526.5 125.5,525.833 124.5,525.5C 124.573,523.973 123.906,522.973 122.5,522.5C 122.573,520.973 121.906,519.973 120.5,519.5C 120.573,517.973 119.906,516.973 118.5,516.5C 118.5,515.833 118.167,515.5 117.5,515.5C 117.672,514.508 117.338,513.842 116.5,513.5C 116.573,511.973 115.906,510.973 114.5,510.5C 114.573,508.973 113.906,507.973 112.5,507.5C 112.25,505.326 111.25,503.659 109.5,502.5C 109.25,500.326 108.25,498.659 106.5,497.5C 106.672,496.508 106.338,495.842 105.5,495.5C 104.921,492.669 103.588,490.336 101.5,488.5C 101.771,486.62 101.104,485.287 99.5,484.5C 99.6716,483.508 99.3382,482.842 98.5,482.5C 97.6236,478.418 95.9569,474.751 93.5,471.5C 93.2041,469.597 92.5375,467.93 91.5,466.5C 91.6716,465.508 91.3382,464.842 90.5,464.5C 90.5979,462.447 89.9313,460.78 88.5,459.5C 88.7373,458.209 88.404,457.209 87.5,456.5C 87.7373,455.209 87.404,454.209 86.5,453.5C 86.2671,450.458 85.2671,447.792 83.5,445.5C 83.7678,443.901 83.4345,442.568 82.5,441.5C 82.7373,440.209 82.404,439.209 81.5,438.5C 81.5905,435.848 80.9238,433.515 79.5,431.5C 79.7678,429.901 79.4345,428.568 78.5,427.5C 78.7678,425.901 78.4345,424.568 77.5,423.5C 77.7845,421.585 77.4511,419.919 76.5,418.5C 76.1667,413.167 75.8333,413.167 75.5,418.5C 73.9886,415.456 73.322,412.122 73.5,408.5C 74.1471,407.726 74.4805,406.726 74.5,405.5C 74,402.5 73.5,399.5 73,396.5C 72.5045,398.473 72.3379,400.473 72.5,402.5C 70.9216,397.417 70.2549,392.084 70.5,386.5C 71.1633,384.359 71.4966,382.025 71.5,379.5C 70.8464,368.508 70.3464,357.508 70,346.5C 69.5002,355.16 69.3336,363.827 69.5,372.5C 68.2045,358.473 68.5379,344.473 70.5,330.5C 70.4443,325.269 71.111,320.269 72.5,315.5C 72.8333,323.5 73.1667,323.5 73.5,315.5C 74.7947,311.733 75.4613,307.733 75.5,303.5C 76.4511,302.081 76.7845,300.415 76.5,298.5C 77.9326,296.086 78.4326,293.419 78,290.5C 77.6667,291.5 77.3333,292.5 77,293.5C 76.5674,290.581 77.0674,287.914 78.5,285.5C 78.3433,286.873 78.51,288.207 79,289.5C 79.662,287.187 80.162,284.854 80.5,282.5C 81.4345,281.432 81.7678,280.099 81.5,278.5C 82.404,277.791 82.7373,276.791 82.5,275.5C 83.4345,274.432 83.7678,273.099 83.5,271.5C 84.404,270.791 84.7373,269.791 84.5,268.5C 85.404,267.791 85.7373,266.791 85.5,265.5C 86.404,264.791 86.7373,263.791 86.5,262.5C 87.404,261.791 87.7373,260.791 87.5,259.5C 89.0652,257.491 90.0652,255.157 90.5,252.5C 91.404,251.791 91.7373,250.791 91.5,249.5C 92.404,248.791 92.7373,247.791 92.5,246.5C 93.6737,245.486 94.3404,244.153 94.5,242.5C 96.2927,240.574 97.2927,238.241 97.5,235.5C 98.6737,234.486 99.3404,233.153 99.5,231.5C 101.008,229.819 102.008,227.819 102.5,225.5C 104.104,224.713 104.771,223.38 104.5,221.5C 106.25,220.341 107.25,218.674 107.5,216.5C 108.338,216.158 108.672,215.492 108.5,214.5C 110.25,213.341 111.25,211.674 111.5,209.5C 113.25,208.341 114.25,206.674 114.5,204.5C 115.906,204.027 116.573,203.027 116.5,201.5C 117.906,201.027 118.573,200.027 118.5,198.5C 119.906,198.027 120.573,197.027 120.5,195.5C 121.906,195.027 122.573,194.027 122.5,192.5C 124.262,191.738 125.262,190.404 125.5,188.5C 126.906,188.027 127.573,187.027 127.5,185.5C 128.167,185.5 128.5,185.167 128.5,184.5C 129.906,184.027 130.573,183.027 130.5,181.5C 131.5,181.167 132.167,180.5 132.5,179.5C 133.906,179.027 134.573,178.027 134.5,176.5C 135.5,176.167 136.167,175.5 136.5,174.5C 137.906,174.027 138.573,173.027 138.5,171.5C 140.167,170.5 141.5,169.167 142.5,167.5C 144.587,166.415 145.92,164.749 146.5,162.5C 152.167,157.5 157.5,152.167 162.5,146.5C 164.404,146.262 165.738,145.262 166.5,143.5C 168.167,142.5 169.5,141.167 170.5,139.5C 172.404,139.262 173.738,138.262 174.5,136.5C 175.5,136.167 176.167,135.5 176.5,134.5C 178.027,134.573 179.027,133.906 179.5,132.5C 185.475,128.519 191.142,124.186 196.5,119.5C 197.492,119.672 198.158,119.338 198.5,118.5C 210.457,111.184 222.79,104.35 235.5,98C 234.906,97.5357 234.239,97.369 233.5,97.5C 234.78,96.0687 236.447,95.4021 238.5,95.5C 238.56,96.0431 238.893,96.3764 239.5,96.5C 246.051,93.3911 252.718,90.5577 259.5,88C 258.906,87.5357 258.239,87.369 257.5,87.5C 260.797,85.3987 264.463,84.0653 268.5,83.5C 268.735,84.0967 269.235,84.4301 270,84.5C 276.478,82.5889 282.978,80.7556 289.5,79C 288.207,78.51 286.873,78.3433 285.5,78.5C 288.219,77.087 291.219,76.4203 294.5,76.5C 294.917,77.1239 295.584,77.4573 296.5,77.5C 305.109,75.6762 313.776,74.1762 322.5,73C 320.19,72.5034 317.857,72.3367 315.5,72.5C 320.269,71.111 325.269,70.4443 330.5,70.5C 349.833,67.8333 369.167,67.8333 388.5,70.5 Z M 350.5,607.5 C 350.5,607.167 350.5,606.833 350.5,606.5C 357.167,606.5 363.833,606.5 370.5,606.5C 371.568,607.434 372.901,607.768 374.5,607.5C 374.5,607.833 374.5,608.167 374.5,608.5C 366.529,607.677 358.529,607.344 350.5,607.5 Z M 304.5,614.5 C 306.5,614.5 308.5,614.5 310.5,614.5C 305.089,616.236 299.422,617.236 293.5,617.5C 293.5,617.167 293.5,616.833 293.5,616.5C 295.415,616.784 297.081,616.451 298.5,615.5C 300.735,615.795 302.735,615.461 304.5,614.5 Z M 246.5,620.5 C 247.833,620.5 249.167,620.5 250.5,620.5C 255.64,621.488 260.974,621.821 266.5,621.5C 263.854,622.164 261.021,622.498 258,622.5C 253.867,622.714 250.034,622.048 246.5,620.5 Z"/></g>
<g><path style="opacity:0.008" fill="#000000" d="M 514.5,33.5 C 514.897,32.475 515.563,32.3083 516.5,33C 515.906,33.4643 515.239,33.631 514.5,33.5 Z"/></g>
<g><path style="opacity:0.012" fill="#000000" d="M 200.5,33.5 C 201.833,34.1667 201.833,34.1667 200.5,33.5 Z"/></g>
<g><path style="opacity:0.012" fill="#000000" d="M 517.5,33.5 C 518.833,34.1667 518.833,34.1667 517.5,33.5 Z"/></g>
<g><path style="opacity:0.012" fill="#000000" d="M 521.5,35.5 C 522.833,36.1667 522.833,36.1667 521.5,35.5 Z"/></g>
<g><path style="opacity:1" fill="#eaeaea" d="M 333.5,41.5 C 454.752,36.2177 550.919,82.2177 622,179.5C 676.565,261.557 690.898,350.223 665,445.5C 634.389,536.114 575.223,600.614 487.5,639C 455.171,652.264 422.504,659.931 389.5,662C 392.833,660 396.167,658 399.5,656C 492.011,640.715 563.845,594.215 615,516.5C 660.521,439.798 671.187,358.464 647,272.5C 613.994,173.494 548.161,106.994 449.5,73C 339.359,42.3753 241.359,64.3753 155.5,139C 69.4639,224.292 41.6306,325.792 72,443.5C 100.542,530.378 156.709,592.211 240.5,629C 225.245,631.67 210.245,630.67 195.5,626C 103.979,569.867 52.8126,488.034 42,380.5C 38.0482,255.227 87.8816,158.061 191.5,89C 235.309,62.4527 282.642,46.6194 333.5,41.5 Z M 388.5,70.5 C 393.731,70.4443 398.731,71.111 403.5,72.5C 401.143,72.3367 398.81,72.5034 396.5,73C 405.224,74.1762 413.891,75.6762 422.5,77.5C 423.416,77.4573 424.083,77.1239 424.5,76.5C 427.781,76.4203 430.781,77.087 433.5,78.5C 432.127,78.3433 430.793,78.51 429.5,79C 436.022,80.7556 442.522,82.5889 449,84.5C 449.765,84.4301 450.265,84.0967 450.5,83.5C 454.537,84.0653 458.203,85.3987 461.5,87.5C 458.903,87.7208 458.903,88.2208 461.5,89C 467.615,91.224 473.615,93.724 479.5,96.5C 480.107,96.3764 480.44,96.0431 480.5,95.5C 482.553,95.4021 484.22,96.0687 485.5,97.5C 484.761,97.369 484.094,97.5357 483.5,98C 496.21,104.35 508.543,111.184 520.5,118.5C 520.842,119.338 521.508,119.672 522.5,119.5C 527.858,124.186 533.525,128.519 539.5,132.5C 539.973,133.906 540.973,134.573 542.5,134.5C 542.833,135.5 543.5,136.167 544.5,136.5C 545.262,138.262 546.596,139.262 548.5,139.5C 549.5,141.167 550.833,142.5 552.5,143.5C 553.262,145.262 554.596,146.262 556.5,146.5C 561.5,152.167 566.833,157.5 572.5,162.5C 573.08,164.749 574.413,166.415 576.5,167.5C 577.5,169.167 578.833,170.5 580.5,171.5C 580.427,173.027 581.094,174.027 582.5,174.5C 582.833,175.5 583.5,176.167 584.5,176.5C 584.427,178.027 585.094,179.027 586.5,179.5C 586.833,180.5 587.5,181.167 588.5,181.5C 588.427,183.027 589.094,184.027 590.5,184.5C 590.5,185.167 590.833,185.5 591.5,185.5C 591.427,187.027 592.094,188.027 593.5,188.5C 593.738,190.404 594.738,191.738 596.5,192.5C 596.427,194.027 597.094,195.027 598.5,195.5C 598.427,197.027 599.094,198.027 600.5,198.5C 600.427,200.027 601.094,201.027 602.5,201.5C 602.427,203.027 603.094,204.027 604.5,204.5C 604.75,206.674 605.75,208.341 607.5,209.5C 607.75,211.674 608.75,213.341 610.5,214.5C 610.328,215.492 610.662,216.158 611.5,216.5C 611.75,218.674 612.75,220.341 614.5,221.5C 614.229,223.38 614.896,224.713 616.5,225.5C 616.992,227.819 617.992,229.819 619.5,231.5C 619.66,233.153 620.326,234.486 621.5,235.5C 621.707,238.241 622.707,240.574 624.5,242.5C 624.66,244.153 625.326,245.486 626.5,246.5C 626.263,247.791 626.596,248.791 627.5,249.5C 627.263,250.791 627.596,251.791 628.5,252.5C 628.935,255.157 629.935,257.491 631.5,259.5C 631.263,260.791 631.596,261.791 632.5,262.5C 632.263,263.791 632.596,264.791 633.5,265.5C 633.263,266.791 633.596,267.791 634.5,268.5C 634.263,269.791 634.596,270.791 635.5,271.5C 635.232,273.099 635.566,274.432 636.5,275.5C 636.263,276.791 636.596,277.791 637.5,278.5C 637.232,280.099 637.566,281.432 638.5,282.5C 638.838,284.854 639.338,287.187 640,289.5C 640.49,288.207 640.657,286.873 640.5,285.5C 641.933,287.914 642.433,290.581 642,293.5C 641.667,292.5 641.333,291.5 641,290.5C 640.567,293.419 641.067,296.086 642.5,298.5C 642.216,300.415 642.549,302.081 643.5,303.5C 643.539,307.733 644.205,311.733 645.5,315.5C 645.833,323.5 646.167,323.5 646.5,315.5C 647.889,320.269 648.556,325.269 648.5,330.5C 650.462,344.473 650.795,358.473 649.5,372.5C 649.666,363.827 649.5,355.16 649,346.5C 648.641,357.674 648.141,368.84 647.5,380C 647.503,382.69 647.836,385.19 648.5,387.5C 648.55,392.552 648.05,397.552 647,402.5C 646.667,400.5 646.333,398.5 646,396.5C 645.077,400.79 644.577,405.123 644.5,409.5C 644.833,409.5 645.167,409.5 645.5,409.5C 645.678,413.122 645.011,416.456 643.5,419.5C 643.167,414.167 642.833,414.167 642.5,419.5C 641.549,420.919 641.216,422.585 641.5,424.5C 640.566,425.568 640.232,426.901 640.5,428.5C 638.96,430.838 638.294,433.505 638.5,436.5C 637.596,437.209 637.263,438.209 637.5,439.5C 636.596,440.209 636.263,441.209 636.5,442.5C 635.566,443.568 635.232,444.901 635.5,446.5C 634.596,447.209 634.263,448.209 634.5,449.5C 633.596,450.209 633.263,451.209 633.5,452.5C 632.596,453.209 632.263,454.209 632.5,455.5C 631.167,456.167 631.167,456.833 632.5,457.5C 631.449,458.222 630.782,459.222 630.5,460.5C 628.98,462.89 627.98,465.557 627.5,468.5C 625.935,470.509 624.935,472.843 624.5,475.5C 622.043,478.751 620.376,482.418 619.5,486.5C 618.662,486.842 618.328,487.508 618.5,488.5C 616.896,489.287 616.229,490.62 616.5,492.5C 614.412,494.336 613.079,496.669 612.5,499.5C 611.662,499.842 611.328,500.508 611.5,501.5C 609.75,502.659 608.75,504.326 608.5,506.5C 606.75,507.659 605.75,509.326 605.5,511.5C 604.094,511.973 603.427,512.973 603.5,514.5C 602.094,514.973 601.427,515.973 601.5,517.5C 600.094,517.973 599.427,518.973 599.5,520.5C 598.094,520.973 597.427,521.973 597.5,523.5C 596.094,523.973 595.427,524.973 595.5,526.5C 594.833,526.5 594.5,526.833 594.5,527.5C 593.094,527.973 592.427,528.973 592.5,530.5C 591.833,530.5 591.5,530.833 591.5,531.5C 590.094,531.973 589.427,532.973 589.5,534.5C 588.833,534.5 588.5,534.833 588.5,535.5C 587.094,535.973 586.427,536.973 586.5,538.5C 585.5,538.833 584.833,539.5 584.5,540.5C 583.094,540.973 582.427,541.973 582.5,543.5C 580.833,544.5 579.5,545.833 578.5,547.5C 576.738,548.262 575.738,549.596 575.5,551.5C 568.167,558.167 561.167,565.167 554.5,572.5C 552.596,572.738 551.262,573.738 550.5,575.5C 549.167,576.167 548.167,577.167 547.5,578.5C 545.973,578.427 544.973,579.094 544.5,580.5C 541.94,582.273 539.607,584.273 537.5,586.5C 535.973,586.427 534.973,587.094 534.5,588.5C 512.014,604.749 487.681,617.915 461.5,628C 462.094,628.464 462.761,628.631 463.5,628.5C 462.22,629.931 460.553,630.598 458.5,630.5C 458.5,630.167 458.5,629.833 458.5,629.5C 457.1,628.9 456.1,627.9 455.5,626.5C 455.573,624.973 454.906,623.973 453.5,623.5C 452.833,620.833 451.167,619.167 448.5,618.5C 444.334,613.9 439.334,611.9 433.5,612.5C 424.833,611.167 416.167,611.167 407.5,612.5C 406.903,611.861 406.07,611.528 405,611.5C 402.5,612 400,612.5 397.5,613C 399.134,613.494 400.801,613.66 402.5,613.5C 398.148,616.009 393.814,616.009 389.5,613.5C 390.873,613.657 392.207,613.49 393.5,613C 387.178,611.058 380.844,609.225 374.5,607.5C 373.432,606.566 372.099,606.232 370.5,606.5C 363.833,605.167 357.167,605.167 350.5,606.5C 342.5,606.833 342.5,607.167 350.5,607.5C 346.409,608.895 342.076,609.562 337.5,609.5C 332.428,611.246 327.095,612.246 321.5,612.5C 320.726,611.853 319.726,611.52 318.5,611.5C 313.648,612.269 308.981,613.269 304.5,614.5C 302.265,614.205 300.265,614.539 298.5,615.5C 296.585,615.216 294.919,615.549 293.5,616.5C 287.464,617.006 281.464,617.839 275.5,619C 277.473,619.495 279.473,619.662 281.5,619.5C 276.75,621.031 271.75,621.698 266.5,621.5C 261.36,620.512 256.026,620.179 250.5,620.5C 233.54,613.853 217.206,605.853 201.5,596.5C 201.158,595.662 200.492,595.328 199.5,595.5C 190.19,588.531 180.857,581.531 171.5,574.5C 171.027,573.094 170.027,572.427 168.5,572.5C 167.5,570.833 166.167,569.5 164.5,568.5C 163.738,566.738 162.404,565.738 160.5,565.5C 154.833,559.167 148.833,553.167 142.5,547.5C 142.262,545.596 141.262,544.262 139.5,543.5C 138.833,542.167 137.833,541.167 136.5,540.5C 136.262,538.596 135.262,537.262 133.5,536.5C 133.167,535.5 132.5,534.833 131.5,534.5C 131.573,532.973 130.906,531.973 129.5,531.5C 129.5,530.833 129.167,530.5 128.5,530.5C 128.573,528.973 127.906,527.973 126.5,527.5C 126.167,526.5 125.5,525.833 124.5,525.5C 124.573,523.973 123.906,522.973 122.5,522.5C 122.573,520.973 121.906,519.973 120.5,519.5C 120.573,517.973 119.906,516.973 118.5,516.5C 118.5,515.833 118.167,515.5 117.5,515.5C 117.672,514.508 117.338,513.842 116.5,513.5C 116.573,511.973 115.906,510.973 114.5,510.5C 114.573,508.973 113.906,507.973 112.5,507.5C 112.25,505.326 111.25,503.659 109.5,502.5C 109.25,500.326 108.25,498.659 106.5,497.5C 106.672,496.508 106.338,495.842 105.5,495.5C 104.921,492.669 103.588,490.336 101.5,488.5C 101.771,486.62 101.104,485.287 99.5,484.5C 99.6716,483.508 99.3382,482.842 98.5,482.5C 97.6236,478.418 95.9569,474.751 93.5,471.5C 93.2041,469.597 92.5375,467.93 91.5,466.5C 91.6716,465.508 91.3382,464.842 90.5,464.5C 90.5979,462.447 89.9313,460.78 88.5,459.5C 88.7373,458.209 88.404,457.209 87.5,456.5C 87.7373,455.209 87.404,454.209 86.5,453.5C 86.2671,450.458 85.2671,447.792 83.5,445.5C 83.7678,443.901 83.4345,442.568 82.5,441.5C 82.7373,440.209 82.404,439.209 81.5,438.5C 81.5905,435.848 80.9238,433.515 79.5,431.5C 79.7678,429.901 79.4345,428.568 78.5,427.5C 78.7678,425.901 78.4345,424.568 77.5,423.5C 77.7845,421.585 77.4511,419.919 76.5,418.5C 76.1667,413.167 75.8333,413.167 75.5,418.5C 73.9886,415.456 73.322,412.122 73.5,408.5C 74.1471,407.726 74.4805,406.726 74.5,405.5C 74,402.5 73.5,399.5 73,396.5C 72.5045,398.473 72.3379,400.473 72.5,402.5C 70.9216,397.417 70.2549,392.084 70.5,386.5C 71.1633,384.359 71.4966,382.025 71.5,379.5C 70.8464,368.508 70.3464,357.508 70,346.5C 69.5002,355.16 69.3336,363.827 69.5,372.5C 68.2045,358.473 68.5379,344.473 70.5,330.5C 70.4443,325.269 71.111,320.269 72.5,315.5C 72.8333,323.5 73.1667,323.5 73.5,315.5C 74.7947,311.733 75.4613,307.733 75.5,303.5C 76.4511,302.081 76.7845,300.415 76.5,298.5C 77.9326,296.086 78.4326,293.419 78,290.5C 77.6667,291.5 77.3333,292.5 77,293.5C 76.5674,290.581 77.0674,287.914 78.5,285.5C 78.3433,286.873 78.51,288.207 79,289.5C 79.662,287.187 80.162,284.854 80.5,282.5C 81.4345,281.432 81.7678,280.099 81.5,278.5C 82.404,277.791 82.7373,276.791 82.5,275.5C 83.4345,274.432 83.7678,273.099 83.5,271.5C 84.404,270.791 84.7373,269.791 84.5,268.5C 85.404,267.791 85.7373,266.791 85.5,265.5C 86.404,264.791 86.7373,263.791 86.5,262.5C 87.404,261.791 87.7373,260.791 87.5,259.5C 89.0652,257.491 90.0652,255.157 90.5,252.5C 91.404,251.791 91.7373,250.791 91.5,249.5C 92.404,248.791 92.7373,247.791 92.5,246.5C 93.6737,245.486 94.3404,244.153 94.5,242.5C 96.2927,240.574 97.2927,238.241 97.5,235.5C 98.6737,234.486 99.3404,233.153 99.5,231.5C 101.008,229.819 102.008,227.819 102.5,225.5C 104.104,224.713 104.771,223.38 104.5,221.5C 106.25,220.341 107.25,218.674 107.5,216.5C 108.338,216.158 108.672,215.492 108.5,214.5C 110.25,213.341 111.25,211.674 111.5,209.5C 113.25,208.341 114.25,206.674 114.5,204.5C 115.906,204.027 116.573,203.027 116.5,201.5C 117.906,201.027 118.573,200.027 118.5,198.5C 119.906,198.027 120.573,197.027 120.5,195.5C 121.906,195.027 122.573,194.027 122.5,192.5C 124.262,191.738 125.262,190.404 125.5,188.5C 126.906,188.027 127.573,187.027 127.5,185.5C 128.167,185.5 128.5,185.167 128.5,184.5C 129.906,184.027 130.573,183.027 130.5,181.5C 131.5,181.167 132.167,180.5 132.5,179.5C 133.906,179.027 134.573,178.027 134.5,176.5C 135.5,176.167 136.167,175.5 136.5,174.5C 137.906,174.027 138.573,173.027 138.5,171.5C 140.167,170.5 141.5,169.167 142.5,167.5C 144.587,166.415 145.92,164.749 146.5,162.5C 152.167,157.5 157.5,152.167 162.5,146.5C 164.404,146.262 165.738,145.262 166.5,143.5C 168.167,142.5 169.5,141.167 170.5,139.5C 172.404,139.262 173.738,138.262 174.5,136.5C 175.5,136.167 176.167,135.5 176.5,134.5C 178.027,134.573 179.027,133.906 179.5,132.5C 185.475,128.519 191.142,124.186 196.5,119.5C 197.492,119.672 198.158,119.338 198.5,118.5C 210.457,111.184 222.79,104.35 235.5,98C 234.906,97.5357 234.239,97.369 233.5,97.5C 234.78,96.0687 236.447,95.4021 238.5,95.5C 238.56,96.0431 238.893,96.3764 239.5,96.5C 246.051,93.3911 252.718,90.5577 259.5,88C 258.906,87.5357 258.239,87.369 257.5,87.5C 260.797,85.3987 264.463,84.0653 268.5,83.5C 268.735,84.0967 269.235,84.4301 270,84.5C 276.478,82.5889 282.978,80.7556 289.5,79C 288.207,78.51 286.873,78.3433 285.5,78.5C 288.219,77.087 291.219,76.4203 294.5,76.5C 294.917,77.1239 295.584,77.4573 296.5,77.5C 305.109,75.6762 313.776,74.1762 322.5,73C 320.19,72.5034 317.857,72.3367 315.5,72.5C 320.269,71.111 325.269,70.4443 330.5,70.5C 349.833,67.8333 369.167,67.8333 388.5,70.5 Z M 350.5,607.5 C 350.5,607.167 350.5,606.833 350.5,606.5C 357.167,606.5 363.833,606.5 370.5,606.5C 371.568,607.434 372.901,607.768 374.5,607.5C 374.5,607.833 374.5,608.167 374.5,608.5C 366.529,607.677 358.529,607.344 350.5,607.5 Z M 304.5,614.5 C 306.5,614.5 308.5,614.5 310.5,614.5C 305.089,616.236 299.422,617.236 293.5,617.5C 293.5,617.167 293.5,616.833 293.5,616.5C 295.415,616.784 297.081,616.451 298.5,615.5C 300.735,615.795 302.735,615.461 304.5,614.5 Z M 246.5,620.5 C 247.833,620.5 249.167,620.5 250.5,620.5C 255.64,621.488 260.974,621.821 266.5,621.5C 263.854,622.164 261.021,622.498 258,622.5C 253.867,622.714 250.034,622.048 246.5,620.5 Z"/></g>
<g><path style="opacity:0.009" fill="#000000" d="M 109.5,99.5 C 108.833,99.5 108.5,99.8333 108.5,100.5C 107.833,100.5 107.5,100.833 107.5,101.5C 106.833,101.5 106.5,101.833 106.5,102.5C 105.833,102.5 105.5,102.833 105.5,103.5C 104.833,103.5 104.5,103.833 104.5,104.5C 103.833,104.5 103.5,104.833 103.5,105.5C 102.833,105.5 102.5,105.833 102.5,106.5C 101.833,106.5 101.5,106.833 101.5,107.5C 100.833,107.5 100.5,107.833 100.5,108.5C 99.8333,108.5 99.5,108.833 99.5,109.5C 98.8333,109.5 98.5,109.833 98.5,110.5C 97.475,110.103 97.3083,109.437 98,108.5C 101.167,105.333 104.333,102.167 107.5,99C 108.437,98.3083 109.103,98.475 109.5,99.5 Z"/></g>
<g><path style="opacity:0.009" fill="#000000" d="M 609.5,99.5 C 609.897,98.475 610.563,98.3083 611.5,99C 614.667,102.167 617.833,105.333 621,108.5C 621.692,109.437 621.525,110.103 620.5,110.5C 619.833,110.5 619.5,110.167 619.5,109.5C 618.833,109.5 618.5,109.167 618.5,108.5C 617.833,108.5 617.5,108.167 617.5,107.5C 616.833,107.5 616.5,107.167 616.5,106.5C 615.833,106.5 615.5,106.167 615.5,105.5C 614.833,105.5 614.5,105.167 614.5,104.5C 613.833,104.5 613.5,104.167 613.5,103.5C 612.833,103.5 612.5,103.167 612.5,102.5C 611.833,102.5 611.5,102.167 611.5,101.5C 610.833,101.5 610.5,101.167 610.5,100.5C 609.833,100.5 609.5,100.167 609.5,99.5 Z"/></g>
<g><path style="opacity:0.012" fill="#000000" d="M 698.5,232.5 C 699.833,233.167 699.833,233.833 698.5,234.5C 698.5,233.833 698.5,233.167 698.5,232.5 Z"/></g>
<g><path style="opacity:0.014" fill="#141414" d="M -0.5,310.5 C 0.476669,313.287 0.810002,316.287 0.5,319.5C 0.166667,319.5 -0.166667,319.5 -0.5,319.5C -0.5,316.5 -0.5,313.5 -0.5,310.5 Z"/></g>
<g><path style="opacity:0.014" fill="#141414" d="M 719.5,310.5 C 719.5,313.5 719.5,316.5 719.5,319.5C 719.167,319.5 718.833,319.5 718.5,319.5C 718.19,316.287 718.523,313.287 719.5,310.5 Z"/></g>
<g><path style="opacity:0.004" fill="#7d7d7d" d="M 0.5,396.5 C 1.33825,396.842 1.67158,397.508 1.5,398.5C 0.526933,400.948 0.1936,403.615 0.5,406.5C 0.166667,406.5 -0.166667,406.5 -0.5,406.5C -0.5,403.5 -0.5,400.5 -0.5,397.5C 0.166667,397.5 0.5,397.167 0.5,396.5 Z"/></g>
<g><path style="opacity:0.013" fill="#171717" d="M 718.5,397.5 C 718.833,397.5 719.167,397.5 719.5,397.5C 719.5,400.5 719.5,403.5 719.5,406.5C 719.167,406.5 718.833,406.5 718.5,406.5C 718.5,403.5 718.5,400.5 718.5,397.5 Z"/></g>
<g><path style="opacity:0.013" fill="#1a1a1a" d="M 0.5,406.5 C 0.833333,406.5 1.16667,406.5 1.5,406.5C 1.16667,414.5 0.833333,414.5 0.5,406.5 Z"/></g>
<g><path style="opacity:0.012" fill="#1a1a1a" d="M 717.5,406.5 C 717.833,406.5 718.167,406.5 718.5,406.5C 718.167,414.5 717.833,414.5 717.5,406.5 Z"/></g>
<g><path style="opacity:0.012" fill="#424242" d="M 4.5,423.5 C 5.33825,423.842 5.67158,424.508 5.5,425.5C 4.56552,426.568 4.23219,427.901 4.5,429.5C 3.54885,428.081 3.21552,426.415 3.5,424.5C 4.16667,424.5 4.5,424.167 4.5,423.5 Z"/></g>
<g><path style="opacity:0.013" fill="#222222" d="M 714.5,424.5 C 714.833,424.5 715.167,424.5 715.5,424.5C 715.167,429.833 714.833,429.833 714.5,424.5 Z"/></g>
<g><path style="opacity:0.006" fill="#0b0b0b" d="M 4.5,429.5 C 4.83333,429.5 5.16667,429.5 5.5,429.5C 5.16667,436.167 4.83333,436.167 4.5,429.5 Z"/></g>
<g><path style="opacity:0.014" fill="#1a1a1a" d="M 711.5,438.5 C 711.833,438.5 712.167,438.5 712.5,438.5C 712.768,440.099 712.434,441.432 711.5,442.5C 711.5,441.167 711.5,439.833 711.5,438.5 Z"/></g>
<g><path style="opacity:0.006" fill="#171717" d="M 710.5,442.5 C 710.833,442.5 711.167,442.5 711.5,442.5C 711.768,444.099 711.434,445.432 710.5,446.5C 710.5,445.167 710.5,443.833 710.5,442.5 Z"/></g>
<g><path style="opacity:0.014" fill="#1a1a1a" d="M 709.5,446.5 C 709.833,446.5 710.167,446.5 710.5,446.5C 710.768,448.099 710.434,449.432 709.5,450.5C 709.5,449.167 709.5,447.833 709.5,446.5 Z"/></g>
<g><path style="opacity:0.009" fill="#000000" d="M 708.5,450.5 C 708.833,450.5 709.167,450.5 709.5,450.5C 709.737,451.791 709.404,452.791 708.5,453.5C 708.5,452.5 708.5,451.5 708.5,450.5 Z"/></g>
<g><path style="opacity:0.009" fill="#000000" d="M 13.5,460.5 C 13.6495,461.552 13.4828,462.552 13,463.5C 12.2599,462.251 12.4265,461.251 13.5,460.5 Z"/></g>
<g><path style="opacity:0.01" fill="#000000" d="M 705.5,460.5 C 705.833,460.5 706.167,460.5 706.5,460.5C 706.737,461.791 706.404,462.791 705.5,463.5C 705.5,462.5 705.5,461.5 705.5,460.5 Z"/></g>
<g><path style="opacity:0.01" fill="#000000" d="M 703.5,466.5 C 703.833,466.5 704.167,466.5 704.5,466.5C 704.737,467.791 704.404,468.791 703.5,469.5C 703.5,468.5 703.5,467.5 703.5,466.5 Z"/></g>
<g><path style="opacity:0.01" fill="#000000" d="M 702.5,469.5 C 702.833,469.5 703.167,469.5 703.5,469.5C 703.737,470.791 703.404,471.791 702.5,472.5C 702.5,471.5 702.5,470.5 702.5,469.5 Z"/></g>
<g><path style="opacity:0.012" fill="#373737" d="M 15.5,470.5 C 15.8333,470.5 16.1667,470.5 16.5,470.5C 16.1667,474.5 15.8333,474.5 15.5,470.5 Z"/></g>
<g><path style="opacity:0.01" fill="#000000" d="M 700.5,475.5 C 700.833,475.5 701.167,475.5 701.5,475.5C 701.737,476.791 701.404,477.791 700.5,478.5C 700.5,477.5 700.5,476.5 700.5,475.5 Z"/></g>
<g><path style="opacity:0.014" fill="#000000" d="M 699.5,478.5 C 699.833,478.5 700.167,478.5 700.5,478.5C 700.672,479.492 700.338,480.158 699.5,480.5C 699.5,479.833 699.5,479.167 699.5,478.5 Z"/></g>
<g><path style="opacity:0.008" fill="#000000" d="M 698.5,480.5 C 698.833,480.5 699.167,480.5 699.5,480.5C 699.737,481.791 699.404,482.791 698.5,483.5C 698.5,482.5 698.5,481.5 698.5,480.5 Z"/></g>
<g><path style="opacity:0.01" fill="#000000" d="M 693.5,493.5 C 693.833,493.5 694.167,493.5 694.5,493.5C 694.672,494.492 694.338,495.158 693.5,495.5C 693.5,494.833 693.5,494.167 693.5,493.5 Z"/></g>
<g><path style="opacity:0.01" fill="#000000" d="M 687.5,506.5 C 687.833,506.5 688.167,506.5 688.5,506.5C 688.672,507.492 688.338,508.158 687.5,508.5C 687.5,507.833 687.5,507.167 687.5,506.5 Z"/></g>
<g><path style="opacity:0.01" fill="#000000" d="M 686.5,508.5 C 686.833,508.5 687.167,508.5 687.5,508.5C 687.672,509.492 687.338,510.158 686.5,510.5C 686.5,509.833 686.5,509.167 686.5,508.5 Z"/></g>
<g><path style="opacity:0.01" fill="#000000" d="M 685.5,510.5 C 685.833,510.5 686.167,510.5 686.5,510.5C 686.672,511.492 686.338,512.158 685.5,512.5C 685.5,511.833 685.5,511.167 685.5,510.5 Z"/></g>
<g><path style="opacity:0.01" fill="#000000" d="M 684.5,512.5 C 684.833,512.5 685.167,512.5 685.5,512.5C 685.672,513.492 685.338,514.158 684.5,514.5C 684.5,513.833 684.5,513.167 684.5,512.5 Z"/></g>
<g><path style="opacity:0.01" fill="#000000" d="M 683.5,514.5 C 683.833,514.5 684.167,514.5 684.5,514.5C 684.672,515.492 684.338,516.158 683.5,516.5C 683.5,515.833 683.5,515.167 683.5,514.5 Z"/></g>
<g><path style="opacity:0.012" fill="#000000" d="M 682.5,516.5 C 682.833,516.5 683.167,516.5 683.5,516.5C 683.672,517.492 683.338,518.158 682.5,518.5C 682.5,517.833 682.5,517.167 682.5,516.5 Z"/></g>
<g><path style="opacity:0.01" fill="#000000" d="M 675.5,529.5 C 675.833,529.5 676.167,529.5 676.5,529.5C 676.672,530.492 676.338,531.158 675.5,531.5C 675.5,530.833 675.5,530.167 675.5,529.5 Z"/></g>
<g><path style="opacity:0.01" fill="#000000" d="M 669.5,539.5 C 669.833,539.5 670.167,539.5 670.5,539.5C 670.672,540.492 670.338,541.158 669.5,541.5C 669.5,540.833 669.5,540.167 669.5,539.5 Z"/></g>
<g><path style="opacity:0.012" fill="#000000" d="M 651.5,566.5 C 651.833,566.5 652.167,566.5 652.5,566.5C 652.315,567.17 651.981,567.17 651.5,566.5 Z"/></g>
<g><path style="opacity:0.012" fill="#000000" d="M 648.5,570.5 C 648.833,570.5 649.167,570.5 649.5,570.5C 649.315,571.17 648.981,571.17 648.5,570.5 Z"/></g>
<g><path style="opacity:0.008" fill="#000000" d="M 168.5,573.5 C 168.5,573.167 168.5,572.833 168.5,572.5C 170.027,572.427 171.027,573.094 171.5,574.5C 170.833,574.5 170.167,574.5 169.5,574.5C 169.5,573.833 169.167,573.5 168.5,573.5 Z"/></g>
<g><path style="opacity:0.016" fill="#000000" d="M 644.5,575.5 C 644.833,575.5 645.167,575.5 645.5,575.5C 645.315,576.17 644.981,576.17 644.5,575.5 Z"/></g>
<g><path style="opacity:0.016" fill="#000000" d="M 643.5,576.5 C 643.833,576.5 644.167,576.5 644.5,576.5C 644.315,577.17 643.981,577.17 643.5,576.5 Z"/></g>
<g><path style="opacity:0.008" fill="#000000" d="M 547.5,578.5 C 547.5,578.833 547.5,579.167 547.5,579.5C 546.833,579.5 546.5,579.833 546.5,580.5C 545.833,580.5 545.167,580.5 544.5,580.5C 544.973,579.094 545.973,578.427 547.5,578.5 Z"/></g>
<g><path style="opacity:0.016" fill="#4f504f" d="M 640.5,580.5 C 640.833,580.5 641.167,580.5 641.5,580.5C 641.315,581.17 640.981,581.17 640.5,580.5 Z"/></g>
<g><path style="opacity:0.016" fill="#000000" d="M 639.5,581.5 C 639.833,581.5 640.167,581.5 640.5,581.5C 640.315,582.17 639.981,582.17 639.5,581.5 Z"/></g>
<g><path style="opacity:0.012" fill="#000000" d="M 635.5,586.5 C 635.833,586.5 636.167,586.5 636.5,586.5C 636.315,587.17 635.981,587.17 635.5,586.5 Z"/></g>
<g><path style="opacity:0.016" fill="#000000" d="M 634.5,587.5 C 634.833,587.5 635.167,587.5 635.5,587.5C 635.315,588.17 634.981,588.17 634.5,587.5 Z"/></g>
<g><path style="opacity:0.016" fill="#4f504f" d="M 633.5,588.5 C 633.833,588.5 634.167,588.5 634.5,588.5C 634.315,589.17 633.981,589.17 633.5,588.5 Z"/></g>
<g><path style="opacity:0.008" fill="#000000" d="M 627.5,595.5 C 627.833,595.5 628.167,595.5 628.5,595.5C 628.315,596.17 627.981,596.17 627.5,595.5 Z"/></g>
<g><path style="opacity:0.012" fill="#000000" d="M 626.5,596.5 C 626.833,596.5 627.167,596.5 627.5,596.5C 627.315,597.17 626.981,597.17 626.5,596.5 Z"/></g>
<g><path style="opacity:0.012" fill="#676867" d="M 625.5,597.5 C 625.833,597.5 626.167,597.5 626.5,597.5C 626.315,598.17 625.981,598.17 625.5,597.5 Z"/></g>
<g><path style="opacity:0.012" fill="#686968" d="M 624.5,598.5 C 624.833,598.5 625.167,598.5 625.5,598.5C 625.315,599.17 624.981,599.17 624.5,598.5 Z"/></g>
<g><path style="opacity:0.016" fill="#000000" d="M 623.5,599.5 C 623.833,599.5 624.167,599.5 624.5,599.5C 624.315,600.17 623.981,600.17 623.5,599.5 Z"/></g>
<g><path style="opacity:0.016" fill="#4f504f" d="M 622.5,600.5 C 622.833,600.5 623.167,600.5 623.5,600.5C 623.315,601.17 622.981,601.17 622.5,600.5 Z"/></g>
<g><path style="opacity:0.016" fill="#000000" d="M 621.5,601.5 C 621.833,601.5 622.167,601.5 622.5,601.5C 622.315,602.17 621.981,602.17 621.5,601.5 Z"/></g>
<g><path style="opacity:0.016" fill="#000000" d="M 620.5,602.5 C 620.833,602.5 621.167,602.5 621.5,602.5C 621.315,603.17 620.981,603.17 620.5,602.5 Z"/></g>
<g><path style="opacity:0.012" fill="#000000" d="M 98.5,603.5 C 99.1667,603.5 99.5,603.833 99.5,604.5C 99.44,605.043 99.1067,605.376 98.5,605.5C 97.2267,604.743 97.2267,604.077 98.5,603.5 Z"/></g>
<g><path style="opacity:0.016" fill="#000000" d="M 619.5,603.5 C 619.833,603.5 620.167,603.5 620.5,603.5C 620.315,604.17 619.981,604.17 619.5,603.5 Z"/></g>
<g><path style="opacity:0.02" fill="#000000" d="M 618.5,604.5 C 618.833,604.5 619.167,604.5 619.5,604.5C 619.315,605.17 618.981,605.17 618.5,604.5 Z"/></g>
<g><path style="opacity:0.016" fill="#000000" d="M 617.5,605.5 C 617.833,605.5 618.167,605.5 618.5,605.5C 618.315,606.17 617.981,606.17 617.5,605.5 Z"/></g>
<g><path style="opacity:0.012" fill="#000000" d="M 101.5,606.5 C 102.167,606.5 102.5,606.833 102.5,607.5C 102.44,608.043 102.107,608.376 101.5,608.5C 100.227,607.743 100.227,607.077 101.5,606.5 Z"/></g>
<g><path style="opacity:0.016" fill="#000000" d="M 616.5,606.5 C 616.833,606.5 617.167,606.5 617.5,606.5C 617.315,607.17 616.981,607.17 616.5,606.5 Z"/></g>
<g><path style="opacity:0.016" fill="#4d4e4d" d="M 615.5,607.5 C 615.833,607.5 616.167,607.5 616.5,607.5C 616.315,608.17 615.981,608.17 615.5,607.5 Z"/></g>
<g><path style="opacity:0.016" fill="#4a4b4a" d="M 614.5,608.5 C 614.833,608.5 615.167,608.5 615.5,608.5C 615.315,609.17 614.981,609.17 614.5,608.5 Z"/></g>
<g><path style="opacity:0.016" fill="#4a4b4a" d="M 613.5,609.5 C 613.833,609.5 614.167,609.5 614.5,609.5C 614.315,610.17 613.981,610.17 613.5,609.5 Z"/></g>
<g><path style="opacity:0.016" fill="#4a4b4a" d="M 612.5,610.5 C 612.833,610.5 613.167,610.5 613.5,610.5C 613.315,611.17 612.981,611.17 612.5,610.5 Z"/></g>
<g><path style="opacity:0.016" fill="#494a49" d="M 611.5,611.5 C 611.833,611.5 612.167,611.5 612.5,611.5C 612.315,612.17 611.981,612.17 611.5,611.5 Z"/></g>
<g><path style="opacity:0.012" fill="#696a69" d="M 610.5,612.5 C 610.833,612.5 611.167,612.5 611.5,612.5C 611.315,613.17 610.981,613.17 610.5,612.5 Z"/></g>
<g><path style="opacity:0.012" fill="#000000" d="M 609.5,613.5 C 609.833,613.5 610.167,613.5 610.5,613.5C 610.315,614.17 609.981,614.17 609.5,613.5 Z"/></g>
<g><path style="opacity:0.012" fill="#000000" d="M 608.5,614.5 C 608.833,614.5 609.167,614.5 609.5,614.5C 609.315,615.17 608.981,615.17 608.5,614.5 Z"/></g>
<g><path style="opacity:0.008" fill="#000000" d="M 607.5,615.5 C 607.833,615.5 608.167,615.5 608.5,615.5C 608.315,616.17 607.981,616.17 607.5,615.5 Z"/></g>
<g><path style="opacity:0.008" fill="#000000" d="M 605.5,616.5 C 606.167,616.5 606.833,616.5 607.5,616.5C 606.738,618.262 605.404,619.262 603.5,619.5C 603.5,619.167 603.5,618.833 603.5,618.5C 604.167,618.5 604.5,618.167 604.5,617.5C 605.167,617.5 605.5,617.167 605.5,616.5 Z"/></g>
<g><path style="opacity:0.007" fill="#000000" d="M 448.5,619.5 C 448.5,619.167 448.5,618.833 448.5,618.5C 451.167,619.167 452.833,620.833 453.5,623.5C 453.167,623.5 452.833,623.5 452.5,623.5C 452.5,622.833 452.167,622.5 451.5,622.5C 451.5,621.833 451.167,621.5 450.5,621.5C 450.5,620.833 450.167,620.5 449.5,620.5C 449.5,619.833 449.167,619.5 448.5,619.5 Z"/></g>
<g><path style="opacity:0.016" fill="#000000" d="M 602.5,619.5 C 602.833,619.5 603.167,619.5 603.5,619.5C 603.315,620.17 602.981,620.17 602.5,619.5 Z"/></g>
<g><path style="opacity:0.016" fill="#000000" d="M 601.5,620.5 C 601.833,620.5 602.167,620.5 602.5,620.5C 602.315,621.17 601.981,621.17 601.5,620.5 Z"/></g>
<g><path style="opacity:0.016" fill="#000000" d="M 600.5,621.5 C 600.833,621.5 601.167,621.5 601.5,621.5C 601.315,622.17 600.981,622.17 600.5,621.5 Z"/></g>
<g><path style="opacity:0.012" fill="#6a6b6a" d="M 599.5,622.5 C 599.833,622.5 600.167,622.5 600.5,622.5C 600.315,623.17 599.981,623.17 599.5,622.5 Z"/></g>
<g><path style="opacity:0.008" fill="#000000" d="M 598.5,623.5 C 598.833,623.5 599.167,623.5 599.5,623.5C 599.315,624.17 598.981,624.17 598.5,623.5 Z"/></g>
<g><path style="opacity:0.008" fill="#000000" d="M 596.5,624.5 C 597.167,624.5 597.833,624.5 598.5,624.5C 598.027,625.906 597.027,626.573 595.5,626.5C 595.5,626.167 595.5,625.833 595.5,625.5C 596.167,625.5 596.5,625.167 596.5,624.5 Z"/></g>
<g><path style="opacity:1" fill="#0d0d0d" d="M 354.5,626.5 C 366.87,626.02 377.536,630.02 386.5,638.5C 386,638.833 385.5,639.167 385,639.5C 381.545,638.45 378.045,638.283 374.5,639C 366.293,643.108 357.626,644.775 348.5,644C 344.833,641.667 341.167,639.333 337.5,637C 333.251,635.874 328.918,635.208 324.5,635C 322.956,634.71 321.623,634.044 320.5,633C 332.134,631.682 343.467,629.515 354.5,626.5 Z"/></g>
<g><path style="opacity:1" fill="#0e0e0e" d="M 417.5,626.5 C 422.887,626.405 428.22,626.905 433.5,628C 436.414,628.133 438.747,629.3 440.5,631.5C 438.559,634.334 435.893,635.168 432.5,634C 427.311,631.406 422.311,628.906 417.5,626.5 Z"/></g>
<g><path style="opacity:0.01" fill="#000000" d="M 455.5,626.5 C 456.1,627.9 457.1,628.9 458.5,629.5C 458.5,629.833 458.5,630.167 458.5,630.5C 457.5,630.5 456.5,630.5 455.5,630.5C 455.5,630.167 455.5,629.833 455.5,629.5C 455.5,628.5 455.5,627.5 455.5,626.5 Z"/></g>
<g><path style="opacity:0.016" fill="#000000" d="M 594.5,626.5 C 594.833,626.5 595.167,626.5 595.5,626.5C 595.315,627.17 594.981,627.17 594.5,626.5 Z"/></g>
<g><path style="opacity:0.016" fill="#000000" d="M 593.5,627.5 C 593.833,627.5 594.167,627.5 594.5,627.5C 594.315,628.17 593.981,628.17 593.5,627.5 Z"/></g>
<g><path style="opacity:0.008" fill="#000000" d="M 592.5,628.5 C 592.833,628.5 593.167,628.5 593.5,628.5C 593.315,629.17 592.981,629.17 592.5,628.5 Z"/></g>
<g><path style="opacity:0.008" fill="#000000" d="M 590.5,630.5 C 590.5,630.167 590.5,629.833 590.5,629.5C 591.167,629.5 591.833,629.5 592.5,629.5C 592.158,630.338 591.492,630.672 590.5,630.5 Z"/></g>
<g><path style="opacity:1" fill="#f4f4f4" d="M 363.5,629.5 C 367.419,630.793 371.086,632.626 374.5,635C 371.113,637.185 367.446,638.685 363.5,639.5C 363.5,636.167 363.5,632.833 363.5,629.5 Z"/></g>
<g><path style="opacity:0.016" fill="#000000" d="M 589.5,630.5 C 589.833,630.5 590.167,630.5 590.5,630.5C 590.315,631.17 589.981,631.17 589.5,630.5 Z"/></g>
<g><path style="opacity:0.063" fill="#9d9d9d" d="M 454.5,629.5 C 454.833,629.5 455.167,629.5 455.5,629.5C 455.5,629.833 455.5,630.167 455.5,630.5C 455.5,631.167 455.833,631.5 456.5,631.5C 456.44,632.043 456.107,632.376 455.5,632.5C 454.614,631.675 454.281,630.675 454.5,629.5 Z"/></g>
<g><path style="opacity:0.016" fill="#000000" d="M 588.5,631.5 C 588.833,631.5 589.167,631.5 589.5,631.5C 589.315,632.17 588.981,632.17 588.5,631.5 Z"/></g>
<g><path style="opacity:1" fill="#e9e9e9" d="M 347.5,631.5 C 348.5,631.5 349.5,631.5 350.5,631.5C 350.503,634.675 351.503,637.508 353.5,640C 352.667,640.167 351.833,640.333 351,640.5C 346.948,638.796 343.115,636.629 339.5,634C 342.31,633.218 344.977,632.384 347.5,631.5 Z"/></g>
<g><path style="opacity:0.012" fill="#000000" d="M 587.5,632.5 C 587.833,632.5 588.167,632.5 588.5,632.5C 588.315,633.17 587.981,633.17 587.5,632.5 Z"/></g>
<g><path style="opacity:0.012" fill="#000000" d="M 583.5,635.5 C 583.833,635.5 584.167,635.5 584.5,635.5C 584.315,636.17 583.981,636.17 583.5,635.5 Z"/></g>
<g><path style="opacity:0.012" fill="#000000" d="M 579.5,638.5 C 579.833,638.5 580.167,638.5 580.5,638.5C 580.315,639.17 579.981,639.17 579.5,638.5 Z"/></g>
<g><path style="opacity:0.016" fill="#000000" d="M 575.5,641.5 C 575.833,641.5 576.167,641.5 576.5,641.5C 576.315,642.17 575.981,642.17 575.5,641.5 Z"/></g>
<g><path style="opacity:0.008" fill="#000000" d="M 574.5,642.5 C 574.833,642.5 575.167,642.5 575.5,642.5C 575.315,643.17 574.981,643.17 574.5,642.5 Z"/></g>
<g><path style="opacity:0.01" fill="#000000" d="M 572.5,644.5 C 572.5,644.167 572.5,643.833 572.5,643.5C 573.167,643.5 573.833,643.5 574.5,643.5C 574.158,644.338 573.492,644.672 572.5,644.5 Z"/></g>
<g><path style="opacity:0.012" fill="#000000" d="M 571.5,644.5 C 571.833,644.5 572.167,644.5 572.5,644.5C 572.315,645.17 571.981,645.17 571.5,644.5 Z"/></g>
<g><path style="opacity:0.008" fill="#000000" d="M 569.5,646.5 C 569.5,646.167 569.5,645.833 569.5,645.5C 570.167,645.5 570.833,645.5 571.5,645.5C 571.158,646.338 570.492,646.672 569.5,646.5 Z"/></g>
<g><path style="opacity:0.012" fill="#000000" d="M 568.5,646.5 C 568.833,646.5 569.167,646.5 569.5,646.5C 569.315,647.17 568.981,647.17 568.5,646.5 Z"/></g>
<g><path style="opacity:0.008" fill="#000000" d="M 566.5,648.5 C 566.5,648.167 566.5,647.833 566.5,647.5C 567.167,647.5 567.833,647.5 568.5,647.5C 568.158,648.338 567.492,648.672 566.5,648.5 Z"/></g>
<g><path style="opacity:0.016" fill="#000000" d="M 565.5,648.5 C 565.833,648.5 566.167,648.5 566.5,648.5C 566.315,649.17 565.981,649.17 565.5,648.5 Z"/></g>
<g><path style="opacity:0.008" fill="#000000" d="M 563.5,650.5 C 563.5,650.167 563.5,649.833 563.5,649.5C 564.167,649.5 564.833,649.5 565.5,649.5C 565.158,650.338 564.492,650.672 563.5,650.5 Z"/></g>
<g><path style="opacity:0.016" fill="#000000" d="M 562.5,650.5 C 562.833,650.5 563.167,650.5 563.5,650.5C 563.315,651.17 562.981,651.17 562.5,650.5 Z"/></g>
<g><path style="opacity:0.008" fill="#000000" d="M 560.5,652.5 C 560.5,652.167 560.5,651.833 560.5,651.5C 561.167,651.5 561.833,651.5 562.5,651.5C 562.158,652.338 561.492,652.672 560.5,652.5 Z"/></g>
<g><path style="opacity:0.016" fill="#000000" d="M 559.5,652.5 C 559.833,652.5 560.167,652.5 560.5,652.5C 560.315,653.17 559.981,653.17 559.5,652.5 Z"/></g>
<g><path style="opacity:0.008" fill="#000000" d="M 557.5,654.5 C 557.5,654.167 557.5,653.833 557.5,653.5C 558.167,653.5 558.833,653.5 559.5,653.5C 559.158,654.338 558.492,654.672 557.5,654.5 Z"/></g>
<g><path style="opacity:0.012" fill="#000000" d="M 556.5,654.5 C 556.833,654.5 557.167,654.5 557.5,654.5C 557.315,655.17 556.981,655.17 556.5,654.5 Z"/></g>
<g><path style="opacity:0.01" fill="#000000" d="M 554.5,656.5 C 554.5,656.167 554.5,655.833 554.5,655.5C 555.167,655.5 555.833,655.5 556.5,655.5C 556.158,656.338 555.492,656.672 554.5,656.5 Z"/></g>
<g><path style="opacity:0.016" fill="#000000" d="M 551.5,657.5 C 551.833,657.5 552.167,657.5 552.5,657.5C 552.315,658.17 551.981,658.17 551.5,657.5 Z"/></g>
<g><path style="opacity:0.008" fill="#000000" d="M 549.5,659.5 C 549.5,659.167 549.5,658.833 549.5,658.5C 550.167,658.5 550.833,658.5 551.5,658.5C 551.158,659.338 550.492,659.672 549.5,659.5 Z"/></g>
<g><path style="opacity:0.012" fill="#000000" d="M 548.5,659.5 C 548.833,659.5 549.167,659.5 549.5,659.5C 549.315,660.17 548.981,660.17 548.5,659.5 Z"/></g>
<g><path style="opacity:0.01" fill="#000000" d="M 546.5,661.5 C 546.5,661.167 546.5,660.833 546.5,660.5C 547.167,660.5 547.833,660.5 548.5,660.5C 548.158,661.338 547.492,661.672 546.5,661.5 Z"/></g>
<g><path style="opacity:0.01" fill="#000000" d="M 544.5,662.5 C 544.5,662.167 544.5,661.833 544.5,661.5C 545.167,661.5 545.833,661.5 546.5,661.5C 546.158,662.338 545.492,662.672 544.5,662.5 Z"/></g>
<g><path style="opacity:0.006" fill="#000000" d="M 542.5,663.5 C 542.5,663.167 542.5,662.833 542.5,662.5C 543.167,662.5 543.833,662.5 544.5,662.5C 544.158,663.338 543.492,663.672 542.5,663.5 Z"/></g>
<g><path style="opacity:0.012" fill="#000000" d="M 541.5,663.5 C 541.833,663.5 542.167,663.5 542.5,663.5C 542.315,664.17 541.981,664.17 541.5,663.5 Z"/></g>
<g><path style="opacity:0.01" fill="#000000" d="M 539.5,665.5 C 539.5,665.167 539.5,664.833 539.5,664.5C 540.167,664.5 540.833,664.5 541.5,664.5C 541.158,665.338 540.492,665.672 539.5,665.5 Z"/></g>
<g><path style="opacity:0.01" fill="#000000" d="M 537.5,666.5 C 537.5,666.167 537.5,665.833 537.5,665.5C 538.167,665.5 538.833,665.5 539.5,665.5C 539.158,666.338 538.492,666.672 537.5,666.5 Z"/></g>
<g><path style="opacity:0.006" fill="#000000" d="M 535.5,667.5 C 535.5,667.167 535.5,666.833 535.5,666.5C 536.167,666.5 536.833,666.5 537.5,666.5C 537.158,667.338 536.492,667.672 535.5,667.5 Z"/></g>
<g><path style="opacity:0.012" fill="#000000" d="M 534.5,667.5 C 534.833,667.5 535.167,667.5 535.5,667.5C 535.315,668.17 534.981,668.17 534.5,667.5 Z"/></g>
<g><path style="opacity:0.012" fill="#000000" d="M 532.5,668.5 C 533.833,669.167 533.833,669.167 532.5,668.5 Z"/></g>
<g><path style="opacity:0.008" fill="#000000" d="M 530.5,670.5 C 530.5,670.167 530.5,669.833 530.5,669.5C 531.167,669.5 531.833,669.5 532.5,669.5C 532.158,670.338 531.492,670.672 530.5,670.5 Z"/></g>
<g><path style="opacity:0.008" fill="#000000" d="M 187.5,670.5 C 187.5,670.833 187.5,671.167 187.5,671.5C 184.833,671.167 184.833,670.833 187.5,670.5 Z"/></g>
<g><path style="opacity:0.008" fill="#000000" d="M 528.5,671.5 C 528.5,671.167 528.5,670.833 528.5,670.5C 529.167,670.5 529.833,670.5 530.5,670.5C 530.158,671.338 529.492,671.672 528.5,671.5 Z"/></g>
<g><path style="opacity:0.012" fill="#000000" d="M 187.5,671.5 C 188.833,672.167 188.833,672.167 187.5,671.5 Z"/></g>
<g><path style="opacity:0.008" fill="#000000" d="M 526.5,672.5 C 526.5,672.167 526.5,671.833 526.5,671.5C 527.167,671.5 527.833,671.5 528.5,671.5C 528.158,672.338 527.492,672.672 526.5,672.5 Z"/></g>
<g><path style="opacity:0.012" fill="#000000" d="M 189.5,672.5 C 190.833,673.167 190.833,673.167 189.5,672.5 Z"/></g>
<g><path style="opacity:0.01" fill="#000000" d="M 524.5,673.5 C 524.5,673.167 524.5,672.833 524.5,672.5C 525.167,672.5 525.833,672.5 526.5,672.5C 526.158,673.338 525.492,673.672 524.5,673.5 Z"/></g>
<g><path style="opacity:0.01" fill="#000000" d="M 522.5,674.5 C 522.5,674.167 522.5,673.833 522.5,673.5C 523.167,673.5 523.833,673.5 524.5,673.5C 524.158,674.338 523.492,674.672 522.5,674.5 Z"/></g>
<g><path style="opacity:0.008" fill="#000000" d="M 194.5,674.5 C 194.103,675.525 193.437,675.692 192.5,675C 193.094,674.536 193.761,674.369 194.5,674.5 Z"/></g>
<g><path style="opacity:0.008" fill="#000000" d="M 520.5,675.5 C 520.5,675.167 520.5,674.833 520.5,674.5C 521.167,674.5 521.833,674.5 522.5,674.5C 522.158,675.338 521.492,675.672 520.5,675.5 Z"/></g>
<g><path style="opacity:0.012" fill="#000000" d="M 196.5,675.5 C 195.833,676.167 195.833,676.167 196.5,675.5 Z"/></g>
<g><path style="opacity:0.01" fill="#000000" d="M 518.5,675.5 C 519.167,675.5 519.833,675.5 520.5,675.5C 519.833,676.833 519.167,676.833 518.5,675.5 Z"/></g>
<g><path style="opacity:0.008" fill="#000000" d="M 515.5,677.5 C 515.5,677.167 515.5,676.833 515.5,676.5C 518.167,676.833 518.167,677.167 515.5,677.5 Z"/></g>
<g><path style="opacity:0.008" fill="#000000" d="M 200.5,677.5 C 200.5,677.833 200.5,678.167 200.5,678.5C 197.833,678.167 197.833,677.833 200.5,677.5 Z"/></g>
<g><path style="opacity:0.01" fill="#000000" d="M 513.5,678.5 C 513.5,678.167 513.5,677.833 513.5,677.5C 514.167,677.5 514.833,677.5 515.5,677.5C 515.158,678.338 514.492,678.672 513.5,678.5 Z"/></g>
<g><path style="opacity:0.008" fill="#000000" d="M 200.5,678.5 C 201.239,678.369 201.906,678.536 202.5,679C 201.563,679.692 200.897,679.525 200.5,678.5 Z"/></g>
<g><path style="opacity:0.008" fill="#000000" d="M 511.5,679.5 C 511.5,679.167 511.5,678.833 511.5,678.5C 512.167,678.5 512.833,678.5 513.5,678.5C 513.158,679.338 512.492,679.672 511.5,679.5 Z"/></g>
<g><path style="opacity:0.01" fill="#000000" d="M 509.5,680.5 C 509.5,680.167 509.5,679.833 509.5,679.5C 510.167,679.5 510.833,679.5 511.5,679.5C 511.158,680.338 510.492,680.672 509.5,680.5 Z"/></g>
<g><path style="opacity:0.01" fill="#000000" d="M 507.5,681.5 C 507.5,681.167 507.5,680.833 507.5,680.5C 508.167,680.5 508.833,680.5 509.5,680.5C 509.158,681.338 508.492,681.672 507.5,681.5 Z"/></g>
<g><path style="opacity:0.008" fill="#000000" d="M 504.5,682.5 C 504.5,682.167 504.5,681.833 504.5,681.5C 505.5,681.5 506.5,681.5 507.5,681.5C 506.791,682.404 505.791,682.737 504.5,682.5 Z"/></g>
<g><path style="opacity:0.01" fill="#000000" d="M 502.5,683.5 C 502.5,683.167 502.5,682.833 502.5,682.5C 503.167,682.5 503.833,682.5 504.5,682.5C 504.158,683.338 503.492,683.672 502.5,683.5 Z"/></g>
<g><path style="opacity:0.008" fill="#000000" d="M 499.5,684.5 C 499.5,684.167 499.5,683.833 499.5,683.5C 500.5,683.5 501.5,683.5 502.5,683.5C 501.791,684.404 500.791,684.737 499.5,684.5 Z"/></g>
<g><path style="opacity:0.012" fill="#000000" d="M 497.5,685.5 C 497.5,685.167 497.5,684.833 497.5,684.5C 498.167,684.5 498.833,684.5 499.5,684.5C 499.158,685.338 498.492,685.672 497.5,685.5 Z"/></g>
<g><path style="opacity:0.01" fill="#000000" d="M 495.5,686.5 C 495.5,686.167 495.5,685.833 495.5,685.5C 496.167,685.5 496.833,685.5 497.5,685.5C 497.158,686.338 496.492,686.672 495.5,686.5 Z"/></g>
<g><path style="opacity:0.009" fill="#000000" d="M 492.5,687.5 C 492.5,687.167 492.5,686.833 492.5,686.5C 493.5,686.5 494.5,686.5 495.5,686.5C 494.791,687.404 493.791,687.737 492.5,687.5 Z"/></g>
<g><path style="opacity:0.008" fill="#000000" d="M 489.5,688.5 C 489.5,688.167 489.5,687.833 489.5,687.5C 490.5,687.5 491.5,687.5 492.5,687.5C 491.791,688.404 490.791,688.737 489.5,688.5 Z"/></g>
<g><path style="opacity:0.012" fill="#000000" d="M 487.5,689.5 C 487.5,689.167 487.5,688.833 487.5,688.5C 488.167,688.5 488.833,688.5 489.5,688.5C 489.158,689.338 488.492,689.672 487.5,689.5 Z"/></g>
<g><path style="opacity:0.008" fill="#000000" d="M 484.5,690.5 C 484.5,690.167 484.5,689.833 484.5,689.5C 485.5,689.5 486.5,689.5 487.5,689.5C 486.791,690.404 485.791,690.737 484.5,690.5 Z"/></g>
<g><path style="opacity:0.009" fill="#000000" d="M 481.5,691.5 C 481.5,691.167 481.5,690.833 481.5,690.5C 482.5,690.5 483.5,690.5 484.5,690.5C 483.791,691.404 482.791,691.737 481.5,691.5 Z"/></g>
<g><path style="opacity:0.009" fill="#000000" d="M 234.5,691.5 C 234.5,691.833 234.5,692.167 234.5,692.5C 230.5,692.167 230.5,691.833 234.5,691.5 Z"/></g>
<g><path style="opacity:0.009" fill="#000000" d="M 478.5,692.5 C 478.5,692.167 478.5,691.833 478.5,691.5C 479.5,691.5 480.5,691.5 481.5,691.5C 480.791,692.404 479.791,692.737 478.5,692.5 Z"/></g>
<g><path style="opacity:0.012" fill="#000000" d="M 234.5,692.5 C 235.239,692.369 235.906,692.536 236.5,693C 235.563,693.692 234.897,693.525 234.5,692.5 Z"/></g>
<g><path style="opacity:0.008" fill="#000000" d="M 475.5,693.5 C 475.5,693.167 475.5,692.833 475.5,692.5C 476.5,692.5 477.5,692.5 478.5,692.5C 477.791,693.404 476.791,693.737 475.5,693.5 Z"/></g>
<g><path style="opacity:0.009" fill="#000000" d="M 472.5,694.5 C 472.5,694.167 472.5,693.833 472.5,693.5C 473.5,693.5 474.5,693.5 475.5,693.5C 474.791,694.404 473.791,694.737 472.5,694.5 Z"/></g>
<g><path style="opacity:0.009" fill="#000000" d="M 469.5,695.5 C 469.5,695.167 469.5,694.833 469.5,694.5C 470.5,694.5 471.5,694.5 472.5,694.5C 471.791,695.404 470.791,695.737 469.5,695.5 Z"/></g>
<g><path style="opacity:0.01" fill="#000000" d="M 469.5,695.5 C 468.749,696.573 467.749,696.74 466.5,696C 467.448,695.517 468.448,695.351 469.5,695.5 Z"/></g>
<g><path style="opacity:0.01" fill="#000000" d="M 462.5,697.5 C 462.5,697.167 462.5,696.833 462.5,696.5C 466.5,696.833 466.5,697.167 462.5,697.5 Z"/></g>
<g><path style="opacity:0.008" fill="#1a1a1a" d="M 458.5,698.5 C 458.5,698.167 458.5,697.833 458.5,697.5C 459.833,697.5 461.167,697.5 462.5,697.5C 461.432,698.434 460.099,698.768 458.5,698.5 Z"/></g>
<g><path style="opacity:0.01" fill="#000000" d="M 455.5,699.5 C 455.5,699.167 455.5,698.833 455.5,698.5C 456.5,698.5 457.5,698.5 458.5,698.5C 457.791,699.404 456.791,699.737 455.5,699.5 Z"/></g>
<g><path style="opacity:0.012" fill="#000000" d="M 258.5,699.5 C 258.5,699.833 258.5,700.167 258.5,700.5C 254.5,700.167 254.5,699.833 258.5,699.5 Z"/></g>
<g><path style="opacity:0.009" fill="#000000" d="M 451.5,700.5 C 451.5,700.167 451.5,699.833 451.5,699.5C 452.833,699.5 454.167,699.5 455.5,699.5C 454.432,700.434 453.099,700.768 451.5,700.5 Z"/></g>
<g><path style="opacity:0.013" fill="#0a0a0a" d="M 258.5,700.5 C 260.527,700.338 262.527,700.505 264.5,701C 262.288,701.789 260.288,701.622 258.5,700.5 Z"/></g>
<g><path style="opacity:0.014" fill="#1a1a1a" d="M 447.5,701.5 C 447.5,701.167 447.5,700.833 447.5,700.5C 448.833,700.5 450.167,700.5 451.5,700.5C 450.432,701.434 449.099,701.768 447.5,701.5 Z"/></g>
<g><path style="opacity:0.005" fill="#0f0f0f" d="M 265.5,702.5 C 267.628,701.371 269.961,701.204 272.5,702C 270.19,702.497 267.857,702.663 265.5,702.5 Z"/></g>
<g><path style="opacity:0.006" fill="#171717" d="M 447.5,701.5 C 446.399,702.598 445.066,702.765 443.5,702C 444.793,701.51 446.127,701.343 447.5,701.5 Z"/></g>
<g><path style="opacity:0.011" fill="#000000" d="M 438.5,703.5 C 438.5,703.167 438.5,702.833 438.5,702.5C 443.833,702.833 443.833,703.167 438.5,703.5 Z"/></g>
<g><path style="opacity:0.008" fill="#000000" d="M 282.5,704.5 C 282.5,704.833 282.5,705.167 282.5,705.5C 278.5,705.167 278.5,704.833 282.5,704.5 Z"/></g>
<g><path style="opacity:0.01" fill="#000000" d="M 282.5,705.5 C 283.239,705.369 283.906,705.536 284.5,706C 283.563,706.692 282.897,706.525 282.5,705.5 Z"/></g>
<g><path style="opacity:0.014" fill="#0f0f0f" d="M 298.5,709.5 C 298.5,709.833 298.5,710.167 298.5,710.5C 291.833,710.167 291.833,709.833 298.5,709.5 Z"/></g>
<g><path style="opacity:0.013" fill="#131313" d="M 312.5,710.5 C 316.646,709.353 320.98,709.186 325.5,710C 321.179,710.499 316.846,710.666 312.5,710.5 Z"/></g>
<g><path style="opacity:0.007" fill="#000000" d="M 298.5,710.5 C 302.846,710.334 307.179,710.501 311.5,711C 306.98,711.814 302.646,711.647 298.5,710.5 Z"/></g>
<g><path style="opacity:0.008" fill="#000000" d="M 429.5,712.5 C 429.833,712.5 430.167,712.5 430.5,712.5C 430.315,713.17 429.981,713.17 429.5,712.5 Z"/></g>
<g><path style="opacity:0.008" fill="#000000" d="M 428.5,713.5 C 428.833,713.5 429.167,713.5 429.5,713.5C 429.315,714.17 428.981,714.17 428.5,713.5 Z"/></g>
<g><path style="opacity:0.012" fill="#000000" d="M 424.5,716.5 C 424.833,716.5 425.167,716.5 425.5,716.5C 425.315,717.17 424.981,717.17 424.5,716.5 Z"/></g>
<g><path style="opacity:0.006" fill="#000000" d="M 422.5,718.5 C 422.5,718.167 422.5,717.833 422.5,717.5C 423.167,717.5 423.833,717.5 424.5,717.5C 424.158,718.338 423.492,718.672 422.5,718.5 Z"/></g>
<g><path style="opacity:0.014" fill="#090909" d="M 387.5,719.5 C 388.919,718.549 390.585,718.216 392.5,718.5C 392.5,718.833 392.5,719.167 392.5,719.5C 390.833,719.5 389.167,719.5 387.5,719.5 Z"/></g>
<g><path style="opacity:0.012" fill="#000000" d="M 420.5,719.5 C 420.5,719.167 420.5,718.833 420.5,718.5C 421.167,718.5 421.833,718.5 422.5,718.5C 422.5,718.833 422.5,719.167 422.5,719.5C 421.833,719.5 421.167,719.5 420.5,719.5 Z"/></g>
</svg>
