<?xml version="1.0" encoding="UTF-8" standalone="no"?>
<!-- Created with Inkscape (http://www.inkscape.org/) -->

<svg
   width="190.31091mm"
   height="190.34164mm"
   viewBox="0 0 190.31091 190.34164"
   version="1.1"
   id="svg1"
   xml:space="preserve"
   xmlns="http://www.w3.org/2000/svg"
   xmlns:svg="http://www.w3.org/2000/svg"><defs
     id="defs1" /><g
     id="layer1"
     transform="translate(-9.8949721,-53.410834)"><path
       style="fill:#d4af37;fill-opacity:1"
       d="m 115.05417,243.59237 c -0.36381,-0.065 -2.92365,-0.63677 -5.68855,-1.27059 -7.74346,-1.77512 -8.13815,-1.82175 -13.229162,-1.56306 -6.941976,0.35275 -7.269913,0.32544 -10.847916,-0.90345 -1.74625,-0.59977 -3.889375,-1.16332 -4.7625,-1.25234 -4.63911,-0.473 -15.837021,-4.92278 -23.547917,-9.35738 C 42.977079,221.19343 30.957703,209.43809 22.876459,195.89302 16.393629,185.02708 12.416756,173.88236 10.48206,161.15918 9.9861337,157.89781 9.9080139,156.23216 9.8960713,148.6649 9.8820142,139.75785 9.9877298,138.28409 11.10124,131.86386 15.475111,106.64518 30.510371,83.670601 52.08405,69.240221 64.657413,60.830046 78.267313,55.805649 94.019792,53.75871 c 3.569492,-0.463834 18.390928,-0.463834 21.960418,0 22.68313,2.947536 42.24136,12.651044 57.57797,28.566419 14.31033,14.85036 23.06706,32.970271 26.05012,53.904351 0.57274,4.01932 0.79804,15.78079 0.38873,20.29376 -2.90103,31.98654 -22.14081,59.89693 -51.4239,74.59863 -6.16636,3.09585 -14.15256,6.00008 -20.59686,7.49017 -2.87129,0.66392 -3.10721,0.76654 -3.40278,1.48012 -0.40316,0.97329 -2.39697,2.82209 -3.57368,3.31375 -0.85977,0.35923 -4.36358,0.46911 -5.94564,0.18646 z m 5.20829,-1.94266 c 0.69589,-0.26236 2.46525,-1.76036 2.46411,-2.08619 -2.8e-4,-0.0806 -1.75645,-0.15395 -3.9026,-0.16302 -4.49753,-0.019 -5.80781,-0.29216 -10.25209,-2.13733 -4.84481,-2.01146 -7.03062,-2.70136 -9.525005,-3.00633 C 95.993222,233.8835 95.475,233.74807 95.475,233.3234 c 0,-0.45805 1.072131,-0.77695 4.82294,-1.43456 4.52994,-0.7942 6.94623,-1.73576 10.31004,-4.01751 0.82882,-0.56221 2.35044,-1.44552 3.38139,-1.96292 1.75448,-0.88051 2.97723,-1.24153 7.94396,-2.34549 1.09141,-0.24259 3.03339,-0.82279 4.31552,-1.28934 2.30788,-0.8398 2.32961,-0.85609 2.17811,-1.63244 -0.41133,-2.10786 -3.20179,-3.31783 -7.64598,-3.31539 -2.96275,0.002 -4.66848,0.34398 -4.66848,0.937 0,0.21144 -0.0884,0.38444 -0.19656,0.38444 -0.10811,0 -1.80475,-0.55531 -3.77032,-1.23403 -3.08165,-1.06411 -3.93807,-1.25055 -6.21958,-1.35404 -2.97453,-0.13493 -6.655832,0.3251 -12.303123,1.53745 -1.964532,0.42174 -5.23875,1.08237 -7.276042,1.46806 -2.037292,0.38569 -4.549141,0.97442 -5.581888,1.30828 -2.929902,0.94719 -5.666634,1.27412 -10.822279,1.29283 -6.302102,0.0229 -7.771969,-0.30879 -11.385022,-2.56897 C 48.617143,212.87835 39.660432,204.15301 33.109053,194.30552 25.474404,182.82976 20.788182,169.66802 19.524537,156.152 19.068671,151.27603 19.333338,140.64169 20.020575,136.22115 22.215057,122.1055 26.965065,110.24067 34.962298,98.898889 40.397203,91.191037 47.79276,83.822103 55.610834,78.324685 66.816712,70.445072 78.526784,65.786721 92.825845,63.520286 95.9439,63.026067 97.500545,62.953609 105,62.953609 c 9.32557,0 11.73163,0.234367 18.92103,1.843036 16.01666,3.583818 30.28035,11.508095 41.9863,23.325734 3.92572,3.963167 6.31293,6.780782 9.13037,10.77651 8.02082,11.375231 12.69493,23.068051 14.97416,37.459561 0.78305,4.94436 0.83884,18.5757 0.0953,23.28666 -2.31918,14.69406 -7.57996,26.88325 -16.67212,38.62916 -2.68462,3.4682 -9.76265,10.60609 -13.2706,13.38285 -13.81449,10.93503 -29.89262,17.32107 -47.56616,18.89272 -4.12651,0.36695 -7.95376,1.8706 -7.53551,2.96055 0.36673,0.95567 5.6298,3.09027 9.39619,3.8109 3.75878,0.71917 7.4702,0.34372 14.64986,-1.482 10.35947,-2.6343 21.87065,-8.0011 30.75674,-14.33956 8.67755,-6.1897 16.90294,-14.64909 22.84028,-23.49004 8.10311,-12.06587 12.69712,-24.69838 14.67356,-40.34896 0.50939,-4.03364 0.43481,-15.05672 -0.13336,-19.71146 C 193.39485,106.39833 174.88219,79.816119 146.93646,65.710056 133.41755,58.886169 120.40852,55.817378 105,55.817378 c -15.408518,0 -28.417555,3.068791 -41.936458,9.892678 C 20.899662,86.992962 1.4318596,136.75453 18.13677,180.54719 c 0.804889,2.11005 2.531535,5.94607 3.836991,8.52449 10.933489,21.5948 29.909663,37.83291 53.239527,45.5576 3.75579,1.24358 4.50077,1.22104 2.137754,-0.0647 -2.145967,-1.16762 -2.555429,-1.8945 -1.067194,-1.8945 1.11774,0 1.792367,0.32787 6.226569,3.02614 6.180044,3.76064 8.377777,4.2369 14.216812,3.08091 3.604831,-0.71367 4.729771,-0.59643 11.712351,1.22068 7.20082,1.8739 10.14346,2.28504 11.82288,1.65187 z m -5.34058,-0.40956 c -1.16417,-0.20807 -3.60495,-0.77973 -5.42396,-1.27037 -7.70755,-2.07893 -9.05921,-2.23102 -13.076864,-1.47139 -4.463905,0.84401 -6.447345,0.68518 -9.532494,-0.76332 -1.302801,-0.61168 -3.849502,-2.0206 -5.659334,-3.13094 -2.601442,-1.596 -3.558999,-2.04459 -4.572133,-2.14194 -1.025407,-0.0985 -1.315271,-0.0352 -1.450359,0.31683 -0.208474,0.54327 0.459591,1.31932 1.510459,1.75461 0.430708,0.1784 0.737452,0.37003 0.681653,0.42582 -0.129793,0.1298 -4.748837,-1.47656 -8.217666,-2.85784 C 51.500165,225.06108 35.461842,211.42574 25.51098,194.97442 16.921003,180.77299 12.590472,165.2699 12.575185,148.6649 12.5693,142.27276 12.844481,138.63485 13.742803,133.22887 19.764421,96.991638 46.638426,67.781913 82.144427,58.882205 90.312315,56.834894 96.318366,56.105126 105,56.105126 c 8.68163,0 14.68768,0.729768 22.85557,2.777079 28.62847,7.17583 52.17876,27.80228 63.08702,55.254565 8.67256,21.82584 8.74464,46.03126 0.20037,67.29013 -4.58123,11.39851 -11.02321,21.11551 -19.85755,29.9529 -11.77961,11.78367 -25.73789,19.76715 -42.12192,24.09176 -7.43884,1.96351 -10.36022,2.27977 -14.45787,1.5652 -4.08588,-0.71252 -9.7707,-3.09002 -9.28143,-3.88168 0.0982,-0.15883 1.02514,-0.6773 2.05995,-1.15215 1.4384,-0.66005 2.41111,-0.90562 4.13044,-1.04277 3.12882,-0.24958 9.17198,-1.12605 12.17084,-1.7652 30.05362,-6.40539 54.48801,-28.11072 63.59829,-56.49503 2.58427,-8.05166 3.69223,-15.40695 3.68028,-24.43191 -0.018,-13.62987 -2.78278,-25.46439 -8.80806,-37.70312 -7.19087,-14.60629 -17.7414,-26.309315 -31.67994,-35.140538 -3.5224,-2.231733 -11.39517,-6.131333 -15.2812,-7.569205 C 125.30521,64.158909 115.81258,62.472203 105,62.472203 c -13.859864,0 -25.626006,2.728497 -37.967708,8.80448 -14.60629,7.190869 -26.309315,17.741393 -35.140538,31.679937 -2.231733,3.5224 -6.131333,11.39516 -7.569205,15.2812 -5.540644,14.9743 -6.892033,31.29877 -3.842095,46.41162 4.103281,20.3323 15.655942,38.4476 32.479896,50.93052 3.623868,2.68881 7.060844,4.86231 8.647983,5.46888 3.863603,1.47658 14.748979,1.24911 19.307949,-0.40348 1.548777,-0.56142 17.405351,-3.73532 20.644138,-4.13219 3.98033,-0.48775 6.1865,-0.23843 10.3945,1.17466 2.00459,0.67317 3.80576,1.22394 4.00258,1.22394 0.19683,0 0.41744,-0.22782 0.49026,-0.50628 0.17146,-0.65566 2.23281,-0.93432 5.60617,-0.75787 3.14169,0.16433 5.20041,1.01747 5.87649,2.43524 0.24627,0.51641 0.39665,0.98413 0.33419,1.03938 -0.50162,0.44364 -5.75256,2.09559 -8.07745,2.54117 -3.71082,0.71121 -5.88129,1.54846 -8.76199,3.37992 -5.04014,3.20435 -6.1461,3.64268 -11.848339,4.69584 -3.932571,0.72632 -4.270365,0.82817 -4.469743,1.34774 -0.250051,0.65163 0.938781,1.1337 3.542912,1.43668 2.89899,0.33728 4.7688,0.89977 8.94402,2.69059 4.62494,1.98372 6.21658,2.35939 10.70379,2.5264 3.45641,0.12864 3.86681,0.19162 3.57187,0.54811 -0.5713,0.69055 -2.39704,1.36643 -3.64051,1.3477 -0.65485,-0.01 -2.14313,-0.18817 -3.30729,-0.39624 z m -7.04447,-17.81829 c 1.72214,-0.63497 2.25444,-0.72636 3.10617,-0.53326 0.80005,0.18138 1.11585,0.14366 1.42475,-0.17016 0.35352,-0.35913 0.31302,-0.47081 -0.37078,-1.02232 -0.42222,-0.34053 -1.65597,-1.12739 -2.74167,-1.74858 -2.45962,-1.40729 -3.83292,-1.57035 -6.80942,-0.80853 -1.16417,0.29797 -3.247762,0.67353 -4.63021,0.83459 -3.181192,0.37061 -3.439583,0.45082 -3.439583,1.06763 0,0.54975 0.329542,0.66189 2.606794,0.88703 0.887125,0.0877 1.868218,0.41528 2.62623,0.87686 2.888829,1.75914 2.738399,1.70756 4.493089,1.54062 0.91098,-0.0867 2.59156,-0.50242 3.73463,-0.92388 z m -5.52324,0.59776 c -0.21828,-0.0775 -1.12866,-0.60951 -2.02306,-1.18232 -1.331356,-0.85266 -1.965622,-1.07774 -3.498479,-1.24153 -3.315179,-0.35423 -2.874534,-0.88099 1.117962,-1.33645 1.47608,-0.16839 3.568697,-0.54048 4.650267,-0.82686 2.40297,-0.63626 3.37678,-0.65188 4.84118,-0.0776 1.38861,0.54451 4.96507,2.77687 4.96578,3.09954 2.8e-4,0.12941 -0.608,0.16322 -1.35174,0.0751 -1.08403,-0.12839 -1.65639,-0.0322 -2.88558,0.48521 -1.38712,0.58383 -2.04942,0.73399 -4.62571,1.04878 -0.43656,0.0533 -0.97234,0.0336 -1.19062,-0.0439 z m 0.79375,-1.23908 c 0,-0.055 -0.18581,-0.54467 -0.41291,-1.0882 -0.37859,-0.90609 -0.48029,-0.97474 -1.2237,-0.82606 -0.44593,0.0892 -0.99056,0.16216 -1.21027,0.16216 -0.26298,0 -0.16575,0.18386 0.28454,0.53805 1.09281,0.85961 2.56234,1.55588 2.56234,1.21405 z m 4.73155,-0.83984 1.15968,-0.46872 -1.15968,-0.60669 c -1.6663,-0.87173 -1.82114,-0.82171 -1.82114,0.58833 0,0.86893 0.095,1.18116 0.33073,1.08737 0.1819,-0.0724 0.85259,-0.34249 1.49041,-0.60029 z m 18.22833,-0.53039 c 0.666,-0.46649 0.76617,-1.22757 0.22109,-1.67994 -0.47443,-0.39375 -3.6814,-1.07266 -5.09485,-1.07858 -0.79636,-0.003 -1.14404,0.12014 -1.27117,0.45144 -0.18992,0.49491 0.45368,1.12616 1.16114,1.13887 0.22685,0.004 1.18635,0.35793 2.13224,0.78634 2.0129,0.91169 2.08193,0.92093 2.85155,0.38187 z m -1.52863,-0.11764 c -0.36381,-0.10143 -1.13771,-0.42597 -1.71979,-0.7212 -0.58209,-0.29523 -1.44529,-0.62031 -1.91823,-0.72239 -0.91182,-0.19681 -1.12464,-0.58774 -0.459,-0.84317 0.50732,-0.19468 4.46991,0.37517 5.32821,0.76624 1.3264,0.60435 0.25014,1.93352 -1.23119,1.52052 z m -5.07009,6.57278 c 18.71615,-3.02376 36.42566,-12.56057 48.80158,-26.28032 11.47324,-12.71906 18.47348,-28.16504 20.32656,-44.85044 0.42976,-3.86962 0.43779,-13.01477 0.0147,-16.80104 C 186.26548,118.57406 176.4755,99.497957 160.82708,85.715954 147.31813,73.818241 131.64512,66.903461 113.59896,64.879377 c -3.74684,-0.420251 -13.45108,-0.420251 -17.197918,0 -15.674204,1.758042 -29.994541,7.401844 -42.06875,16.579755 -18.73482,14.24081 -30.33516,34.805498 -32.984907,58.474518 -0.423275,3.78093 -0.418043,13.22221 0.0094,16.93333 2.125631,18.45576 9.576865,34.5033 22.170554,47.74818 4.494883,4.7273 11.057691,10.0348 16.393365,13.2577 2.841596,1.7164 4.570836,2.08704 9.757437,2.09137 l 3.96875,0.003 -2.558559,-1.15384 C 54.652655,211.40172 40.650219,197.59168 32.799376,181.05086 23.555045,161.57411 23.02174,138.99688 31.324157,118.59797 36.925567,104.8354 46.768577,92.417485 58.9625,83.729527 c 29.494038,-21.01399 69.29058,-19.416442 97.10208,3.897958 2.95853,2.480136 8.48125,8.085055 10.73903,10.898873 22.88484,28.520832 23.70094,68.165202 2.00016,97.163832 -11.83784,15.81884 -29.35912,26.71765 -49.00177,30.48073 -3.26711,0.62591 -5.51061,1.32669 -5.20992,1.62738 0.0816,0.0816 0.48681,-0.0259 0.90052,-0.23872 0.41371,-0.21288 1.76422,-0.58827 3.00115,-0.83419 9.68246,-1.92506 16.55734,-4.27392 23.94479,-8.18097 18.36853,-9.71465 32.20229,-26.14048 38.57463,-45.80244 6.70887,-20.70034 4.63141,-42.82118 -5.83929,-62.17708 -3.57111,-6.60146 -8.25586,-12.841941 -13.81005,-18.396127 -10.85521,-10.855218 -24.046,-18.168634 -38.83871,-21.533496 -21.38753,-4.864969 -43.873905,-0.624853 -61.96491,11.684339 -4.815388,3.276409 -7.895167,5.82028 -11.924045,9.849157 -17.498571,17.498577 -25.904561,41.664897 -22.88473,65.791157 1.745306,13.94373 7.453152,27.37416 16.407198,38.60577 2.802825,3.51576 8.8728,9.58448 12.30595,12.30341 4.09938,3.24656 9.40727,6.64906 13.839902,8.87176 l 3.918027,1.96465 -2.859693,-0.002 c -5.412295,-0.004 -7.016967,-0.49914 -11.727332,-3.62013 C 36.218871,201.89318 22.795723,178.43684 21.398979,152.76176 19.755981,122.56002 34.737511,93.765879 60.535637,77.542052 64.141536,75.274388 70.87546,71.881741 74.767667,70.371751 89.65264,64.597097 106.64053,63.28312 122.72708,66.662194 c 13.53273,2.84263 27.35889,9.8344 37.6858,19.057384 17.06111,15.237322 26.92125,35.600372 28.17312,58.182822 0.95964,17.31107 -3.43362,33.42915 -13.08921,48.02187 -2.94485,4.45064 -5.13111,7.13377 -9.23623,11.33538 -9.58561,9.81091 -20.3189,16.57466 -33.20385,20.92393 -5.89812,1.99088 -16.46578,4.25538 -18.22425,3.90518 -0.41616,-0.0829 -0.92084,0.0223 -1.2335,0.25713 -0.48346,0.36307 -0.39204,0.38226 1.05833,0.22217 0.87313,-0.0964 3.05643,-0.41255 4.85179,-0.70261 z m 14.37525,-8.51868 c 21.93136,-8.81135 38.38532,-26.9108 45.09419,-49.60386 0.96599,-3.26751 2.00287,-8.26114 2.53621,-12.21447 0.45377,-3.36353 0.44709,-14.96637 -0.0105,-18.25625 -2.01521,-14.48792 -6.99661,-26.6026 -15.61182,-37.96771 -2.58175,-3.405819 -10.25844,-11.08251 -13.66427,-13.664261 -11.36509,-8.615201 -23.47308,-13.593962 -37.9677,-15.612178 -3.3515,-0.466659 -15.169341,-0.466659 -18.520837,0 -14.494619,2.018216 -26.602612,6.996977 -37.967708,15.612178 -3.405822,2.581751 -11.082513,10.258442 -13.664264,13.664261 -8.61521,11.36511 -13.596607,23.47979 -15.611819,37.96771 -0.46593,3.3497 -0.465062,14.91603 0.0014,18.25625 2.432157,17.41721 9.755118,32.06657 22.034209,44.07877 6.557467,6.41493 13.257395,11.02271 21.924879,15.07854 l 2.778125,1.29998 3.439583,-0.0239 c 3.572239,-0.0248 5.001755,-0.2323 17.4625,-2.53429 4.421382,-0.8168 6.552362,-1.08382 8.863542,-1.11065 2.87472,-0.0334 3.21408,0.0215 6.14666,0.99406 l 3.10395,1.02936 2.18772,-0.42522 c 1.20324,-0.23387 2.79136,-0.50123 3.52914,-0.59412 2.8645,-0.36065 7.42284,0.90974 8.93718,2.49075 0.74638,0.77925 1.56734,2.52738 1.30847,2.78625 -0.32272,0.32272 0.18128,0.15095 3.67121,-1.25119 z"
       id="path1" /></g></svg>
