<?xml version="1.0" encoding="UTF-8" standalone="no"?>
<!-- Created with Inkscape (http://www.inkscape.org/) -->

<svg
   width="67.900002mm"
   height="200.39999mm"
   viewBox="0 0 67.900002 200.39999"
   version="1.1"
   id="svg5"
   xmlns="http://www.w3.org/2000/svg"
   xmlns:svg="http://www.w3.org/2000/svg">
  <defs
     id="defs2" />
  <g
     id="layer1">
    <g
       id="g1177"
       transform="translate(-78.579464,-52.044897)">
      <path
         style="fill:#9c7c38;fill-opacity:1;stroke-width:0.352778"
         d="m 109.55433,251.11668 c -2.4909,-2.71943 -4.17288,-6.06299 -7.77261,-15.45095 -3.771372,-9.8356 -4.898692,-13.11707 -8.030982,-23.37711 -8.85349,-29.00016 -11.8443,-42.06234 -13.66982,-59.70206 -0.58308,-5.63419 -0.59327,-24.77488 -0.0155,-29.11974 1.08585,-8.16575 4.01788,-15.35634 11.28577,-27.677492 15.144272,-25.673846 17.358152,-29.248395 21.193762,-34.219445 2.75966,-3.576606 6.34614,-7.408333 6.93416,-7.408333 0.23187,0 1.0108,1.838092 1.73096,4.08465 1.91823,5.983986 4.51572,11.950005 10.96981,25.195906 3.16711,6.499931 6.50283,13.564306 7.41273,15.69861 2.40078,5.631474 4.99865,13.628484 5.61547,17.286124 1.70198,10.09237 1.63774,25.28738 -0.17545,41.50339 -1.56632,14.00813 -3.07689,19.59785 -10.56815,39.10633 -3.94977,10.28585 -4.96428,13.35874 -7.39579,22.40139 -4.31878,16.06128 -7.45809,23.18996 -13.32171,30.2507 -1.24877,1.50371 -2.43383,2.73402 -2.63345,2.73402 -0.19962,0 -0.90126,-0.58769 -1.5592,-1.30599 z m 5.70535,-32.56067 c 3.69635,-16.80407 5.46911,-26.15988 6.48399,-34.21945 0.79406,-6.30591 1.54663,-17.28696 1.37581,-20.0751 l -0.11684,-1.90705 -2.64583,-0.62488 c -5.40016,-1.27536 -6.78841,-0.87333 -10.80919,3.13034 -6.03423,6.00853 -8.39677,15.78005 -7.21511,29.84181 0.61973,7.37488 3.42798,29.27407 4.21467,32.86678 0.87445,3.99348 2.26466,7.69494 3.49686,9.31043 l 0.95695,1.25463 0.48036,-2.29223 c 0.26419,-1.26073 1.96445,-9.0391 3.77833,-17.28528 z m 4.9188,7.23194 c 10.68614,-26.35606 15.30016,-40.75134 18.83489,-58.76298 0.59295,-3.02145 1.18249,-6.38181 1.31009,-7.46748 l 0.232,-1.97394 -1.36808,-0.37986 c -2.56813,-0.71307 -4.31978,-0.38408 -8.66862,1.62812 l -2.71445,1.25597 -0.18531,1.80564 c -0.10192,0.9931 -0.36019,3.94877 -0.57393,6.56814 -0.97938,12.00244 -2.99274,24.24471 -8.26485,50.25472 -2.04329,10.08059 -3.70886,18.57371 -3.70127,18.87361 0.0176,0.69356 0.27097,0.10709 5.09953,-11.80194 z m -21.668772,-29.6511 c -0.96284,-10.07967 -2.1102,-22.62324 -2.5497,-27.87458 l -0.7991,-9.54791 -3.89441,-0.77919 c -2.14193,-0.42856 -4.55912,-0.77544 -5.37154,-0.77085 -1.46038,0.008 -1.47545,0.0213 -1.3289,1.15488 1.067,8.25337 2.44438,15.10146 4.59126,22.82695 1.52758,5.49698 10.865822,34.02891 11.002832,33.61789 0.0551,-0.16528 -0.687612,-8.54751 -1.650442,-18.62719 z m 4.354612,-30.46868 c 2.04808,-3.08858 4.51987,-6.43291 5.49286,-7.43184 0.97299,-0.99893 1.76907,-1.8692 1.76907,-1.93393 0,-0.0647 -0.81466,-0.31312 -1.81037,-0.55199 -1.70767,-0.40966 -4.60878,-0.32325 -8.1556,0.24293 -1.194582,0.19069 -1.322922,0.13526 -1.322922,-0.57136 0,-0.47718 -0.68829,-1.44594 -1.76389,-2.48264 -1.90336,-1.83453 -2.07018,-2.45152 -1.38305,-5.11528 0.2002,-0.77611 0.50937,-6.09424 0.68703,-11.81806 0.34756,-11.19746 0.6991,-13.79477 2.29815,-16.97957 1.3056,-2.60032 1.555082,-2.87714 2.148852,-2.38436 0.72818,0.60434 0.57506,2.64346 -0.43418,5.78199 -1.041562,3.23901 -0.996592,5.47561 0.13281,6.60501 0.70501,0.70501 0.70531,0.7049 1.56639,-0.5623 0.47369,-0.69709 2.75356,-3.27914 5.06638,-5.73789 3.79074,-4.02993 5.79263,-6.44523 5.79263,-6.98888 0,-0.10731 -1.47897,-0.19511 -3.2866,-0.19511 -5.48448,0 -8.8899,-0.91965 -10.737072,-2.89962 l -0.79449,-0.85161 0.88384,-2.97507 c 0.48611,-1.6363 2.781932,-8.61071 5.101822,-15.498706 3.71753,-11.037745 6.71138,-21.085933 6.71471,-22.53643 10e-4,-0.590203 -10.82417,16.669612 -15.241392,24.300319 -2.43583,4.207863 -8.03839,15.086827 -8.04129,15.614427 -2.5e-4,0.0463 1.78569,0.0378 3.96875,-0.019 3.48909,-0.0907 4.10845,-0.0163 5.1203,0.61495 1.19417,0.74499 2.52785,2.9819 2.05845,3.45254 -0.14757,0.14795 -3.38908,0.34838 -7.20335,0.4454 l -6.93505,0.17639 -0.31123,1.76389 c -0.17118,0.97014 -0.33156,6.44701 -0.35641,12.17083 -0.0543,12.50529 0.85407,24.14156 1.85984,23.82543 4.09618,-1.28745 7.14844,-0.86887 10.23548,1.40368 l 2.09978,1.54577 -0.20122,1.9496 c -0.16602,1.60863 0.85669,13.25608 1.16396,13.25608 0.0513,0 1.768932,-2.52702 3.817012,-5.61561 z m 30.89805,-12.38687 c 1.64923,-0.39129 3.95111,-1.02493 5.11528,-1.40811 l 2.11666,-0.69667 -0.0331,-12.78873 c -0.0276,-10.68653 -0.13295,-13.25264 -0.64083,-15.61095 -0.7593,-3.52582 -2.51045,-7.45874 -3.42784,-7.69865 -0.37107,-0.097 -2.1244,0.12702 -3.89628,0.49791 -1.77188,0.37089 -3.32948,0.67435 -3.46134,0.67435 -0.13185,0 -0.23208,2.26219 -0.22272,5.02708 0.009,2.7649 -0.1976,8.99584 -0.45989,13.84653 -0.37169,6.87365 -0.38731,9.63185 -0.0708,12.50174 0.45383,4.11498 1.02002,6.3731 1.59705,6.3694 0.21183,-0.001 1.73451,-0.32261 3.38375,-0.7139 z m -29.19992,-4.46697 c 1.30554,-1.03973 5.75054,-5.11769 9.87778,-9.06214 4.12725,-3.94444 8.59905,-8.1152 9.93734,-9.26835 l 2.43327,-2.09663 -0.0638,-2.98158 c -0.0351,-1.63986 0.1833,-4.7162 0.48534,-6.83631 0.59811,-4.19837 0.56241,-4.33434 -1.29855,-4.9468 -1.11787,-0.36791 -1.1323,-0.403 -1.92702,-4.68549 -0.4404,-2.37314 -1.53187,-9.040644 -2.4255,-14.816676 -1.49092,-9.63664 -3.21662,-18.813817 -4.03125,-21.43797 -0.1807,-0.582084 -0.51271,-1.771524 -0.7378,-2.643201 l -0.40926,-1.584868 -0.70739,1.378851 c -2.79824,5.454338 -6.58229,15.801352 -9.62587,26.320748 -1.62161,5.604706 -4.05736,14.774826 -4.05736,15.275176 0,0.0873 1.30969,-0.13532 2.91042,-0.4948 4.16996,-0.93646 10.28397,-1.24993 13.02666,-0.66789 3.3997,0.72147 4.77967,2.2857 4.5789,5.1903 -0.0666,0.963 -1.02728,1.0417 -3.22986,0.26458 -0.8249,-0.29104 -1.77767,-0.52916 -2.11725,-0.52916 -1.20291,0 -12.08762,12.98819 -14.6344,17.4625 -3.121492,5.48399 -4.327242,11.7084 -3.368812,17.39065 l 0.4339,2.57241 1.288412,-0.95647 c 0.70864,-0.52605 2.35659,-1.80715 3.66212,-2.84688 z m 20.52335,2.27292 c -0.61675,-3.40067 -0.2952,-6.74992 1.80111,-18.76057 0.16712,-0.95751 -0.008,-0.85239 -2.38111,1.42983 -1.40882,1.35483 -4.64891,4.2387 -7.2002,6.40862 -4.80208,4.08424 -8.27542,7.62484 -9.43883,9.62161 -0.66079,1.13413 -0.66079,1.14852 0,0.86407 0.36959,-0.1591 1.72217,-0.36098 3.00572,-0.44861 2.26721,-0.15479 3.78399,0.13218 9.66071,1.8278 0.97014,0.27992 2.45253,0.51965 3.2942,0.53275 l 1.53032,0.0238 z m 7.28185,-38.51916 c 0.98584,-0.67815 2.35182,-1.33793 3.0355,-1.46619 1.2098,-0.22696 1.23671,-0.2674 1.00578,-1.51108 -0.46701,-2.51505 -5.07649,-15.836423 -7.21699,-20.857047 -2.85032,-6.685554 -5.79029,-12.090763 -5.95598,-10.950205 -0.30017,2.066379 0.71474,8.377195 3.46307,21.533548 0.91077,4.359894 1.51872,8.344664 1.66008,10.880864 l 0.22305,4.0017 0.99652,-0.1993 c 0.54808,-0.10962 1.80312,-0.75415 2.78897,-1.43229 z"
         id="path67" />
      <path
         style="fill:#d4af37;fill-opacity:1;stroke-width:0.352778"
         d="m 108.49599,249 c -2.4909,-2.71943 -4.17288,-6.06299 -7.77261,-15.45095 -3.771364,-9.8356 -4.898684,-13.11707 -8.030974,-23.37711 -8.85349,-29.00016 -11.8443,-42.06234 -13.66982,-59.70206 -0.58308,-5.63419 -0.59327,-24.77488 -0.0155,-29.11974 1.08585,-8.16575 4.01788,-15.35634 11.28577,-27.677465 C 105.43712,67.998829 107.651,64.42428 111.48661,59.45323 c 2.75966,-3.576606 6.34614,-7.408333 6.93416,-7.408333 0.23187,0 1.0108,1.838092 1.73096,4.08465 1.91823,5.983986 4.51572,11.950005 10.96981,25.195906 3.16711,6.499931 6.50283,13.564306 7.41273,15.69861 2.40078,5.631447 4.99865,13.628457 5.61547,17.286097 1.70198,10.09237 1.63774,25.28738 -0.17545,41.50339 -1.56632,14.00813 -3.07689,19.59785 -10.56815,39.10633 -3.94977,10.28585 -4.96428,13.35874 -7.39579,22.40139 -4.31878,16.06128 -7.45809,23.18996 -13.32171,30.2507 -1.24877,1.50371 -2.43383,2.73402 -2.63345,2.73402 -0.19962,0 -0.90126,-0.58769 -1.5592,-1.30599 z m 5.70535,-32.56067 c 3.69635,-16.80407 5.46911,-26.15988 6.48399,-34.21945 0.79406,-6.30591 1.54663,-17.28696 1.37581,-20.0751 l -0.11684,-1.90705 -2.64583,-0.62488 c -5.40016,-1.27536 -6.78841,-0.87333 -10.80919,3.13034 -6.03423,6.00853 -8.39677,15.78005 -7.21511,29.84181 0.61973,7.37488 3.42798,29.27407 4.21467,32.86678 0.87445,3.99348 2.26466,7.69494 3.49686,9.31043 l 0.95695,1.25463 0.48036,-2.29223 c 0.26419,-1.26073 1.96445,-9.0391 3.77833,-17.28528 z m 4.9188,7.23194 c 10.68614,-26.35606 15.30016,-40.75134 18.83489,-58.76298 0.59295,-3.02145 1.18249,-6.38181 1.31009,-7.46748 l 0.232,-1.97394 -1.36808,-0.37986 c -2.56813,-0.71307 -4.31978,-0.38408 -8.66862,1.62812 l -2.71445,1.25597 -0.18531,1.80564 c -0.10192,0.9931 -0.36019,3.94877 -0.57393,6.56814 -0.97938,12.00244 -2.99274,24.24471 -8.26485,50.25472 -2.04329,10.08059 -3.70886,18.57371 -3.70127,18.87361 0.0176,0.69356 0.27097,0.10709 5.09953,-11.80194 z m -21.668764,-29.6511 c -0.96284,-10.07967 -2.1102,-22.62324 -2.5497,-27.87458 l -0.7991,-9.54791 -3.89441,-0.77919 c -2.14193,-0.42856 -4.55912,-0.77544 -5.37154,-0.77085 -1.46038,0.008 -1.47545,0.0213 -1.3289,1.15488 1.067,8.25337 2.44438,15.10146 4.59126,22.82695 1.52758,5.49698 10.86582,34.02891 11.00283,33.61789 0.0551,-0.16528 -0.68761,-8.54751 -1.65044,-18.62719 z m 4.354604,-30.46868 c 2.04808,-3.08858 4.51987,-6.43291 5.49286,-7.43184 0.97299,-0.99893 1.76907,-1.8692 1.76907,-1.93393 0,-0.0647 -0.81466,-0.31312 -1.81037,-0.55199 -1.70767,-0.40966 -4.60878,-0.32325 -8.155594,0.24293 -1.19458,0.19069 -1.32292,0.13526 -1.32292,-0.57136 0,-0.47718 -0.68829,-1.44594 -1.76389,-2.48264 -1.90336,-1.83453 -2.07018,-2.45152 -1.38305,-5.11528 0.2002,-0.77611 0.50937,-6.09424 0.68703,-11.81806 0.34756,-11.19746 0.6991,-13.79477 2.29815,-16.97957 1.3056,-2.60032 1.55508,-2.87714 2.148847,-2.38436 0.728177,0.60434 0.575057,2.64346 -0.434177,5.78199 -1.04156,3.23901 -0.99659,5.47561 0.13281,6.60501 0.705004,0.70501 0.705304,0.7049 1.566384,-0.5623 0.47369,-0.69709 2.75356,-3.27914 5.06638,-5.73789 3.79074,-4.02993 5.79263,-6.44523 5.79263,-6.98888 0,-0.10731 -1.47897,-0.19511 -3.2866,-0.19511 -5.48448,0 -8.889897,-0.91965 -10.737064,-2.89962 l -0.79449,-0.85161 0.88384,-2.97507 c 0.48611,-1.6363 2.781924,-8.610678 5.101814,-15.498679 3.71753,-11.037745 6.71138,-21.085933 6.71471,-22.53643 10e-4,-0.590203 -10.824164,16.669612 -15.241384,24.300319 -2.43583,4.207863 -8.03839,15.0868 -8.04129,15.6144 -2.5e-4,0.0463 1.78569,0.0378 3.96875,-0.019 3.48909,-0.0907 4.10845,-0.0163 5.1203,0.61495 1.19417,0.74499 2.52785,2.9819 2.05845,3.45254 -0.14757,0.14795 -3.38908,0.34838 -7.20335,0.4454 l -6.93505,0.17639 -0.31123,1.76389 c -0.17118,0.97014 -0.33156,6.44701 -0.35641,12.17083 -0.0543,12.50529 0.85407,24.14156 1.85984,23.82543 4.09618,-1.28745 7.14844,-0.86887 10.23548,1.40368 l 2.09978,1.54577 -0.20122,1.9496 c -0.16602,1.60863 0.85669,13.25608 1.16396,13.25608 0.0513,0 1.768927,-2.52702 3.817004,-5.61561 z m 30.89805,-12.38687 c 1.64923,-0.39129 3.95111,-1.02493 5.11528,-1.40811 l 2.11666,-0.69667 -0.0331,-12.78873 c -0.0276,-10.68653 -0.13295,-13.25264 -0.64083,-15.61095 -0.7593,-3.52582 -2.51045,-7.45874 -3.42784,-7.69865 -0.37107,-0.097 -2.1244,0.12702 -3.89628,0.49791 -1.77188,0.37089 -3.32948,0.67435 -3.46134,0.67435 -0.13185,0 -0.23208,2.26219 -0.22272,5.02708 0.009,2.7649 -0.1976,8.99584 -0.45989,13.84653 -0.37169,6.87365 -0.38731,9.63185 -0.0708,12.50174 0.45383,4.11498 1.02002,6.3731 1.59705,6.3694 0.21183,-0.001 1.73451,-0.32261 3.38375,-0.7139 z m -29.19992,-4.46697 c 1.30554,-1.03973 5.75054,-5.11769 9.87778,-9.06214 4.12725,-3.94444 8.59905,-8.1152 9.93734,-9.26835 l 2.43327,-2.09663 -0.0638,-2.98158 c -0.0351,-1.63986 0.1833,-4.7162 0.48534,-6.83631 0.59811,-4.19837 0.56241,-4.33434 -1.29855,-4.9468 -1.11787,-0.36791 -1.1323,-0.403 -1.92702,-4.68549 -0.4404,-2.37314 -1.53187,-9.04062 -2.4255,-14.816649 -1.49092,-9.63664 -3.21662,-18.813817 -4.03125,-21.43797 -0.1807,-0.582084 -0.51271,-1.771524 -0.7378,-2.643201 l -0.40926,-1.584868 -0.70739,1.378851 c -2.79824,5.454338 -6.58229,15.801352 -9.62587,26.320748 -1.62161,5.604692 -4.05736,14.774799 -4.05736,15.275149 0,0.0873 1.30969,-0.13532 2.91042,-0.4948 4.16996,-0.93646 10.28397,-1.24993 13.02666,-0.66789 3.3997,0.72147 4.77967,2.2857 4.5789,5.1903 -0.0666,0.963 -1.02728,1.0417 -3.22986,0.26458 -0.8249,-0.29104 -1.77767,-0.52916 -2.11725,-0.52916 -1.20291,0 -12.08762,12.98819 -14.6344,17.4625 -3.121484,5.48399 -4.327234,11.7084 -3.368804,17.39065 l 0.4339,2.57241 1.288407,-0.95647 c 0.708637,-0.52605 2.356587,-1.80715 3.662117,-2.84688 z m 20.52335,2.27292 c -0.61675,-3.40067 -0.2952,-6.74992 1.80111,-18.76057 0.16712,-0.95751 -0.008,-0.85239 -2.38111,1.42983 -1.40882,1.35483 -4.64891,4.2387 -7.2002,6.40862 -4.80208,4.08424 -8.27542,7.62484 -9.43883,9.62161 -0.66079,1.13413 -0.66079,1.14852 0,0.86407 0.36959,-0.1591 1.72217,-0.36098 3.00572,-0.44861 2.26721,-0.15479 3.78399,0.13218 9.66071,1.8278 0.97014,0.27992 2.45253,0.51965 3.2942,0.53275 l 1.53032,0.0238 z m 7.28185,-38.51916 c 0.98584,-0.67815 2.35182,-1.33793 3.0355,-1.46619 1.2098,-0.22696 1.23671,-0.2674 1.00578,-1.51108 -0.46701,-2.51505 -5.07649,-15.836396 -7.21699,-20.85702 -2.85032,-6.685554 -5.79029,-12.090763 -5.95598,-10.950205 -0.30017,2.066379 0.71474,8.377195 3.46307,21.533548 0.91077,4.359867 1.51872,8.344637 1.66008,10.880837 l 0.22305,4.0017 0.99652,-0.1993 c 0.54808,-0.10962 1.80312,-0.75415 2.78897,-1.43229 z"
         id="path1117" />
    </g>
  </g>
</svg>
